<svg width="40" height="41" viewBox="0 0 40 41" fill="none" xmlns="http://www.w3.org/2000/svg">
<path d="M2.5 5.55911H5.41667L6.66667 10.5591M6.66667 10.5591L10.8333 27.2258H32.5L36.6667 10.5591H6.66667Z" stroke="white" stroke-width="3.33333" stroke-linecap="round" stroke-linejoin="round"/>
<path d="M10.833 35.5591C12.2137 35.5591 13.333 34.4398 13.333 33.0591C13.333 31.6784 12.2137 30.5591 10.833 30.5591C9.4523 30.5591 8.33301 31.6784 8.33301 33.0591C8.33301 34.4398 9.4523 35.5591 10.833 35.5591Z" stroke="white" stroke-width="3.33333" stroke-linecap="round" stroke-linejoin="round"/>
<path d="M32.5 35.5591C33.8807 35.5591 35 34.4398 35 33.0591C35 31.6784 33.8807 30.5591 32.5 30.5591C31.1193 30.5591 30 31.6784 30 33.0591C30 34.4398 31.1193 35.5591 32.5 35.5591Z" stroke="white" stroke-width="3.33333" stroke-linecap="round" stroke-linejoin="round"/>
</svg>
