<svg width="400" height="130" viewBox="0 0 400 130" fill="none" xmlns="http://www.w3.org/2000/svg">
<path d="M101.446 33.083L86.6798 37.8999C74.8667 26.8312 58.8357 27.412 52.2969 29.086C28.8432 34.2514 23.4828 56.177 23.7343 66.4941C17.6122 68.4619 11.9859 72.0968 9.93797 73.6683C4.41946 43.7418 24.5965 25.738 35.3749 20.477C68.0548 4.32481 93.039 22.1509 101.446 33.083Z" fill="white"/>
<path d="M66.8476 75.0007C42.1868 59.3405 19.4229 71.1403 11.1236 78.9977C11.8134 81.4574 13.6385 85.4203 14.4649 87.0943C32.1414 73.3198 53.231 79.6468 61.5662 84.5321C85.1924 98.9624 101.662 92.7311 106.943 87.8117C108.409 86.0899 110.212 78.9635 110.931 75.6156C93.427 87.4222 74.2487 80.1251 66.8476 75.0007Z" fill="white"/>
<path d="M55.4226 87.0943C36.2802 78.5672 21.7941 86.206 16.9439 91.0913C17.5475 92.5671 19.7103 95.3275 20.7163 96.5232C34.0815 87.6682 50.7879 92.492 57.4705 96.0107C70.3182 103.144 80.7876 103.902 84.4163 103.39C95.5396 102.98 101.266 97.5481 102.739 94.8834C87.8223 101.115 72.0931 95.5666 66.0931 92.0137C64.1099 91.0298 58.1531 88.3241 55.4226 87.0943Z" fill="white"/>
<path d="M60.8117 102.672C41.9281 92.8336 28.2252 96.7965 23.7343 100.008C27.0109 104.763 35.7341 109.847 39.6862 111.794C62.5363 121.223 82.6199 112.648 89.8055 107.182C79.1134 110.216 66.0213 105.44 60.8117 102.672Z" fill="white"/>
<path d="M61.5662 66.4941C57.3411 63.4605 49.0993 62.9071 45.5065 63.0095C43.1784 62.0257 40.8 60.1399 39.9018 59.32C38.4359 57.1882 39.5066 55.8354 40.2251 55.4254C41.691 54.2775 44.8598 56.587 46.261 57.8851C48.5891 59.443 50.4645 59.4908 51.1112 59.32C51.2837 57.5982 48.74 54.6397 47.4466 53.3757C43.2215 52.8017 41.1592 50.6085 40.6562 49.5836C39.1042 46.5499 42.2371 45.7915 43.9975 45.7915C44.7736 47.5133 46.6203 49.242 47.4466 49.8911C49.2574 50.629 48.8478 49.1053 48.4167 48.2512L45.5065 45.3816C43.3508 43.0858 45.9017 40.1205 47.4466 38.9248C48.74 39.0888 50.6442 44.4592 51.4346 47.1239C51.8657 48.5997 52.4765 48.4904 52.728 48.2512C52.3831 45.6275 54.237 44.7666 55.207 44.6642C56.4142 48.8457 55.207 52.0091 54.4525 53.0682C54.1938 55.8559 55.9256 58.3976 56.8238 59.32L57.3627 54.8105C57.7938 53.6626 59.9136 53.3757 60.9195 53.3757C61.5231 55.9174 61.171 57.9193 60.9195 58.6026C58.9363 62.4561 60.5243 65.4693 61.5662 66.4941Z" fill="white"/>
<path d="M85.6019 65.1618C82.7564 68.2774 80.0331 72.8142 79.0271 74.6932C76.1817 74.6932 69.5781 70.7986 66.632 68.8514C63.4878 66.0976 63.8637 58.0272 64.5024 53.878C64.5163 53.7253 64.5421 53.4677 64.5842 53.0682C64.7566 51.4284 61.7099 47.6705 60.165 45.9965C58.2681 41.733 60.0213 40.2572 61.1351 40.0522C63.9806 40.4621 64.9075 42.8194 65.0153 43.9467C65.274 45.6685 65.9853 45.1424 66.3087 44.6642C66.8261 41.2206 68.8955 38.7198 69.8656 37.8999C71.4176 35.6862 72.0212 37.6608 72.129 38.9248C71.4392 41.3845 70.9793 45.4157 70.8356 47.1239C71.1805 50.0755 72.9194 47.0555 73.7458 45.1766C73.7458 43.0448 76.9074 42.5119 78.4882 42.5119V47.8413C70.3829 51.6129 69.0751 56.587 69.4344 58.6026C69.5206 61.6362 71.2667 61.5064 72.129 61.0623L76.5481 54.8105C77.7553 52.0228 79.0631 56.6553 79.5661 59.32C77.6691 60.4678 75.7577 63.0779 75.0392 64.2394C74.0044 65.4693 74.8954 67.8265 75.4703 68.8514C85.4726 62.3741 85.4582 55.4937 84.2007 52.8632C83.0798 50.4855 84.6678 48.5245 85.6019 47.8413C86.378 46.7754 88.2247 48.5587 89.051 49.5836V58.6026C90.948 58.1106 92.0689 56.0062 92.3923 55.0155C92.651 53.3757 94.7276 53.3757 95.7336 53.5806L96.8114 55.8354C97.9324 57.4752 94.6917 59.7299 92.9312 60.6523C89.4821 62.5381 86.6079 64.4444 85.6019 65.1618Z" fill="white"/>
<path d="M101.985 73.4633C99.312 77.7268 88.5121 77.2896 83.4463 76.538C85.0846 75.5541 86.3564 74.0783 86.7876 73.4633C87.5636 72.7254 87.542 69.3296 87.4342 67.724C87.6067 65.0183 90.0929 64.3419 91.3145 64.3419C90.9695 67.5395 91.4582 68.4756 91.7456 68.5439C92.8665 68.6259 96.4521 63.9319 98.1048 61.5747C99.7431 59.7709 99.8653 63.9661 99.7216 66.2892L94.2246 70.9011C92.6725 71.967 92.9312 72.8484 93.2546 73.1559C94.4617 73.1559 97.9252 72.2676 99.506 71.8235C102.61 71.2496 102.452 72.6776 101.985 73.4633Z" fill="white"/>
<path d="M66.8808 74.9947C42.2199 59.3345 19.4561 71.1343 11.1567 78.9918C11.8466 81.4515 13.6717 85.4144 14.498 87.0883C32.1745 73.3139 53.2641 79.6409 61.5994 84.5261C85.2255 98.9565 101.695 92.7252 106.976 87.8057C108.442 86.0839 110.246 78.9576 110.964 75.6096C93.4602 87.4163 74.2819 80.1191 66.8808 74.9947Z" fill="white"/>
<path d="M60.8449 102.667C41.9612 92.8277 28.2584 96.7905 23.7674 100.002C27.044 104.757 35.7673 109.841 39.7193 111.788C62.5694 121.217 82.6531 112.642 89.8386 107.176C79.1465 110.21 66.0544 105.434 60.8449 102.667Z" fill="white"/>
<path d="M153.041 68.1207V61.884H167.571V68.1207H153.041ZM159.875 75.6179V62.0831H167.571V75.6179H159.875ZM139.771 75.5516V52.131H147.468V75.5516H139.771ZM139.771 52.1973C139.771 49.6761 140.369 47.4424 141.563 45.4962C142.757 43.55 144.394 42.0241 146.473 40.9183C148.596 39.8125 151.006 39.2596 153.704 39.2596V45.4962C151.758 45.4962 150.232 46.0934 149.126 47.2876C148.021 48.4376 147.468 50.0742 147.468 52.1973H139.771ZM139.771 75.5516H147.468C147.468 77.6304 148.021 79.267 149.126 80.4613C150.232 81.6113 151.758 82.1863 153.704 82.1863V88.4893C151.006 88.4893 148.596 87.9364 146.473 86.8306C144.394 85.7248 142.757 84.1988 141.563 82.2526C140.369 80.3065 139.771 78.0728 139.771 75.5516ZM160.936 54.055C160.715 51.4011 159.963 49.3223 158.68 47.8184C157.398 46.2703 155.717 45.4962 153.638 45.4962V39.2596C157.663 39.2596 160.936 40.4538 163.457 42.8423C165.979 45.1866 167.46 48.504 167.903 52.7944L160.936 54.055ZM167.571 75.5516C167.571 78.0728 166.974 80.3065 165.78 82.2526C164.585 84.1988 162.949 85.7248 160.87 86.8306C158.791 87.9364 156.38 88.4893 153.638 88.4893V82.1863C155.584 82.1863 157.11 81.6113 158.216 80.4613C159.322 79.267 159.875 77.6304 159.875 75.5516H167.571ZM201.229 53.5906V87.4277H193.532V53.5906H201.229ZM182.253 53.5906V76.016H174.557V53.5906H182.253ZM182.253 76.016C182.253 77.8295 182.762 79.2891 183.779 80.3949C184.797 81.5007 186.102 82.0536 187.694 82.0536L185.571 88.4229C183.492 88.4229 181.612 87.8922 179.931 86.8306C178.295 85.7248 176.99 84.2431 176.017 82.3853C175.044 80.4834 174.557 78.3603 174.557 76.016H182.253ZM196.319 75.6843C196.319 78.117 195.855 80.3065 194.926 82.2526C193.997 84.1546 192.714 85.6585 191.078 86.7643C189.441 87.87 187.605 88.4229 185.571 88.4229L187.694 82.0536C189.419 82.0536 190.812 81.4786 191.874 80.3286C192.98 79.1343 193.532 77.5862 193.532 75.6843H196.319ZM226.769 87.4277V64.936H234.466V87.4277H226.769ZM218.808 88.4229L219.803 82.4517C221.218 82.4517 222.435 82.0978 223.452 81.3901C224.514 80.6382 225.332 79.5766 225.907 78.2055C226.482 76.8343 226.769 75.2198 226.769 73.3621L230.219 73.0304C230.219 75.9939 229.711 78.6478 228.693 80.992C227.676 83.2921 226.305 85.1056 224.58 86.4325C222.899 87.7595 220.975 88.4229 218.808 88.4229ZM218.808 88.4229C216.729 88.4229 214.849 87.9585 213.168 87.0297C211.532 86.1008 210.227 84.8402 209.254 83.2479C208.325 81.6113 207.86 79.7757 207.86 77.741L214.893 77.4093C214.893 78.8689 215.38 80.0853 216.353 81.0584C217.37 81.9873 218.52 82.4517 219.803 82.4517L218.808 88.4229ZM207.86 77.741C207.86 75.7064 208.391 73.8929 209.453 72.3005C210.559 70.7082 212.04 69.4476 213.898 68.5188C215.756 67.5457 217.835 67.0591 220.135 67.0591L220.798 72.3669C219.073 72.3669 217.658 72.8313 216.552 73.7602C215.446 74.6891 214.893 75.9054 214.893 77.4093L207.86 77.741ZM220.798 72.3669L220.135 67.0591H229.556V72.3669H220.798ZM226.769 73.3621V65.2677H230.219V73.0304L226.769 73.3621ZM234.466 65.3341H226.769C226.769 63.3879 226.239 61.8177 225.177 60.6234C224.16 59.4292 222.833 58.832 221.196 58.832V52.5291C223.717 52.5291 225.973 53.0819 227.964 54.1877C229.998 55.2935 231.591 56.8195 232.741 58.7657C233.891 60.7119 234.466 62.9013 234.466 65.3341ZM215.623 64.4052L208.657 63.0783C209.01 60.9552 209.74 59.1195 210.846 57.5714C211.996 55.9791 213.456 54.7406 215.225 53.856C217.038 52.9714 219.029 52.5291 221.196 52.5291V58.832C219.781 58.832 218.542 59.2965 217.481 60.2253C216.463 61.1542 215.844 62.5475 215.623 64.4052ZM241.122 87.4277V53.5906H248.818V87.4277H241.122ZM246.032 65.4668C246.032 63.034 246.408 60.8667 247.16 58.9647C247.912 57.0186 248.929 55.4926 250.212 54.3868C251.494 53.281 252.954 52.7281 254.591 52.7281L253.794 59.7609C252.335 59.7609 251.141 60.3138 250.212 61.4196C249.283 62.4811 248.818 63.8302 248.818 65.4668H246.032ZM257.842 61.3532C257.267 60.8667 256.603 60.4907 255.851 60.2253C255.144 59.9157 254.458 59.7609 253.794 59.7609L254.591 52.7281C255.652 52.7281 256.67 52.9493 257.643 53.3916C258.66 53.7896 259.567 54.3425 260.363 55.0502L257.842 61.3532ZM288.698 53.657H281.002V40.3211H288.698V53.657ZM281.002 87.4277V53.5906H288.698V87.4277H281.002ZM262.027 76.016V65.0023H269.723V76.016H262.027ZM269.723 65.0023H262.027C262.027 62.6138 262.513 60.4907 263.486 58.633C264.459 56.731 265.764 55.2493 267.401 54.1877C269.082 53.0819 270.962 52.5291 273.04 52.5291L275.164 58.8984C273.571 58.8984 272.266 59.4513 271.249 60.5571C270.232 61.6629 269.723 63.1446 269.723 65.0023ZM283.789 65.3341H281.002C281.002 63.3879 280.449 61.8398 279.343 60.6898C278.282 59.4955 276.889 58.8984 275.164 58.8984L273.04 52.5291C275.075 52.5291 276.911 53.0819 278.547 54.1877C280.184 55.2935 281.467 56.8195 282.395 58.7657C283.324 60.7119 283.789 62.9013 283.789 65.3341ZM269.723 76.016C269.723 77.8295 270.232 79.2891 271.249 80.3949C272.266 81.5007 273.571 82.0536 275.164 82.0536L273.04 88.4229C270.962 88.4229 269.082 87.8922 267.401 86.8306C265.764 85.7248 264.459 84.2431 263.486 82.3853C262.513 80.4834 262.027 78.3603 262.027 76.016H269.723ZM283.789 75.6843C283.789 78.117 283.324 80.3065 282.395 82.2526C281.467 84.1546 280.184 85.6585 278.547 86.7643C276.911 87.87 275.075 88.4229 273.04 88.4229L275.164 82.0536C276.889 82.0536 278.282 81.4786 279.343 80.3286C280.449 79.1343 281.002 77.5862 281.002 75.6843H283.789ZM315.492 76.5468C315.492 74.9987 315.027 73.6496 314.098 72.4996C313.17 71.3053 311.953 70.1774 310.449 69.1159C308.99 68.0543 307.42 66.9928 305.739 65.9312C304.058 64.8254 302.466 63.6091 300.962 62.2821C299.502 60.9109 298.286 59.3186 297.313 57.5051C296.384 55.6916 295.919 53.5685 295.919 51.1358H303.616C303.616 52.6396 304.08 53.9887 305.009 55.1829C305.982 56.3772 307.198 57.5051 308.658 58.5667C310.162 59.6282 311.754 60.7119 313.435 61.8177C315.116 62.8792 316.686 64.0956 318.146 65.4668C319.65 66.7937 320.866 68.3639 321.795 70.1774C322.724 71.9467 323.188 74.0698 323.188 76.5468H315.492ZM295.919 51.2021C295.919 48.8136 296.516 46.7347 297.711 44.9655C298.905 43.152 300.542 41.7587 302.62 40.7856C304.744 39.7683 307.154 39.2596 309.852 39.2596V45.5626C307.906 45.5626 306.38 46.0712 305.274 47.0886C304.169 48.0617 303.616 49.4328 303.616 51.2021H295.919ZM323.188 76.4804C323.188 78.9132 322.591 81.0142 321.397 82.7834C320.202 84.5527 318.566 85.946 316.487 86.9633C314.408 87.9364 311.997 88.4229 309.255 88.4229V82.1863C311.201 82.1863 312.727 81.6776 313.833 80.6603C314.939 79.643 315.492 78.2497 315.492 76.4804H323.188ZM315.492 51.1358C315.271 49.278 314.629 47.8847 313.568 46.9559C312.55 46.027 311.312 45.5626 309.852 45.5626V39.2596C312.108 39.2596 314.121 39.7019 315.89 40.5865C317.659 41.4712 319.097 42.7096 320.202 44.302C321.352 45.8501 322.082 47.6857 322.392 49.8088L315.492 51.1358ZM301.957 73.6275C302.178 76.2814 302.93 78.3824 304.213 79.9305C305.495 81.4344 307.176 82.1863 309.255 82.1863V88.4229C305.23 88.4229 301.957 87.2287 299.436 84.8402C296.959 82.4517 295.477 79.1343 294.99 74.8881L301.957 73.6275ZM331.289 72.6323V67.7226H354.311V72.6323H331.289ZM341.042 88.4893V82.1863H341.506V88.4893H341.042ZM327.905 74.5564V66.462H335.601V74.5564H327.905ZM346.615 67.7226V65.2677H354.311V67.7226H346.615ZM354.311 65.3341H346.615C346.615 63.3879 346.084 61.8177 345.023 60.6234C344.005 59.4292 342.678 58.832 341.042 58.832V52.5291C343.563 52.5291 345.819 53.0819 347.809 54.1877C349.844 55.2935 351.436 56.8195 352.586 58.7657C353.736 60.7119 354.311 62.9013 354.311 65.3341ZM347.079 76.6131L353.979 77.9401C353.67 80.019 352.94 81.8546 351.79 83.4469C350.684 85.0392 349.247 86.2777 347.477 87.1623C345.708 88.047 343.696 88.4893 341.44 88.4893V82.1863C342.899 82.1863 344.138 81.7219 345.155 80.793C346.217 79.8199 346.858 78.4266 347.079 76.6131ZM327.905 66.462C327.905 63.8081 328.48 61.4417 329.63 59.3628C330.78 57.2397 332.35 55.581 334.341 54.3868C336.331 53.1483 338.565 52.5291 341.042 52.5291V58.832C339.361 58.832 338.034 59.4955 337.061 60.8225C336.088 62.1494 335.601 64.0293 335.601 66.462H327.905ZM327.905 74.5564H335.601C335.601 76.9449 336.088 78.8247 337.061 80.1959C338.034 81.5228 339.361 82.1863 341.042 82.1863V88.4893C338.565 88.4893 336.331 87.8922 334.341 86.6979C332.35 85.4594 330.78 83.8007 329.63 81.7219C328.48 79.5988 327.905 77.2102 327.905 74.5564ZM378.189 87.4277V64.936H385.885V87.4277H378.189ZM370.227 88.4229L371.222 82.4517C372.638 82.4517 373.854 82.0978 374.872 81.3901C375.933 80.6382 376.751 79.5766 377.326 78.2055C377.901 76.8343 378.189 75.2198 378.189 73.3621L381.639 73.0304C381.639 75.9939 381.13 78.6478 380.113 80.992C379.096 83.2921 377.725 85.1056 375.999 86.4325C374.319 87.7595 372.395 88.4229 370.227 88.4229ZM370.227 88.4229C368.148 88.4229 366.269 87.9585 364.588 87.0297C362.951 86.1008 361.646 84.8402 360.673 83.2479C359.744 81.6113 359.28 79.7757 359.28 77.741L366.313 77.4093C366.313 78.8689 366.799 80.0853 367.772 81.0584C368.79 81.9873 369.94 82.4517 371.222 82.4517L370.227 88.4229ZM359.28 77.741C359.28 75.7064 359.811 73.8929 360.872 72.3005C361.978 70.7082 363.46 69.4476 365.318 68.5188C367.175 67.5457 369.254 67.0591 371.554 67.0591L372.218 72.3669C370.493 72.3669 369.077 72.8313 367.971 73.7602C366.866 74.6891 366.313 75.9054 366.313 77.4093L359.28 77.741ZM372.218 72.3669L371.554 67.0591H380.976V72.3669H372.218ZM378.189 73.3621V65.2677H381.639V73.0304L378.189 73.3621ZM385.885 65.3341H378.189C378.189 63.3879 377.658 61.8177 376.597 60.6234C375.579 59.4292 374.252 58.832 372.616 58.832V52.5291C375.137 52.5291 377.393 53.0819 379.383 54.1877C381.418 55.2935 383.01 56.8195 384.16 58.7657C385.31 60.7119 385.885 62.9013 385.885 65.3341ZM367.043 64.4052L360.076 63.0783C360.43 60.9552 361.16 59.1195 362.266 57.5714C363.416 55.9791 364.875 54.7406 366.645 53.856C368.458 52.9714 370.448 52.5291 372.616 52.5291V58.832C371.2 58.832 369.962 59.2965 368.9 60.2253C367.883 61.1542 367.264 62.5475 367.043 64.4052Z" fill="white"/>
</svg>
