<svg width="400" height="130" viewBox="0 0 400 130" fill="none" xmlns="http://www.w3.org/2000/svg">
<path d="M101.446 33.0923L86.6798 37.9072C74.8667 26.8433 58.8357 27.4238 52.2969 29.097C28.8432 34.2602 23.4828 56.1763 23.7343 66.489C17.6122 68.4559 11.9859 72.0893 9.93797 73.6601C4.41946 43.7465 24.5965 25.7505 35.3749 20.4917C68.0548 4.34658 93.039 22.165 101.446 33.0923Z" fill="#3095CE"/>
<path d="M66.8476 74.9919C42.1868 59.3384 19.4229 71.1331 11.1236 78.9872C11.8134 81.4458 13.6385 85.407 14.4649 87.0802C32.1414 73.3118 53.231 79.636 61.5662 84.5191C85.1924 98.9432 101.662 92.7147 106.943 87.7973C108.409 86.0763 110.213 78.953 110.931 75.6065C93.427 87.4081 74.2488 80.1141 66.8476 74.9919Z" fill="#3095CE"/>
<path d="M55.4226 87.0802C36.2802 78.5569 21.7942 86.1924 16.9439 91.0755C17.5475 92.5507 19.7103 95.3099 20.7163 96.5051C34.0815 87.6539 50.7879 92.4756 57.4705 95.9929C70.3183 103.123 80.7876 103.881 84.4163 103.369C95.5396 102.959 101.266 97.5295 102.74 94.866C87.8223 101.095 72.0931 95.5489 66.0931 91.9975C64.1099 91.0141 58.1531 88.3096 55.4226 87.0802Z" fill="#3095CE"/>
<path d="M60.8118 102.652C41.9281 92.8171 28.2252 96.7783 23.7343 99.9882C27.0109 104.742 35.7341 109.823 39.6862 111.769C62.5363 121.194 82.6199 112.623 89.8055 107.159C79.1134 110.192 66.0213 105.418 60.8118 102.652Z" fill="#3095CE"/>
<path d="M61.5662 66.489C57.3411 63.4567 49.0993 62.9035 45.5065 63.0059C43.1784 62.0225 40.8 60.1375 39.9018 59.318C38.4359 57.1871 39.5066 55.8349 40.2251 55.4251C41.691 54.2777 44.8598 56.5861 46.261 57.8837C48.5891 59.4409 50.4645 59.4887 51.1112 59.318C51.2837 57.5969 48.74 54.6397 47.4466 53.3762C43.2215 52.8025 41.1592 50.6102 40.6563 49.5858C39.1042 46.5534 42.2371 45.7954 43.9975 45.7954C44.7736 47.5164 46.6203 49.2443 47.4466 49.8931C49.2574 50.6307 48.8478 49.1077 48.4167 48.254L45.5065 45.3856C43.3508 43.0908 45.9017 40.1268 47.4466 38.9316C48.74 39.0955 50.6442 44.4636 51.4346 47.1271C51.8657 48.6023 52.4765 48.4931 52.728 48.254C52.3831 45.6315 54.237 44.7709 55.207 44.6685C56.4142 48.8482 55.207 52.0103 54.4525 53.0689C54.1939 55.8554 55.9256 58.396 56.8238 59.318L57.3627 54.8104C57.7938 53.6631 59.9136 53.3762 60.9195 53.3762C61.5231 55.9168 61.171 57.9179 60.9195 58.6008C58.9363 62.4527 60.5243 65.4646 61.5662 66.489Z" fill="#3095CE"/>
<path d="M85.6019 65.1573C82.7565 68.2715 80.0331 72.8064 79.0272 74.6845C76.1817 74.6845 69.5781 70.7917 66.6321 68.8452C63.4878 66.0926 63.8637 58.0257 64.5024 53.8783C64.5164 53.7257 64.5422 53.4682 64.5842 53.0689C64.7566 51.4298 61.7099 47.6735 60.1651 46.0003C58.2681 41.7386 60.0213 40.2634 61.1351 40.0585C63.9806 40.4683 64.9075 42.8245 65.0153 43.9514C65.274 45.6724 65.9854 45.1466 66.3087 44.6685C66.8261 41.2264 68.8955 38.7267 69.8656 37.9072C71.4176 35.6944 72.0212 37.6682 72.129 38.9316C71.4392 41.3903 70.9793 45.4197 70.8356 47.1271C71.1805 50.0775 72.9194 47.0588 73.7458 45.1807C73.7458 43.0499 76.9074 42.5172 78.4882 42.5172V47.8442C70.3829 51.6142 69.0752 56.5861 69.4344 58.6008C69.5207 61.6332 71.2668 61.5034 72.129 61.0595L76.5481 54.8104C77.7553 52.0239 79.0631 56.6544 79.5661 59.318C77.6691 60.4653 75.7577 63.0742 75.0392 64.2353C74.0044 65.4646 74.8955 67.8208 75.4703 68.8452C85.4726 62.3708 85.4582 55.4934 84.2008 52.864C83.0798 50.4873 84.6678 48.5272 85.6019 47.8442C86.378 46.7788 88.2247 48.5613 89.051 49.5858V58.6008C90.948 58.1091 92.069 56.0056 92.3923 55.0153C92.651 53.3762 94.7276 53.3762 95.7336 53.5811L96.8114 55.8349C97.9324 57.474 94.6917 59.7277 92.9312 60.6497C89.4821 62.5347 86.6079 64.4401 85.6019 65.1573Z" fill="#3095CE"/>
<path d="M101.985 73.4552C99.312 77.7169 88.5121 77.2798 83.4463 76.5285C85.0846 75.5451 86.3564 74.0699 86.7876 73.4552C87.5636 72.7176 87.542 69.3233 87.4343 67.7183C87.6067 65.0138 90.0929 64.3377 91.3145 64.3377C90.9696 67.534 91.4582 68.4696 91.7456 68.5379C92.8665 68.6199 96.4521 63.9279 98.1048 61.5717C99.7431 59.7687 99.8653 63.9621 99.7216 66.2841L94.2246 70.8941C92.6725 71.9595 92.9312 72.8405 93.2546 73.1479C94.4617 73.1479 97.9252 72.26 99.506 71.8161C102.61 71.2424 102.452 72.6698 101.985 73.4552Z" fill="#3095CE"/>
<path d="M66.8798 74.9894C42.2189 59.336 19.4551 71.1307 11.1558 78.9847C11.8456 81.4434 13.6707 85.4046 14.497 87.0778C32.1735 73.3094 53.2631 79.6336 61.5984 84.5167C85.2245 98.9408 101.694 92.7122 106.975 87.7949C108.441 86.0739 110.245 78.9506 110.963 75.6041C93.4592 87.4056 74.2809 80.1116 66.8798 74.9894Z" fill="#2BB3DC"/>
<path d="M60.8439 102.649C41.9603 92.8147 28.2574 96.7758 23.7664 99.9857C27.043 104.739 35.7663 109.82 39.7184 111.767C62.5685 121.192 82.6521 112.62 89.8377 107.157C79.1455 110.189 66.0534 105.415 60.8439 102.649Z" fill="#2BB3DC"/>
<path d="M153.023 68.1492V61.9193H167.538V68.1492H153.023ZM159.85 75.6384V62.1181H167.538V75.6384H159.85ZM139.768 75.5721V52.1767H147.456V75.5721H139.768ZM139.768 52.243C139.768 49.7245 140.364 47.4932 141.557 45.5491C142.75 43.605 144.385 42.0807 146.462 40.9761C148.583 39.8715 150.991 39.3192 153.686 39.3192V45.5491C151.742 45.5491 150.217 46.1456 149.113 47.3386C148.008 48.4874 147.456 50.1222 147.456 52.243H139.768ZM139.768 75.5721H147.456C147.456 77.6488 148.008 79.2836 149.113 80.4766C150.217 81.6254 151.742 82.1997 153.686 82.1997V88.496C150.991 88.496 148.583 87.9437 146.462 86.8391C144.385 85.7345 142.75 84.2101 141.557 82.266C140.364 80.3219 139.768 78.0906 139.768 75.5721ZM160.91 54.0987C160.689 51.4477 159.938 49.371 158.657 47.8688C157.375 46.3224 155.696 45.5491 153.62 45.5491V39.3192C157.64 39.3192 160.91 40.5122 163.428 42.8981C165.947 45.2398 167.427 48.5536 167.869 52.8395L160.91 54.0987ZM167.538 75.5721C167.538 78.0906 166.941 80.3219 165.748 82.266C164.555 84.2101 162.92 85.7345 160.844 86.8391C158.767 87.9437 156.359 88.496 153.62 88.496V82.1997C155.564 82.1997 157.088 81.6254 158.193 80.4766C159.297 79.2836 159.85 77.6488 159.85 75.5721H167.538ZM201.159 53.6348V87.4355H193.471V53.6348H201.159ZM182.204 53.6348V76.0361H174.516V53.6348H182.204ZM182.204 76.0361C182.204 77.8476 182.712 79.3057 183.729 80.4103C184.745 81.5149 186.048 82.0672 187.639 82.0672L185.518 88.4297C183.441 88.4297 181.564 87.8995 179.885 86.8391C178.25 85.7345 176.946 84.2543 175.974 82.3986C175.002 80.4987 174.516 78.3778 174.516 76.0361H182.204ZM196.255 75.7047C196.255 78.1348 195.791 80.3219 194.863 82.266C193.935 84.1659 192.654 85.6682 191.019 86.7728C189.384 87.8774 187.55 88.4297 185.518 88.4297L187.639 82.0672C189.362 82.0672 190.754 81.4928 191.814 80.344C192.919 79.1511 193.471 77.6046 193.471 75.7047H196.255ZM226.672 87.4355V64.968H234.36V87.4355H226.672ZM218.719 88.4297L219.713 82.4648C221.127 82.4648 222.342 82.1114 223.358 81.4044C224.419 80.6533 225.236 79.5929 225.811 78.2232C226.385 76.8535 226.672 75.2408 226.672 73.385L230.119 73.0537C230.119 76.014 229.611 78.665 228.594 81.0068C227.578 83.3043 226.208 85.1159 224.485 86.4414C222.806 87.7669 220.884 88.4297 218.719 88.4297ZM218.719 88.4297C216.643 88.4297 214.765 87.9658 213.086 87.0379C211.451 86.11 210.147 84.8508 209.175 83.2602C208.248 81.6254 207.784 79.7917 207.784 77.7593L214.809 77.4279C214.809 78.8859 215.295 80.101 216.267 81.0731C217.283 82.0009 218.432 82.4648 219.713 82.4648L218.719 88.4297ZM207.784 77.7593C207.784 75.7268 208.314 73.9152 209.374 72.3246C210.479 70.734 211.959 69.4748 213.815 68.5469C215.67 67.5748 217.747 67.0888 220.045 67.0888L220.707 72.3909C218.984 72.3909 217.57 72.8548 216.466 73.7827C215.361 74.7106 214.809 75.9256 214.809 77.4279L207.784 77.7593ZM220.707 72.3909L220.045 67.0888H229.456V72.3909H220.707ZM226.672 73.385V65.2994H230.119V73.0537L226.672 73.385ZM234.36 65.3656H226.672C226.672 63.4216 226.142 61.853 225.082 60.6601C224.065 59.4671 222.74 58.8706 221.105 58.8706V52.5744C223.624 52.5744 225.877 53.1267 227.865 54.2313C229.898 55.3359 231.488 56.8602 232.637 58.8043C233.786 60.7484 234.36 62.9355 234.36 65.3656ZM215.538 64.4378L208.579 63.1123C208.932 60.9914 209.661 59.1578 210.766 57.6114C211.915 56.0207 213.373 54.7836 215.14 53.8999C216.952 53.0162 218.94 52.5744 221.105 52.5744V58.8706C219.691 58.8706 218.454 59.3345 217.394 60.2624C216.377 61.1903 215.759 62.5821 215.538 64.4378ZM241.01 87.4355V53.6348H248.698V87.4355H241.01ZM245.914 65.4982C245.914 63.0681 246.29 60.9031 247.041 59.0032C247.792 57.0591 248.808 55.5347 250.089 54.4301C251.371 53.3255 252.829 52.7732 254.464 52.7732L253.668 59.7985C252.21 59.7985 251.017 60.3508 250.089 61.4554C249.162 62.5158 248.698 63.8634 248.698 65.4982H245.914ZM257.711 61.3891C257.137 60.9031 256.474 60.5275 255.723 60.2624C255.016 59.9531 254.331 59.7985 253.668 59.7985L254.464 52.7732C255.524 52.7732 256.54 52.9941 257.512 53.436C258.529 53.8336 259.434 54.3859 260.23 55.0929L257.711 61.3891ZM288.535 53.7011H280.847V40.3796H288.535V53.7011ZM280.847 87.4355V53.6348H288.535V87.4355H280.847ZM261.892 76.0361V65.0343H269.58V76.0361H261.892ZM269.58 65.0343H261.892C261.892 62.6483 262.378 60.5275 263.35 58.6718C264.322 56.7719 265.625 55.2917 267.26 54.2313C268.939 53.1267 270.817 52.5744 272.894 52.5744L275.014 58.9369C273.424 58.9369 272.12 59.4892 271.104 60.5938C270.088 61.6984 269.58 63.1785 269.58 65.0343ZM283.63 65.3656H280.847C280.847 63.4216 280.294 61.8751 279.19 60.7263C278.129 59.5334 276.738 58.9369 275.014 58.9369L272.894 52.5744C274.926 52.5744 276.76 53.1267 278.394 54.2313C280.029 55.3359 281.311 56.8602 282.238 58.8043C283.166 60.7484 283.63 62.9355 283.63 65.3656ZM269.58 76.0361C269.58 77.8476 270.088 79.3057 271.104 80.4103C272.12 81.5149 273.424 82.0672 275.014 82.0672L272.894 88.4297C270.817 88.4297 268.939 87.8995 267.26 86.8391C265.625 85.7345 264.322 84.2543 263.35 82.3986C262.378 80.4987 261.892 78.3778 261.892 76.0361H269.58ZM283.63 75.7047C283.63 78.1348 283.166 80.3219 282.238 82.266C281.311 84.1659 280.029 85.6682 278.394 86.7728C276.76 87.8774 274.926 88.4297 272.894 88.4297L275.014 82.0672C276.738 82.0672 278.129 81.4928 279.19 80.344C280.294 79.1511 280.847 77.6046 280.847 75.7047H283.63ZM315.299 76.5663C315.299 75.0198 314.835 73.6722 313.907 72.5235C312.98 71.3305 311.765 70.2038 310.262 69.1434C308.804 68.083 307.236 67.0225 305.557 65.9621C303.878 64.8575 302.287 63.6425 300.785 62.317C299.327 60.9472 298.112 59.3566 297.14 57.5451C296.212 55.7335 295.748 53.6127 295.748 51.1826H303.436C303.436 52.6848 303.9 54.0325 304.828 55.2254C305.8 56.4184 307.015 57.5451 308.473 58.6055C309.975 59.6659 311.566 60.7484 313.245 61.853C314.924 62.9134 316.492 64.1285 317.95 65.4982C319.453 66.8237 320.668 68.3922 321.596 70.2038C322.523 71.9712 322.987 74.092 322.987 76.5663H315.299ZM295.748 51.2489C295.748 48.8629 296.344 46.7863 297.537 45.0189C298.73 43.2074 300.365 41.8156 302.442 40.8435C304.563 39.8273 306.971 39.3192 309.666 39.3192V45.6154C307.722 45.6154 306.197 46.1235 305.093 47.1398C303.988 48.1118 303.436 49.4815 303.436 51.2489H295.748ZM322.987 76.5C322.987 78.9301 322.391 81.0289 321.198 82.7962C320.005 84.5636 318.37 85.9554 316.293 86.9716C314.217 87.9437 311.809 88.4297 309.069 88.4297V82.1997C311.013 82.1997 312.538 81.6916 313.642 80.6754C314.747 79.6592 315.299 78.2674 315.299 76.5H322.987ZM315.299 51.1826C315.078 49.3269 314.438 47.9351 313.377 47.0072C312.361 46.0793 311.124 45.6154 309.666 45.6154V39.3192C311.919 39.3192 313.93 39.761 315.697 40.6447C317.464 41.5284 318.9 42.7655 320.005 44.3562C321.154 45.9026 321.883 47.7362 322.192 49.8571L315.299 51.1826ZM301.779 73.6501C302 76.3012 302.751 78.3999 304.032 79.9464C305.314 81.4486 306.993 82.1997 309.069 82.1997V88.4297C305.049 88.4297 301.779 87.2367 299.261 84.8508C296.786 82.4648 295.306 79.1511 294.82 74.9094L301.779 73.6501ZM331.079 72.656V67.7516H354.077V72.656H331.079ZM340.822 88.496V82.1997H341.286V88.496H340.822ZM327.699 74.578V66.4923H335.387V74.578H327.699ZM346.389 67.7516V65.2994H354.077V67.7516H346.389ZM354.077 65.3656H346.389C346.389 63.4216 345.859 61.853 344.798 60.6601C343.782 59.4671 342.457 58.8706 340.822 58.8706V52.5744C343.34 52.5744 345.594 53.1267 347.582 54.2313C349.614 55.3359 351.205 56.8602 352.354 58.8043C353.503 60.7484 354.077 62.9355 354.077 65.3656ZM346.853 76.6326L353.746 77.9581C353.436 80.0347 352.707 81.8684 351.558 83.459C350.454 85.0496 349.018 86.2868 347.251 87.1704C345.483 88.0541 343.473 88.496 341.219 88.496V82.1997C342.677 82.1997 343.915 81.7358 344.931 80.8079C345.991 79.8359 346.632 78.4441 346.853 76.6326ZM327.699 66.4923C327.699 63.8413 328.274 61.4775 329.422 59.4008C330.571 57.28 332.14 55.6231 334.128 54.4301C336.116 53.193 338.347 52.5744 340.822 52.5744V58.8706C339.143 58.8706 337.817 59.5334 336.845 60.8589C335.873 62.1844 335.387 64.0622 335.387 66.4923H327.699ZM327.699 74.578H335.387C335.387 76.9639 335.873 78.8418 336.845 80.2115C337.817 81.537 339.143 82.1997 340.822 82.1997V88.496C338.347 88.496 336.116 87.8995 334.128 86.7065C332.14 85.4694 330.571 83.8125 329.422 81.7358C328.274 79.615 327.699 77.229 327.699 74.578ZM377.929 87.4355V64.968H385.617V87.4355H377.929ZM369.976 88.4297L370.97 82.4648C372.384 82.4648 373.599 82.1114 374.615 81.4044C375.676 80.6533 376.493 79.5929 377.067 78.2232C377.642 76.8535 377.929 75.2408 377.929 73.385L381.375 73.0537C381.375 76.014 380.867 78.665 379.851 81.0068C378.835 83.3043 377.465 85.1159 375.742 86.4414C374.063 87.7669 372.141 88.4297 369.976 88.4297ZM369.976 88.4297C367.899 88.4297 366.021 87.9658 364.342 87.0379C362.708 86.11 361.404 84.8508 360.432 83.2602C359.504 81.6254 359.04 79.7917 359.04 77.7593L366.066 77.4279C366.066 78.8859 366.552 80.101 367.524 81.0731C368.54 82.0009 369.689 82.4648 370.97 82.4648L369.976 88.4297ZM359.04 77.7593C359.04 75.7268 359.571 73.9152 360.631 72.3246C361.736 70.734 363.216 69.4748 365.072 68.5469C366.927 67.5748 369.004 67.0888 371.301 67.0888L371.964 72.3909C370.241 72.3909 368.827 72.8548 367.723 73.7827C366.618 74.7106 366.066 75.9256 366.066 77.4279L359.04 77.7593ZM371.964 72.3909L371.301 67.0888H380.713V72.3909H371.964ZM377.929 73.385V65.2994H381.375V73.0537L377.929 73.385ZM385.617 65.3656H377.929C377.929 63.4216 377.399 61.853 376.338 60.6601C375.322 59.4671 373.997 58.8706 372.362 58.8706V52.5744C374.88 52.5744 377.134 53.1267 379.122 54.2313C381.154 55.3359 382.745 56.8602 383.894 58.8043C385.043 60.7484 385.617 62.9355 385.617 65.3656ZM366.795 64.4378L359.836 63.1123C360.189 60.9914 360.918 59.1578 362.023 57.6114C363.172 56.0207 364.63 54.7836 366.397 53.8999C368.209 53.0162 370.197 52.5744 372.362 52.5744V58.8706C370.948 58.8706 369.711 59.3345 368.65 60.2624C367.634 61.1903 367.016 62.5821 366.795 64.4378Z" fill="#2BB3DC"/>
</svg>
