<svg width="164" height="140" viewBox="0 0 164 140" fill="none" xmlns="http://www.w3.org/2000/svg">
<path d="M79.9981 28.5596C81.4265 29.7708 84.9004 32.1041 86.4588 33.1194C86.8654 34.1848 72.9802 45.2115 72.5914 44.9663C72.2025 44.721 72.3098 36.364 70.9881 31.9984C69.6663 27.6328 67.4241 27.5406 67.0584 26.5824C66.6927 25.6242 67.1616 23.6888 70.8392 22.395C74.5169 21.1011 78.2127 27.0455 79.9981 28.5596Z" fill="#97A6AB"/>
<path d="M135.398 65.9214C134.804 65.1684 134.835 63.1774 134.925 62.276C134.359 60.7929 125.294 69.7777 125.654 71.0956C126.013 72.4134 133.924 78.8757 134.972 80.2431C136.019 81.6105 136.078 84.6443 137.088 85.7874C138.097 86.9304 139.643 87.8691 142.536 86.2289C145.43 84.5888 144.853 81.672 144.4 80.0849C143.947 78.4977 142.261 74.2467 140.899 72.3154C139.493 70.322 136.14 66.8626 135.398 65.9214Z" fill="#97A6AB"/>
<path d="M105.329 25.7214C116.159 19.9016 125.494 19.644 128.808 20.2427C138.902 22.9895 141.755 33.1624 143.649 38.1262C145.544 43.0899 141.204 50.57 141.325 51.9628C141.445 53.3556 136.963 59.383 135.919 61.4944C134.875 63.6058 132.162 69.9615 120.245 74.5095C111.172 84.3371 75.7783 90.704 73.2848 90.6194C71.6156 90.9974 60.0739 106.201 59.7028 109.357C60.3569 112.327 74.8965 118.289 76.9709 119.416C79.0454 120.542 79.2855 121.889 78.9896 122.55C78.6938 123.212 75.7689 123.985 74.6742 122.553C73.1773 120.247 58.5185 119.538 56.8147 119.024C55.4518 118.612 54.7001 117.433 54.4947 116.894C53.5932 117.764 51.4461 119.319 50.0692 118.584C48.3481 117.665 30.8164 118.943 30.1129 119.075C29.4095 119.206 27.3307 119.766 26.9241 119.255C26.5174 118.745 26.108 117.751 27.579 116.894C28.7136 115.544 52.3227 109.924 53.8121 109.264C55.3015 108.604 56.3831 101.592 56.3203 92.543C56.2575 83.4935 58.2215 67.9881 60.8725 60.2858C63.5235 52.5835 76.8551 39.2467 79.2233 36.3265C81.5914 33.4063 96.2279 29.0115 105.329 25.7214Z" fill="#EFF9FA"/>
<path d="M130.291 46.4107C132.105 46.591 133.114 43.4341 133.392 41.8331C133.776 40.2992 133.058 39.0517 131.334 38.9822C129.611 38.9127 128.976 39.155 127.42 40.4763C126.175 41.5333 127.202 44.0341 127.871 45.1524C127.922 45.4967 128.476 46.2304 130.291 46.4107Z" fill="#A5C3C5"/>
<path d="M144.528 41.1469C144.583 42.4412 143.277 46.0092 142.618 47.6313C141.88 47.1477 142.289 43.5771 141.627 41.5139C140.965 39.4507 140.007 38.362 139.315 40.3943C138.352 41.4168 136.246 42.7839 135.525 40.0727C134.625 36.6836 132.637 35.9361 130.423 35.7987C128.21 35.6612 127.296 37.3852 124.92 38.8813C122.544 40.3775 120.78 40.1143 118.336 39.4823C115.029 38.6267 114.034 38.222 112.029 38.9873C109.105 40.1034 107.715 43.9793 108.807 45.5433C111.97 58.6978 111.145 62.0574 104.907 71.4061C100.656 81.2303 80.9201 97.9804 79.0343 97.6034C77.1485 97.2263 77.1351 97.3605 77.1261 95.8155C77.1171 94.2706 82.8912 88.7765 84.3072 86.7392C85.7232 84.7019 92.811 73.184 95.4513 71.5466C96.5441 69.7446 93.598 67.2091 92.0586 68.1079C85.2334 76.1723 73.0746 71.9255 69.4277 72.6826C65.7808 73.4397 62.4799 74.2342 60.5067 81.6937C58.5336 89.1532 64.3913 91.5114 65.3399 92.1263C66.2886 92.7413 70.2075 91.6405 70.414 92.0418C70.6205 92.4431 64.8509 98.5939 63.7944 99.6715C62.7379 100.749 56.1245 114.655 54.8798 115.346C53.6352 116.036 54.0684 110.539 54.4596 108.617C57.0518 104.528 56.157 95.2008 56.3098 92.3534C55.7829 90.3232 57.9393 64.956 61.3935 58.7412C67.8599 48.4017 77.4847 36.9187 81.6859 34.4475C85.8871 31.9763 99.5053 27.7084 105.505 25.7283C112.569 22.4746 124.865 16.3644 133.433 22.1176C142 27.8708 143.266 37.0067 143.391 37.5699C143.586 37.9027 144.458 39.529 144.528 41.1469Z" fill="#A5C3C5"/>
<path d="M54.7234 117.019C55.7767 115.325 58.4663 111.313 59.6794 109.518C60.1023 111.249 75.5323 118.748 76.9754 119.232C78.4185 119.715 80.6454 121.427 78.7605 122.731C76.8756 124.035 75.638 123.383 74.7385 122.558C73.839 121.732 58.668 119.338 58.1663 119.36C57.6646 119.381 54.7069 118.98 54.7234 117.019Z" fill="#97A6AB"/>
<path d="M50.8375 110.821C52.4715 110.485 53.2957 109.763 53.5036 109.444C53.8154 108.965 54.7978 113.895 54.48 116.713C54.6226 117.558 48.7905 118.885 47.5886 118.444C46.3866 118.004 29.7262 119.463 27.8835 119.582C26.0409 119.7 26.0733 117.665 27.2597 117.123C28.4461 116.58 48.7951 111.241 50.8375 110.821Z" fill="#97A6AB"/>
<path d="M140.608 43.3074C140.618 42.9363 140.41 42.1769 139.502 42.1084C138.367 42.0229 137.65 42.6122 136.831 42.4148C135.916 42.1943 135.156 42.2756 134.889 41.405C134.621 40.5344 134.452 37.0324 131.133 37.0021C127.815 36.9719 126.779 38.6642 125.455 39.6234C123.833 40.798 119.054 41.0004 118.017 41.0354C116.829 41.0755 116.259 40.6874 114.358 40.5743C112.457 40.4613 111.694 41.7412 111.634 41.9803" stroke="#2F537F"/>
<path d="M106.033 41.1935C105.958 40.1373 106.892 39.6872 107.368 39.5942C108.018 39.8587 108.159 40.6286 108.06 41.4059C107.97 42.112 106.763 42.5737 106.539 42.5203C106.345 42.4741 106.126 42.5138 106.033 41.1935Z" fill="#071826"/>
<path d="M143.408 42.2926C143.846 42.2546 143.954 41.8144 143.952 41.599C143.963 41.2036 143.879 40.3885 143.453 40.2919C142.922 40.171 142.859 42.3401 143.408 42.2926Z" fill="#071826"/>
</svg>
