<svg width="167" height="149" viewBox="0 0 167 149" fill="none" xmlns="http://www.w3.org/2000/svg">
<path d="M80.6889 81.7998C90.3822 85.804 113.62 85.4197 124.028 84.727C130.266 80.2739 92.8141 56.1899 86.6708 55.3605C80.5274 54.5312 68.5723 76.7945 80.6889 81.7998Z" fill="#45623F"/>
<path d="M84.9043 82.866C92.1942 85.5484 87.9072 77.1433 87.5297 69.9317C85.5932 61.0675 75.3433 40.7491 47.8169 22.4316C46.1101 21.1835 41.9571 19.8932 38.9997 24.7171C35.3029 30.7469 41.2365 36.0903 44.0295 44.1514C46.8225 52.2125 54.973 72.0306 58.0165 74.4247C61.06 76.8188 75.7919 79.5129 84.9043 82.866Z" fill="#481F1A"/>
<path d="M9.01405 8.10655C20.7387 6.61384 33.4091 18.3916 38.2788 24.4671C40.2964 25.9635 44.0674 41.1486 44.1947 43.5806C44.2966 45.5262 50.415 54.965 53.4614 59.4411C53.9788 60.93 55.0389 64.6445 55.1404 67.5919C52.7157 66.5984 36.7163 53.0676 35.6581 51.7389C34.5999 50.4102 34.3098 48.6459 33.1442 47.7841C31.9786 46.9224 7.53559 30.7359 5.55029 29.3239C3.56499 27.9119 2.72987 24.796 2.86653 24.1145C2.22666 23.9897 1.94172 23.139 1.4753 21.7467L1.46487 21.7155C1.08677 20.5868 2.29678 15.7701 2.94905 13.5028C3.18809 11.975 4.73574 8.75673 9.01405 8.10655Z" fill="#D3CD93"/>
<path d="M3.04776 24.2087C3.30455 24.1582 3.98149 24.2043 4.63493 24.7927C5.45173 25.5282 12.5267 28.9938 14.2044 29.1839" stroke="#124427" stroke-width="0.5"/>
<path d="M152.996 89.8919C148.213 90.6412 142.871 85.7338 140.798 83.1864C139.913 79.5145 140.161 72.8825 148.237 75.73C158.331 79.2894 164.771 89.8298 163.604 91.3459C162.436 92.862 155.88 92.0274 152.996 89.8919Z" fill="#D3CD93"/>
<path d="M54.9754 14.674C45.809 16.9851 40.2578 21.9303 38.628 24.114C39.6721 25.013 41.2332 23.5803 41.8832 22.7516C42.1848 23.6596 43.4438 26.0925 46.0672 28.5603C45.8177 36.4995 50.6884 40.0736 53.155 40.8683C56.3934 42.7311 64.2229 46.8847 69.6335 48.5969C71.9447 54.6283 83.2925 64.3771 88.6776 68.4975C91.2472 71.1482 96.832 76.6974 98.6137 77.6889C100.456 79.2782 108.724 82.5101 111.086 82.1299C112.949 84.114 120.009 84.558 123.306 84.532C126.291 84.8643 132.499 85.2674 133.441 84.2213C134.885 84.5121 139.29 83.9517 140.223 82.8768C141.564 83.283 144.305 81.0506 145.491 79.1928C147.086 78.1565 148.48 77.4971 146.854 75.8232C148.713 75.4914 148.095 72.802 147.554 71.4989C147.795 71.0465 148.11 69.9672 147.437 69.2697C143.83 62.8364 115.902 40.0171 103.846 31.4916C91.7905 22.9661 66.4334 11.785 54.9754 14.674Z" fill="#752811"/>
<path d="M15.1691 25.2046C14.346 25.4709 10.2101 23.3019 8.24509 22.1842C7.67058 21.2028 10.0839 18.6701 11.7404 19.0019C13.0657 19.2673 13.9605 20.3272 14.2423 20.824C14.8942 22.1732 15.9922 24.9384 15.1691 25.2046Z" fill="#593F40"/>
<path d="M5.20158 12.6824C6.28542 12.0677 9.25795 12.8886 10.6087 13.3759C10.9605 14.5432 11.5002 17.0818 10.8454 17.8973C9.6099 17.6132 7.15231 21.2992 6.73658 22.0185C6.32085 22.7378 2.79421 19.9928 2.50705 19.1708C2.21989 18.3489 3.84677 13.4508 5.20158 12.6824Z" fill="#593F40"/>
<path d="M10.0876 12.0792C9.58226 12.552 7.16199 11.4883 6.01503 10.8974C5.5028 9.77331 10.8171 8.69293 11.1136 9.02617C11.41 9.3594 11.5362 9.77131 11.7374 10.2839C11.9386 10.7965 10.7193 11.4881 10.0876 12.0792Z" fill="#593F40"/>
<path d="M12.0675 16.6361C11.9001 14.2877 12.7554 12.4306 13.2039 11.7956C15.1165 6.91449 24.9626 13.4038 24.7083 14.9181C24.454 16.4324 23.2541 18.9969 20.9633 19.8395C18.6725 20.6821 12.2768 19.5715 12.0675 16.6361Z" fill="#593F40"/>
<path d="M29.2675 24.98C29.2079 25.5059 27.336 25.299 26.4075 25.1298C26.1013 24.2745 26.8243 22.2279 27.224 21.3115C27.6585 21.2888 28.6451 21.4114 29.1159 22.0837C29.7045 22.9242 29.342 24.3227 29.2675 24.98Z" fill="#593F40"/>
<path d="M26.6434 28.239C25.686 28.8119 25.2704 27.8995 25.1822 27.3717C25.3246 26.856 25.6895 25.8277 26.0096 25.84C26.3297 25.8522 27.8756 26.1174 28.6085 26.2484C28.3524 26.6733 27.6009 27.6662 26.6434 28.239Z" fill="#593F40"/>
<path d="M22.0905 30.039C21.4609 30.2172 21.4118 29.0944 21.4659 28.5107C22.4555 28.229 24.4999 27.8001 24.7604 28.3382C25.0209 28.8764 24.4089 29.482 24.0703 29.7176C23.6727 29.7505 22.72 29.8608 22.0905 30.039Z" fill="#593F40"/>
<path d="M16.8311 24.9756C16.7009 24.6198 15.7415 22.3705 15.2781 21.2904C15.1222 20.9267 20.8518 21.8356 20.8407 22.2896C20.8318 22.6528 19.4502 24.3735 18.7604 25.1885C18.1716 25.2659 16.9614 25.3315 16.8311 24.9756Z" fill="#593F40"/>
<path d="M28.7892 20.516C28.4606 20.8809 27.3575 20.4461 26.8471 20.183C26.8349 19.9506 25.469 18.1816 25.3377 17.5684C25.2327 17.0779 25.8792 16.2255 26.2156 15.8607C26.5229 15.7289 27.3254 15.5496 28.0772 15.8873C28.829 16.2249 29.2241 17.4228 29.3276 17.9796C29.285 18.673 29.1177 20.1511 28.7892 20.516Z" fill="#593F40"/>
<path d="M22.2935 20.5299C22.3385 19.8728 24.0093 18.8776 24.8391 18.4621C24.9601 18.4002 25.8854 20.0872 26.3329 20.9385C26.1704 21.4679 25.7499 22.7846 25.3674 23.8165C24.9849 24.8485 24.0166 23.912 23.5802 23.3148C23.1326 22.6603 22.2485 21.1871 22.2935 20.5299Z" fill="#593F40"/>
<path d="M19.9483 25.1783C19.7716 24.5776 21.4464 23.5146 22.3059 23.0582C23.1232 23.4147 24.4257 26.1055 24.054 26.6332C23.6823 27.1609 22.8288 26.8063 21.7141 27.0099C20.5993 27.2134 20.1691 25.929 19.9483 25.1783Z" fill="#593F40"/>
<path d="M32.4076 23.2455C32.0203 23.6143 31.1118 23.4585 30.706 23.3346C30.3707 22.9407 29.711 21.9418 29.7539 21.0973C29.8076 20.0417 30.1565 19.0796 30.4615 18.6643C30.7665 18.249 32.6085 20.1492 32.8674 20.9343C33.1263 21.7194 32.8917 22.7845 32.4076 23.2455Z" fill="#593F40"/>
<path d="M18.9006 14.264C17.2974 14.0003 16.2705 15.4158 15.9574 16.1565C16.4949 16.9355 17.671 18.0536 19.1015 18.1028C20.5321 18.1521 20.7279 17.1485 20.9399 16.4545C21.1519 15.7604 20.9046 14.5937 18.9006 14.264Z" fill="#00040E"/>
<path d="M42.1992 22.4899C43.3546 20.7251 48.7459 17.4359 61.0675 18.3979C73.3892 19.3598 86.231 27.0023 91.1117 30.7033C95.7845 40.8978 105.163 63.6591 105.294 73.1478" stroke="#FFFBDB"/>
<path d="M63.909 18.6141C63.0643 17.5931 60.4863 15.3237 56.9326 14.4141" stroke="#FFFBDB"/>
<path d="M46.3477 28.4824C47.5939 27.8693 50.6728 26.6855 53.0191 26.8549C54.6521 27.3537 58.9409 31.8405 60.8812 34.0216C65.088 37.0579 73.8416 43.697 75.202 45.9632C76.9024 48.7959 83.8545 54.2754 84.1944 55.5359C84.4663 56.5443 89.565 61.0374 92.0803 63.1579C95.1851 65.491 101.442 70.3739 101.634 71.2404C102.725 71.638 106.434 73.9299 108.152 75.0261C111.457 75.7656 118.217 77.368 118.812 77.8624C119.856 77.7202 125.785 78.5924 128.619 79.0462C132.563 78.7485 140.432 77.7599 140.349 76.1875C141.987 76.1018 143.641 70.0477 143.57 68.6828C143.513 67.5908 129.845 53.3238 123.019 46.3268C120.258 44.4822 114.095 40.6733 111.53 40.1944C109.16 37.8001 93.9784 29.1235 91.4263 30.5711" stroke="#FFFBDB"/>
<path d="M53.426 40.8132L60.7436 34.272" stroke="#FFFBDB"/>
<path d="M69.9041 48.5864C71.552 47.5489 74.8817 45.5471 75.0172 45.8405" stroke="#FFFBDB"/>
<path d="M84.0054 55.4345L78.9154 60.0567" stroke="#FFFBDB"/>
<path d="M92.3145 63.5446L88.5797 68.0634" stroke="#FFFBDB"/>
<path d="M101.508 71.1073C100.692 73.1273 98.913 77.2354 98.324 77.5075" stroke="#FFFBDB"/>
<path d="M108.409 75.2207C109.397 76.8111 111.334 80.4062 111.18 82.0632" stroke="#FFFBDB"/>
<path d="M118.907 77.9375L123.364 84.3398" stroke="#FFFBDB"/>
<path d="M133.317 84.3221L128.772 79.1308C124.16 67.3962 114.343 43.217 111.971 40.377" stroke="#FFFBDB"/>
<path d="M140.276 83.0943L135.263 78.3281" stroke="#FFFBDB"/>
<path d="M123.628 46.7871L140.655 76.1185L145.274 79.013" stroke="#FFFBDB"/>
<path d="M147.331 71.1127L143.596 68.7422" stroke="#FFFBDB"/>
<path d="M147.091 75.5918L142.981 73.3359" stroke="#FFFBDB"/>
<path d="M15.2333 40.0434C17.8248 39.3161 20.1374 39.5401 20.9698 39.7431C24.7323 42.1502 32.2133 47.0769 32.0367 47.5263C31.8161 48.088 27.6896 47.6038 23.9067 47.9519C20.1239 48.2999 18.6539 50.5954 18.5208 51.0508C18.3877 51.5061 19.4405 52.7737 19.5463 53.0821C19.6521 53.3904 18.5386 54.8163 17.2937 55.0734C17.7264 56.3031 17.7256 59.1026 17.5667 60.2896C17.4079 61.4767 14.5118 61.0389 14.0033 61.176C13.4948 61.3132 14.0575 67.8403 12.6724 70.9333C12.7372 74.2819 11.1479 81.2164 10.3552 81.5525C9.56239 81.8887 6.45594 71.729 5.52062 69.5592C3.61477 67.6868 2.93565 59.4228 3.25575 56.1191C3.51182 53.4761 5.31353 49.3827 6.18237 47.6663C8.11956 45.4284 12.6418 40.7707 15.2333 40.0434Z" fill="#45623F"/>
<path d="M34.4825 53.4523C33.6345 52.0072 33.9924 50.2369 34.2773 49.5324C34.5812 50.0682 35.3959 51.4047 36.2237 52.4647C37.2585 53.7897 53.5132 66.5924 55.5036 67.7295C57.0958 68.6391 57.5894 72.4473 57.6372 74.2377C54.08 71.7116 46.5163 66.2416 44.7187 64.5703C42.4716 62.4813 35.5425 55.2587 34.4825 53.4523Z" fill="#667C53"/>
<path d="M55.0339 62.7744C54.8322 58.9208 57.8765 57.0287 59.424 56.5644C64.4604 56.7263 66.1956 58.8047 69.0604 61.2761C71.9251 63.7475 88.3338 86.5382 88.6167 90.8544C90.4993 92.853 91.6071 96.8145 91.9257 98.5455C93.3838 100.274 96.1917 104.488 95.7577 107.52C97.4442 109.255 98.0525 112.529 98.1458 113.948C98.9124 114.44 100.543 116.41 100.932 120.356C104.466 124.73 109.835 134.764 108.581 138.02C110.016 141.479 108.218 143.054 107.275 143.56C106.333 144.065 101.598 142.888 99.5857 141.455C97.6892 142.238 90.1615 138.871 88.4096 135.885C85.1226 135.145 74.5604 116.266 73.4449 115.64C72.5525 115.14 69.43 108.252 67.9803 104.871L62.4148 91.0863L58.1682 78.7109C57.2075 75.0044 55.2356 66.628 55.0339 62.7744Z" fill="#D3CD93"/>
<path d="M63.4187 85.4882C63.2914 83.9014 65.8442 83.5538 67.1366 83.5783C67.9795 84.5302 69.6972 86.6203 69.8248 87.3661C69.9842 88.2984 67.0132 88.6199 64.9424 89.2263C62.8715 89.8327 63.5779 87.4718 63.4187 85.4882Z" fill="#593F40"/>
<path d="M71.2322 91.0002C70.3308 90.6933 67.0847 92.1026 65.5744 92.8456C65.2305 93.0119 66.4647 97.1702 66.9495 97.9747C67.4343 98.7793 73.4552 96.4722 73.8068 95.7898C74.1584 95.1075 72.3589 91.3839 71.2322 91.0002Z" fill="#593F40"/>
<path d="M75.0541 100.594C74.2086 99.6643 71.054 100.988 69.5823 101.766C68.5769 103.7 73.433 112.962 74.4143 113.741C75.3957 114.519 78.3388 110.492 78.6063 109.261C78.8738 108.03 76.1108 101.756 75.0541 100.594Z" fill="#593F40"/>
<path d="M78.2753 118.247C77.9109 117.204 79.7413 113.486 80.7021 111.757C81.026 110.755 84.723 116.693 85.3704 117.433C86.0178 118.174 83.333 122.907 82.4325 123.674C81.532 124.44 78.7309 119.552 78.2753 118.247Z" fill="#593F40"/>
<path d="M84.3508 127.417C84.1267 126.053 86.4262 122.872 87.604 121.452C89.6218 121.347 92.9624 127.73 93.9577 129.715C94.953 131.7 92.1519 134.139 91.0888 135.723C90.0257 137.306 84.6311 129.121 84.3508 127.417Z" fill="#593F40"/>
<path d="M95.4989 138.484C93.9913 137.901 95.5112 134.26 96.4596 132.512C97.6797 131.493 101.859 134.713 103.303 135.529C104.746 136.344 104.264 140.508 103.612 141.434C102.96 142.359 97.3834 139.213 95.4989 138.484Z" fill="#593F40"/>
<path d="M106.126 135.954C105.955 136.574 101.905 133.161 99.902 131.377C98.4771 130.136 103.349 126.676 105.119 128.876C106.89 131.075 106.34 135.179 106.126 135.954Z" fill="#593F40"/>
<path d="M95.2958 124.869C93.6467 123.53 93.8563 122.101 94.1672 121.554C94.0808 119.903 98.6557 119.727 100.116 120.861C101.576 121.994 103.059 124.781 103.169 125.667C103.279 126.553 100.341 127.598 99.4887 128.343C98.6364 129.088 97.3572 126.544 95.2958 124.869Z" fill="#593F40"/>
<path d="M93.9002 118.894C91.9139 118.896 91.9552 115.387 92.2242 113.633C92.3322 112.62 95.6529 113.454 96.6688 113.4C97.6847 113.347 99.1171 117.602 99.1068 118.621C99.0964 119.64 96.3832 118.891 93.9002 118.894Z" fill="#593F40"/>
<path d="M94.7556 108.47C94.7045 109.441 91.4616 108.791 89.8466 108.345C88.4488 106.941 87.2116 102.605 86.7677 100.612C87.6167 99.8032 89.6569 98.3976 91.0255 99.2427C92.7361 100.299 94.8194 107.257 94.7556 108.47Z" fill="#593F40"/>
<path d="M90.1603 97.3146C89.8419 98.0443 87.2071 98.0634 85.9294 97.9817C85.1343 97.3867 83.9588 94.3921 83.7052 93.1957C83.4515 91.9993 85.5239 90.2355 87.7392 91.2018C89.9545 92.1682 90.5582 96.4024 90.1603 97.3146Z" fill="#593F40"/>
<path d="M82.6638 90.067C81.5383 89.8291 81.4265 87.1019 81.5112 85.768C82.1394 85.3642 83.6604 84.6538 84.7196 85.0436C86.0436 85.5308 86.2475 87.6534 86.9724 89.0994C87.6974 90.5455 84.0706 90.3643 82.6638 90.067Z" fill="#593F40"/>
<path d="M86.1281 113.722C85.1782 112.584 85.6581 111.83 86.0168 111.594C87.3316 110.134 89.8527 112.228 90.383 113.499C90.9133 114.77 89.4527 115.217 88.8681 116.454C88.2836 117.69 87.3156 115.144 86.1281 113.722Z" fill="#593F40"/>
<path d="M83.9921 110.124C82.0527 109.929 82.1234 107.502 82.4013 106.312C83.574 104.618 85.9825 106.805 87.0402 108.11C86.8322 108.863 85.9315 110.32 83.9921 110.124Z" fill="#593F40"/>
<path d="M80.0604 104.117C78.6002 103.155 79.894 101.529 80.7234 100.836C83.4966 99.9493 84.5818 102.489 84.7778 103.87C83.8137 104.354 81.5206 105.08 80.0604 104.117Z" fill="#593F40"/>
<path d="M80.0966 95.9522C78.8313 94.4602 80.5302 94.7856 81.5378 95.1348C82.0811 95.2988 83.9953 96.782 84.0305 97.4548C84.0587 97.9931 83.36 98.3071 83.0071 98.3969C82.5641 98.2036 81.3619 97.4442 80.0966 95.9522Z" fill="#593F40"/>
<path d="M76.9487 98.566C76.2383 97.8942 76.9603 96.6382 77.4101 96.0941C78.9472 96.4357 80.1472 98.3986 79.766 99.1781C79.3848 99.9577 77.8367 99.4058 76.9487 98.566Z" fill="#593F40"/>
<path d="M89.3926 120.371C88.6112 119.468 89.5949 118.394 90.1845 117.97C93.4315 119.898 92.619 121.906 91.8552 122.34C91.0913 122.773 90.3693 121.5 89.3926 120.371Z" fill="#593F40"/>
<path d="M148.327 87.6369C146.866 86.6746 148.16 85.0486 148.99 84.356C151.763 83.4688 152.848 86.009 153.044 87.39C152.08 87.8733 149.787 88.5993 148.327 87.6369Z" fill="#593F40"/>
<path d="M158.019 86.8389C156.754 85.347 158.453 85.6723 159.461 86.0215C160.004 86.1855 161.918 87.6687 161.953 88.3415C161.982 88.8798 161.283 89.1938 160.93 89.2836C160.487 89.0904 159.285 88.3309 158.019 86.8389Z" fill="#593F40"/>
<path d="M154.872 89.4527C154.161 88.7809 154.883 87.5249 155.333 86.9809C156.87 87.3224 158.07 89.2853 157.689 90.0649C157.308 90.8445 155.76 90.2925 154.872 89.4527Z" fill="#593F40"/>
<path d="M11.4342 46.3811C6.84235 48.7837 4.14976 58.2418 4.18714 62.8673C2.59299 54.8308 6.23331 49.0213 7.17851 47.7249C7.93468 46.6879 11.9816 43.5345 13.9105 42.0874C15.4197 41.1893 18.9422 39.6372 20.9589 40.6127C22.9756 41.5883 27.3063 44.826 25.7294 44.9086C22.617 44.9077 16.026 43.9785 11.4342 46.3811Z" fill="#D3CD93"/>
</svg>
