<svg width="211" height="115" viewBox="0 0 211 115" fill="none" xmlns="http://www.w3.org/2000/svg">
<path d="M118.564 33.2538C121.228 26.8395 133.082 23.9675 138.677 23.3333C142.156 16.7473 150.685 8.38522 154.515 5.02742C155.567 2.11479 158.49 -2.53852 161.767 2.14929C171.029 13.9949 154.71 32.5824 155.787 39.5394C155.549 48.5927 179.731 60.9815 167.818 83.4957C155.906 106.01 129.223 113.395 121.837 114.587C114.451 115.778 99.2038 111.37 95.7492 110.536C92.2947 109.703 74.6645 106.725 67.9936 101.721C62.2758 101.531 46.4722 86.5531 39.2851 79.0881C32.0995 73.6754 17.4145 62.3953 16.1594 60.5767C13.2458 63.0421 8.57121 58.3675 7.86684 57.9192C7.16245 57.471 1.49532 55.1657 3.68513 49.621C-0.575897 45.1496 1.35658 39.7541 5.29778 37.1629C9.23897 34.5716 29.2481 37.1629 31.8032 37.7387C32.5403 36.9556 33.1468 37.0285 33.3579 37.1629C35.5461 38.3529 40.0722 40.5373 40.6711 39.7541C41.4196 38.7752 45.185 40.87 46.5981 41.5123C48.0112 42.1546 60.8573 42.1546 65.8673 45.6231C67.152 50.1192 85.1366 54.1016 96.8266 56.6708C108.517 59.24 130.999 53.7063 134.328 53.3665C135.076 51.1242 141.055 44.6691 142.89 44.6691C144.357 44.6691 143.999 47.1606 143.637 48.4063C145.29 47.976 148.217 46.6261 146.695 44.6691C144.792 42.223 130.183 45.6884 122.981 44.6691C117.219 43.8538 114.057 39.7089 113.196 37.7384C112.2 36.2888 111.878 33.3625 118.564 33.2538Z" fill="#E1E6E2"/>
<path d="M22.5203 51.1165C12.2379 50.3492 8.84077 55.9372 8.52106 58.4311C-5.29105 51.8208 1.09178 38.1125 6.9099 36.3223C12.728 34.5321 28.7249 37.0549 30.085 37.2322C31.4451 37.4095 31.2273 36.3379 33.9521 37.0549C36.6769 37.772 39.832 40.0666 41.6963 39.7797C43.5607 39.4929 44.8514 41.0704 47.7196 41.7875C50.5878 42.5045 58.7622 40.6402 65.6459 45.5162C72.5297 50.3921 93.6336 55.6533 102.275 57.1523C110.917 58.6514 131.195 53.5084 134.273 53.3684C135.206 51.5027 138.984 46.4186 142.109 44.9727C144.609 43.816 144.084 46.854 143.508 48.5176C144.643 48.2377 146.923 47.2209 146.96 45.3925C147.007 43.107 143.276 43.2466 128.665 44.5972C116.976 45.6777 113.072 39.9724 112.581 36.9847C111.967 35.8796 112.237 33.5222 118.229 32.9328C126.824 21.7595 137.874 25.443 139.225 22.3734C141.435 17.4621 152.117 6.28879 154.204 4.69261C156.292 3.09643 156.046 -0.218726 158.993 0.395209C169.994 5.30654 162.349 24.6245 157.151 33.6695C156.373 34.8564 155.064 38.1634 156.046 41.896C157.274 46.5618 170.903 59.5768 171.148 70.259C171.394 80.9411 164.862 88.7162 158.915 94.6631C152.968 100.61 134.36 90.8264 132.442 85.455C130.523 80.0836 120.356 72.9857 112.683 72.4102C105.009 71.8347 97.7195 78.1653 94.0747 78.9326C90.4298 79.6999 71.4381 76.8224 67.7933 69.9164C64.1484 63.0103 35.3732 52.0757 22.5203 51.1165Z" fill="#4F7892"/>
<path d="M60.4194 105.949C63.193 105.568 65.6637 103.435 67.1005 101.854C69.7944 102.645 75.7859 104.699 78.1997 106.596C77.5531 109.182 58.5875 116.725 46.7339 110.798C34.8804 104.872 37.4583 93.8253 41.3459 94.9578C44.6167 95.9105 55.713 106.596 60.4194 105.949Z" fill="#D5DBD7"/>
<path d="M59.1531 108.004C61.9935 108.596 66.5501 104.749 68.4734 102.752C69.7062 102.752 73.3703 103.566 78.1636 106.82C66.994 114.735 51.3861 113.034 48.7232 111.628C46.0602 110.223 58.7832 109.927 59.1531 108.004Z" fill="#1A3E70"/>
<path d="M109.676 78.4335C111.472 74.7806 117.184 75.0025 119.815 75.57C122.601 77.2726 144.967 74.4866 163.928 75.3379C179.097 76.0189 198.703 91.0313 202.468 94.7326C205.479 97.6927 214.118 112.144 208.509 107.477C200.714 94.8954 176.556 85.3721 171.203 83.464C163.928 80.871 137.778 80.6822 132.198 81.9162C126.617 83.1501 124.243 91.0038 117.029 90.1197C113.004 89.6265 107.432 82.9996 109.676 78.4335Z" fill="#2A4362"/>
<path d="M126.617 76.2C121.483 76.9387 117.06 80.9707 115.49 82.8944C114.663 86.1249 124.278 81.2103 126.097 79.6639C127.916 78.1174 143.608 77.799 148.157 78.6178C152.705 79.4365 162.984 78.3449 167.396 78.6178C171.808 78.8907 182.133 86.3045 190.821 88.3058C199.508 90.3071 212.607 113.186 210.424 107.318C208.241 101.451 205.915 98.3806 198.711 91.4807C191.506 84.5809 173.445 75.6516 165.125 74.9413C156.804 74.231 133.034 75.2766 126.617 76.2Z" fill="#E8EEEA"/>
<path d="M85.8619 62.5242C88.0577 63.183 88.5151 64.537 88.4694 65.1317C88.4694 65.2989 86.4794 66.3668 84.4894 65.8865C82.4995 65.4061 79.5488 62.5242 80.3036 62.5242C81.0585 62.5242 83.1171 61.7007 85.8619 62.5242Z" fill="#373B46"/>
<path d="M50.5288 67.1738C57.1206 72.873 72.3228 84.9098 80.3977 87.4641C90.4914 90.657 92.5513 93.3349 95.8472 93.9529C99.143 94.5709 114.078 100.957 129.012 95.0858" stroke="#6A7577" stroke-width="0.5"/>
<path d="M31.8869 58.7285C39.0966 65.8353 54.855 80.7491 60.2108 83.5506C66.9056 87.0525 73.6004 96.2191 78.2352 96.9401C82.87 97.6611 99.1434 102.811 106.971 103.017C114.799 103.223 136.325 104.562 142.402 102.09" stroke="#6A7577" stroke-width="0.5"/>
<path d="M24.162 57.9043C31.7151 65.5947 47.6864 81.3256 51.1471 82.7264C54.237 86.3313 71.0254 99.1028 76.3812 100.648C81.737 102.193 88.5347 102.811 95.7445 105.901C102.954 108.99 139.724 110.432 147.037 102.811" stroke="#6A7577" stroke-width="0.5"/>
</svg>
