<svg width="93" height="93" viewBox="0 0 93 93" fill="none" xmlns="http://www.w3.org/2000/svg">
<path d="M92.6512 47.2701C91.9682 43.9715 90.8639 41.5738 91.4306 38.188C91.7357 36.3571 91.9537 34.3809 91.852 32.47C91.6994 29.9779 90.1155 27.6965 88.6042 26.1998C87.5289 25.1317 86.3446 24.2744 85.0368 23.7004C83.591 23.0537 82.1596 22.3199 80.6339 22.0656C78.9482 21.7823 77.2408 21.8477 75.5552 22.0438C68.3331 22.8866 63.2981 27.1443 57.8707 31.5109C57.2749 31.9977 56.6864 32.4627 56.1124 32.935C54.3977 34.3591 52.7556 35.7904 51.0555 37.4034C50.3289 38.0936 49.5733 38.8928 48.6578 39.1326C48.5125 39.1689 48.3817 39.227 48.2292 39.2343C48.0839 39.2416 47.9313 39.2198 47.7787 39.2052C49.4498 38.3188 50.6486 36.7422 50.3725 34.6933C50.3071 34.1774 50.2563 33.6398 50.1546 33.1239C50.0892 32.8115 50.0092 32.5063 49.8857 32.2084C49.6314 31.6054 49.1882 30.966 49.1083 30.3412C48.9267 28.8662 50.1691 27.7909 49.537 26.287C48.8976 24.7902 47.9821 23.5914 46.9214 22.3562C46.4636 21.8113 46.1439 21.3754 45.8024 20.7505C45.5409 20.2855 45.3883 19.6607 45.0977 19.2393C44.2113 17.9678 42.5983 17.4374 41.1306 17.2049C40.2006 17.0596 39.2198 17.1759 38.3043 17.4011C30.2249 19.4355 22.0656 25.633 21.1502 34.3736C19.4646 34.4535 17.8443 34.7369 16.1732 35.122C14.8799 35.4198 13.5939 35.9938 12.3006 36.3571C9.75768 37.0764 7.31643 38.2462 4.98416 39.6775C3.0951 40.84 -0.0727102 41.9952 0.232446 45.163C0.305102 45.8605 0.450415 46.5145 0.639321 47.1538C1.33682 49.4934 2.76815 51.4115 4.40292 52.8937C9.32174 57.3402 15.6501 59.9776 22.0511 60.944C22.1092 61.5543 22.2546 62.2082 22.2981 62.5206C22.4217 63.4216 22.5016 64.4097 22.7922 65.2743C23.7658 68.1224 26.6357 71.5954 30.0215 70.5637C32.7098 69.7499 32.9278 66.0154 32.7316 63.7122C32.6517 62.7531 32.1721 61.874 31.5691 61.1184C32.5281 61.0094 33.4799 60.8931 34.4027 60.6969C35.1365 60.5516 35.8703 60.3627 36.5969 60.152C36.9311 60.5952 37.2145 60.9585 37.3162 61.0675C39.4886 63.2835 46.6961 66.1389 47.6624 61.2782C47.8877 60.1375 47.6334 59.1494 46.885 58.2412C46.4781 57.7471 45.8533 57.2094 45.2503 56.8316C46.0785 56.4684 46.9141 56.1269 47.7642 55.8798C48.7814 55.5965 49.8349 55.5166 50.7285 56.2649C52.5159 57.7762 53.4604 60.4862 54.6011 62.4843C55.9816 64.8892 57.4492 67.2578 59.1131 69.4738C62.6151 74.1166 67.1198 77.6404 72.6344 79.5222C77.8947 81.3168 85.6399 83.017 87.1366 75.6423C87.4853 73.8986 87.8559 72.0895 88.7496 70.4983C90.6532 67.1052 92.2298 63.4724 92.4405 59.5417C92.5495 57.6381 92.1208 55.7854 92.1717 53.8891C92.2443 51.673 93.1162 49.5079 92.6512 47.2701Z" fill="#F79329"/>
<mask id="mask0_1685_20042" style="mask-type:luminance" maskUnits="userSpaceOnUse" x="0" y="17" width="93" height="65">
<path d="M92.6512 47.2701C91.9682 43.9715 90.8639 41.5738 91.4306 38.188C91.7357 36.3571 91.9537 34.3809 91.852 32.47C91.6994 29.9779 90.1155 27.6965 88.6042 26.1998C87.5289 25.1317 86.3446 24.2744 85.0368 23.7004C83.591 23.0537 82.1596 22.3199 80.6339 22.0656C78.9482 21.7823 77.2408 21.8477 75.5552 22.0438C68.3331 22.8866 63.2981 27.1443 57.8707 31.5109C57.2749 31.9977 56.6864 32.4627 56.1124 32.935C54.3977 34.3591 52.7556 35.7904 51.0555 37.4034C50.3289 38.0936 49.5733 38.8928 48.6578 39.1326C48.5125 39.1689 48.3817 39.227 48.2292 39.2343C48.0839 39.2416 47.9313 39.2198 47.7787 39.2052C49.4498 38.3188 50.6486 36.7422 50.3725 34.6933C50.3071 34.1774 50.2563 33.6398 50.1546 33.1239C50.0892 32.8115 50.0092 32.5063 49.8857 32.2084C49.6314 31.6054 49.1882 30.966 49.1083 30.3412C48.9267 28.8662 50.1691 27.7909 49.537 26.287C48.8976 24.7902 47.9821 23.5914 46.9214 22.3562C46.4636 21.8113 46.1439 21.3754 45.8024 20.7505C45.5409 20.2855 45.3883 19.6607 45.0977 19.2393C44.2113 17.9678 42.5983 17.4374 41.1306 17.2049C40.2006 17.0596 39.2198 17.1759 38.3043 17.4011C30.2249 19.4355 22.0656 25.633 21.1502 34.3736C19.4646 34.4535 17.8443 34.7369 16.1732 35.122C14.8799 35.4198 13.5939 35.9938 12.3006 36.3571C9.75768 37.0764 7.31643 38.2462 4.98416 39.6775C3.0951 40.84 -0.0727102 41.9952 0.232446 45.163C0.305102 45.8605 0.450415 46.5145 0.639321 47.1538C1.33682 49.4934 2.76815 51.4115 4.40292 52.8937C9.32174 57.3402 15.6501 59.9776 22.0511 60.944C22.1092 61.5543 22.2546 62.2082 22.2981 62.5206C22.4217 63.4216 22.5016 64.4097 22.7922 65.2743C23.7658 68.1224 26.6357 71.5954 30.0215 70.5637C32.7098 69.7499 32.9278 66.0154 32.7316 63.7122C32.6517 62.7531 32.1721 61.874 31.5691 61.1184C32.5281 61.0094 33.4799 60.8931 34.4027 60.6969C35.1365 60.5516 35.8703 60.3627 36.5969 60.152C36.9311 60.5952 37.2145 60.9585 37.3162 61.0675C39.4886 63.2835 46.6961 66.1389 47.6624 61.2782C47.8877 60.1375 47.6334 59.1494 46.885 58.2412C46.4781 57.7471 45.8533 57.2094 45.2503 56.8316C46.0785 56.4684 46.9141 56.1269 47.7642 55.8798C48.7814 55.5965 49.8349 55.5166 50.7285 56.2649C52.5159 57.7762 53.4604 60.4862 54.6011 62.4843C55.9816 64.8892 57.4492 67.2578 59.1131 69.4738C62.6151 74.1166 67.1198 77.6404 72.6344 79.5222C77.8947 81.3168 85.6399 83.017 87.1366 75.6423C87.4853 73.8986 87.8559 72.0895 88.7496 70.4983C90.6532 67.1052 92.2298 63.4724 92.4405 59.5417C92.5495 57.6381 92.1208 55.7854 92.1717 53.8891C92.2443 51.673 93.1162 49.5079 92.6512 47.2701Z" fill="white"/>
</mask>
<g mask="url(#mask0_1685_20042)">
<path d="M78.6431 24.7609C80.612 26.8461 81.048 29.6506 80.6992 32.5569C80.365 35.2306 79.0209 38.2894 79.3624 40.9923C79.6748 43.5062 81.3604 45.8966 81.7091 48.5049C82.1015 51.4475 80.5902 54.0341 79.4059 56.6206C77.8947 59.8974 77.575 62.5712 78.2434 66.1241C79.1371 70.9266 77.2263 76.1724 72.3656 78.0033C71.3048 78.403 69.9679 78.0687 68.8054 78.2141C68.1442 80.5318 73.499 81.6289 74.9884 81.9631C77.6041 82.5371 80.3723 83.2709 83.0533 82.6679C84.8624 82.261 86.3809 81.1058 87.4781 79.6817C89.1419 77.5166 90.704 75.4095 91.9537 72.9101C92.8328 71.1591 93.5085 69.5098 93.8863 67.5844C94.2569 65.6736 94.8817 63.879 94.9689 61.9318C95.0924 59.2072 95.8408 56.5407 95.9207 53.8016C96.0079 50.8735 96.1023 47.9527 96.1023 45.0247C96.1023 41.6026 95.8989 38.1877 95.9134 34.7874C95.9207 32.6586 95.7681 30.6751 95.2087 28.6116C94.6492 26.5409 93.3269 23.889 91.3942 22.7773C90.377 22.1888 89.2872 21.8401 88.3281 21.128C87.5144 20.5177 86.3737 19.951 85.3129 19.8057C81.3604 19.2608 75.933 19.0719 72.7506 21.7965C74.6179 22.1452 75.8603 22.5884 77.4442 23.7219C77.8947 24.0343 78.2943 24.383 78.6431 24.7609ZM35.151 19.6676C35.7904 19.7766 36.3208 19.8856 36.4806 19.9583C38.871 21.1062 39.1834 23.4385 39.5031 25.7853C39.6412 26.7952 39.8882 27.5654 40.3532 28.4591C41.8645 31.3798 44.5963 33.6249 42.6346 37.1487C42.2495 37.8244 41.9734 38.0279 42.7654 38.4638C43.8044 39.0305 45.5627 39.2558 46.7397 39.2848C48.745 39.3357 49.6895 38.5292 50.6849 36.909C52.3124 34.2352 53.0099 29.8613 52.2107 26.8098C51.8547 25.4293 51.2734 24.136 50.9465 22.7337C50.5396 20.9827 50.0746 19.3044 48.992 17.8367C47.9095 16.3618 46.7833 15.2937 45.025 14.6253C43.4048 14.015 41.2687 13.8116 39.6048 14.3347C38.0282 14.8287 36.5533 15.7297 35.0348 16.5144C34.3155 16.8849 31.787 18.0329 32.0413 19.1663C32.0559 19.2026 33.8359 19.4424 35.151 19.6676Z" fill="#ED6C30"/>
</g>
<path d="M66.7637 37.1062C66.0299 38.2978 65.7829 39.6928 67.7664 39.5765C68.7618 39.5184 69.7499 39.0752 70.6654 38.7337C71.8279 38.305 72.9976 37.8546 74.0366 37.1571C76.0565 35.7911 75.0901 33.5824 72.8596 33.4516C70.8543 33.3281 68.304 35.05 67.1343 36.5685C66.9962 36.7429 66.88 36.9246 66.7637 37.1062ZM67.2723 47.6704C66.9454 47.823 66.6184 47.9828 66.2769 48.1572C65.7029 48.4551 65.0054 48.6367 65.158 49.4214C65.4704 51.0562 69.2195 51.2451 70.4111 51.3396C72.242 51.4849 75.8676 51.7101 75.6423 48.8329C75.5842 48.0192 75.1628 47.2345 74.3708 46.8639C73.528 46.4716 72.5544 46.3699 71.6244 46.4571C69.9969 46.6169 68.6673 47.031 67.2723 47.6704ZM66.3569 60.0147C65.9936 60.1673 65.7393 60.4725 65.6811 61.0537C65.4559 63.4005 69.9097 66.5538 72.0531 66.3213C73.2301 66.1905 73.3972 64.7228 73.2883 63.7928C73.2011 63.0663 72.8668 62.6449 72.3873 62.0854C71.53 61.0755 70.3239 60.4725 69.0306 60.2182C68.2677 60.0656 67.0907 59.7096 66.3569 60.0147Z" fill="white"/>
<path d="M11.7267 48.8691C10.1573 48.9563 8.82047 47.6122 8.74055 45.8539C8.69695 44.8367 9.09656 43.914 9.72867 43.2891C10.1937 42.8387 10.7895 42.548 11.4506 42.5117C11.5087 42.5117 11.5669 42.5117 11.6323 42.519C13.129 42.5335 14.3714 43.8413 14.4586 45.5197C14.524 47.2852 13.3034 48.7747 11.7267 48.8691Z" fill="#2F2F2F"/>
</svg>
