<svg width="85" height="85" viewBox="0 0 85 85" fill="none" xmlns="http://www.w3.org/2000/svg">
<path d="M8.23193 76.336C8.23193 76.336 10.6624 85.6701 25.8442 83.2808L28.438 77.0333L24.0685 72.2839L11.9759 68.2969L8.23857 76.336" fill="#34484C"/>
<path d="M56.6206 58.8413C56.6206 62.1509 54.9233 63.0209 50.6308 64.8338L13.9613 80.3157C13.1741 80.3161 12.3946 80.1612 11.6673 79.8601C10.94 79.559 10.2792 79.1175 9.72267 78.5609C9.16612 78.0042 8.72476 77.3433 8.42381 76.6159C8.12286 75.8886 7.96823 75.109 7.96875 74.3219V22.8039C7.96875 19.4916 9.91578 18.3892 13.9613 16.8101L50.6308 1.32813C51.4176 1.32812 52.1967 1.48314 52.9236 1.78433C53.6505 2.08551 54.3109 2.52696 54.8672 3.08345C55.4234 3.63994 55.8646 4.30057 56.1654 5.0276C56.4663 5.75462 56.621 6.5338 56.6206 7.32063V58.8519" fill="#085B50"/>
<path d="M11.3022 79.6841C11.3022 79.6841 25.0444 83.6286 25.8452 83.2886C26.6487 82.9499 25.3339 77.3293 25.3339 77.3293L20.3654 71.973L15.7355 71.7578L14.9214 72.9133L11.3022 79.6841Z" fill="#34484C"/>
<path d="M49.7677 4.88938L9.08984 21.977L10.997 32.9341L17.0533 33.5357L37.258 30.2831L49.8221 23.6996L59.0725 11.0333C57.0511 7.4075 54.0841 5.1643 49.7677 4.88672" fill="#F4F5F5"/>
<path d="M19.8672 25.7666C19.8672 24.8037 20.0345 24.0374 20.3652 23.384C16.2002 22.9962 12.2663 21.7902 9.40156 19.207C8.45063 20.0836 7.98047 21.1727 7.98047 22.793V74.3123C7.98082 75.9016 8.61224 77.4257 9.73594 78.5497C10.8596 79.6736 12.3836 80.3054 13.973 80.3061L19.8924 77.8052C19.8751 77.6322 19.8662 77.4585 19.8659 77.2846L19.8672 25.7666Z" fill="#34484C"/>
<path d="M69.5644 63.9181C69.5644 67.2278 67.8684 68.0977 63.5719 69.9106L25.8452 83.2848C25.0582 83.285 24.279 83.1301 23.5519 82.829C22.8249 82.5279 22.1643 82.0865 21.6079 81.53C21.0515 80.9735 20.6103 80.3128 20.3093 79.5857C20.0084 78.8586 19.8537 78.0793 19.854 77.2923V25.7744C19.854 22.4607 21.801 21.3597 25.8452 19.7779L63.5719 6.40234C64.3589 6.402 65.1383 6.55676 65.8655 6.85779C66.5927 7.15881 67.2535 7.6002 67.81 8.15673C68.3665 8.71325 68.8079 9.374 69.109 10.1012C69.41 10.8284 69.5647 11.6078 69.5644 12.3948V63.9261" fill="#089083"/>
<path d="M53.9471 22.1266C53.9854 22.2259 54.0038 22.3318 54.0012 22.4383C53.9986 22.5447 53.975 22.6496 53.9318 22.7469C53.8887 22.8442 53.8267 22.9321 53.7496 23.0054C53.6724 23.0788 53.5816 23.1362 53.4822 23.1745L33.4142 30.9161C33.3152 30.9547 33.2094 30.9731 33.1031 30.9705C32.9968 30.9678 32.8922 30.944 32.7951 30.9005C32.6981 30.857 32.6107 30.7947 32.538 30.7171C32.4653 30.6395 32.4088 30.5483 32.3717 30.4486C32.332 30.35 32.3124 30.2445 32.3141 30.1382C32.3158 30.032 32.3387 29.9271 32.3815 29.8299C32.4243 29.7326 32.4862 29.6449 32.5634 29.5719C32.6406 29.4988 32.7317 29.442 32.8312 29.4047L52.8965 21.6631C53.3175 21.5037 53.7864 21.7109 53.9457 22.1279M53.9471 25.8188C53.9854 25.9181 54.0038 26.024 54.0012 26.1304C53.9986 26.2369 53.975 26.3418 53.9318 26.4391C53.8887 26.5364 53.8267 26.6243 53.7496 26.6976C53.6724 26.771 53.5816 26.8284 53.4822 26.8667L33.4142 34.6083C33.3153 34.6469 33.2097 34.6655 33.1036 34.663C32.9974 34.6605 32.8928 34.637 32.7958 34.5937C32.6988 34.5505 32.6114 34.4884 32.5386 34.4111C32.4658 34.3338 32.409 34.2429 32.3717 34.1435C32.3321 34.0447 32.3126 33.939 32.3144 33.8326C32.3161 33.7262 32.3391 33.6212 32.3818 33.5238C32.4246 33.4263 32.4864 33.3384 32.5636 33.2651C32.6407 33.1918 32.7317 33.1346 32.8312 33.0969L52.8965 25.3553C52.9957 25.3166 53.1016 25.298 53.2081 25.3003C53.3145 25.3026 53.4195 25.3259 53.5169 25.3689C53.6144 25.4118 53.7024 25.4735 53.776 25.5505C53.8496 25.6274 53.9072 25.7182 53.9457 25.8175M47.1245 32.2628C47.2865 32.6825 47.1869 33.1075 46.8987 33.2191L33.1978 38.5024C32.9109 38.6113 32.5496 38.3616 32.3903 37.9446C32.2309 37.5249 32.3305 37.0999 32.616 36.9923L46.3196 31.7064C46.6025 31.5975 46.9678 31.8432 47.1245 32.2628Z" fill="#78111F"/>
</svg>
