<svg width="79" height="64" viewBox="0 0 79 64" fill="none" xmlns="http://www.w3.org/2000/svg">
<path d="M59.2074 41.1315C51.107 45.0317 49.8319 50.757 50.207 53.1321C46.8066 53.9311 40.7066 52.2158 38.0816 51.2583C38.8817 48.7582 38.5816 45.4664 38.3316 44.133C36.3315 36.9337 29.2479 34.9663 25.956 34.8825C20.856 34.6825 18.9974 32.7987 18.7056 31.8819C17.3055 27.6813 21.2891 27.9652 23.4558 28.6322C29.3561 29.6323 26.4976 25.4651 24.3308 23.2565C21.0307 21.056 21.8724 18.6731 22.7057 17.7567C25.9059 15.0566 31.9562 23.4653 34.5813 28.0072C36.6815 32.5074 38.6232 31.882 39.3315 31.0068C41.3316 27.5063 39.6649 23.465 38.5815 21.8819C36.2814 19.0822 33.4562 15.0481 32.3311 13.381C29.731 9.78041 30.9977 7.54755 31.9561 6.88119C34.0562 5.0811 36.4146 8.21458 37.3313 10.0063C39.6314 13.2065 41.2899 8.67294 41.8316 6.00615C42.3316 1.80595 43.9567 0.422377 44.7067 0.255617C47.4068 -0.644425 48.4985 1.04732 48.7069 2.0057C49.3069 4.1058 47.1234 10.4643 45.9567 13.381C44.9566 17.481 47.1234 18.3396 48.3318 18.2565C50.9319 18.3565 52.4153 15.0478 52.832 13.381C53.532 10.8809 55.3739 11.0892 56.2073 11.5059C59.6075 13.806 54.7905 20.298 51.957 23.2565C48.5567 27.1566 47.0401 30.0484 46.7068 31.0068C45.2067 35.507 46.0818 37.9655 46.7068 38.6322C51.407 41.3323 52.9988 35.257 53.2071 31.8819C53.0071 27.1816 55.1239 26.59 56.2073 26.8816C57.6073 27.1816 57.4573 30.3401 57.2073 31.8819C57.1073 34.582 58.9157 33.757 59.8324 33.0069C62.4326 31.1068 63.2493 27.1316 63.3326 25.3816C62.7326 20.6813 64.0826 19.256 64.8327 19.1309C69.3329 18.1309 69.6246 21.7977 69.2079 23.7561C68.4078 25.8562 68.2912 28.298 68.3328 29.2564C69.2329 32.8566 71.3746 30.0895 72.333 28.2559C73.7331 25.4558 75.5832 25.5058 76.3332 25.8808C79.8334 30.481 73.9581 34.6312 70.5829 36.1313C66.5828 37.7313 61.3325 40.1315 59.2074 41.1315Z" fill="#EC6C26"/>
<path d="M60.8327 50.2583C62.5328 52.9584 62.2078 56.8002 61.8328 58.3836C61.5944 60.4837 59.3166 62.5088 58.2076 63.2589H73.9583C76.0584 61.3588 77.6668 55.716 78.2085 53.1321C78.5085 48.1308 76.3334 47.2989 75.2084 47.5081C73.1083 47.6081 72.9999 49.9666 73.2083 51.1333C73.7083 54.4334 72.8333 56.5085 72.3333 57.1336C72.5333 54.3334 71.4999 52.3834 70.9582 51.7583C69.3581 50.0582 70.2915 47.3831 70.9582 46.2581C72.4583 45.058 72.6666 43.2579 72.5833 42.5079C71.8832 40.1078 69.6248 40.8411 68.5831 41.5078C64.9829 44.808 66.7497 50.6324 68.0831 53.1321C69.3831 55.2311 69.2914 57.091 69.0831 57.7586C67.583 59.5587 66.708 55.4243 66.458 53.1321C65.0579 46.1307 62.4578 44.8821 61.3327 45.133C58.9326 45.933 59.9993 48.8832 60.8327 50.2583Z" fill="#EC6C26"/>
<path d="M25.581 47.6331C23.4809 51.5333 24.1226 56.5085 24.706 58.5086C25.0435 60.2087 26.18 62.4672 26.7061 63.3839L10.0803 63.6339C2.77995 57.8336 2.62161 51.6333 3.45498 49.2582C4.65504 45.458 4.28836 42.9246 3.95501 42.1329C2.65494 40.6328 1.16313 38.0077 0.579736 36.8826C-0.220302 33.9825 1.1631 33.3408 1.9548 33.3824C3.85489 33.3824 5.49664 35.9659 6.08 37.2576C7.88008 40.0578 7.91345 43.6746 7.70512 45.133C6.90508 46.6331 6.95508 49.5915 7.08009 50.8833C7.1801 55.2835 10.9553 58.217 12.8304 59.1337C14.4304 60.2337 14.4971 59.4254 14.3304 58.8837C10.6303 53.7834 10.7887 47.7581 11.3304 45.383C12.7305 40.3828 11.9138 37.0493 11.3304 36.0076C8.33022 31.0073 7.91355 27.0071 8.08024 25.6321C8.18025 22.3319 10.2887 21.5069 11.3304 21.5069C14.2305 21.1069 14.4556 24.0903 14.2056 25.6321C13.5055 29.9323 14.4973 32.5907 15.0806 33.3824C18.2808 38.5827 17.8307 44.2996 17.2056 46.5081C16.2056 51.8083 17.2056 55.5502 17.8307 56.7586C19.4307 59.1587 19.7474 57.5086 19.7058 56.3835C19.5057 50.3833 21.9559 43.2996 23.2059 40.5078C23.8059 38.3077 25.5394 38.1743 26.3311 38.3827C29.2312 39.6827 27.0394 45.0913 25.581 47.6331Z" fill="#EC6C26"/>
<path d="M60.8327 50.2606C62.5328 52.9607 62.2078 56.8025 61.8327 58.3859C61.5944 60.486 59.3166 62.5111 58.2076 63.2612H73.9583C76.0584 61.3611 77.6668 55.7183 78.2085 53.1344C78.5085 48.1331 76.3334 47.3012 75.2084 47.5104C73.1083 47.6104 72.9999 49.9689 73.2083 51.1356C73.7083 54.4358 72.8333 56.5109 72.3332 57.1359C72.5332 54.3358 71.4999 52.3857 70.9582 51.7606C69.3581 50.0605 70.2915 47.3854 70.9582 46.2604C72.4583 45.0603 72.6666 43.2602 72.5833 42.5102C71.8832 40.1101 69.6248 40.8434 68.5831 41.5101C64.9829 44.8103 66.7496 50.6347 68.083 53.1344C69.3831 55.2334 69.2914 57.0933 69.0831 57.7609C67.583 59.561 66.708 55.4266 66.458 53.1344C65.0579 46.133 62.4578 44.8844 61.3327 45.1353C58.9326 45.9354 59.9993 48.8855 60.8327 50.2606Z" fill="#76C6E8"/>
<path d="M25.581 47.6354C23.4809 51.5356 24.1226 56.5109 24.706 58.5109C25.0435 60.211 26.314 62.5892 26.8401 63.5059L10.0803 63.6362C2.77995 57.8359 2.62161 51.6356 3.45498 49.2605C4.65504 45.4603 4.28835 42.9269 3.95501 42.1352C2.65494 40.6351 1.16313 38.01 0.579736 36.8849C-0.220302 33.9848 1.1631 33.3431 1.9548 33.3848C3.85489 33.3848 5.49664 35.9682 6.08 37.2599C7.88008 40.0601 7.91345 43.6769 7.70512 45.1353C6.90508 46.6354 6.95508 49.5939 7.08009 50.8856C7.18009 55.2858 10.9553 58.2193 12.8304 59.136C14.4304 60.236 14.4971 59.4277 14.3304 58.886C10.6303 53.7857 10.7887 47.7604 11.3304 45.3853C12.7305 40.3851 11.9138 37.0516 11.3304 36.0099C8.33022 31.0096 7.91355 27.0095 8.08024 25.6344C8.18024 22.3342 10.2887 21.5092 11.3304 21.5092C14.2305 21.1092 14.4556 24.0926 14.2056 25.6344C13.5055 29.9346 14.4972 32.5931 15.0806 33.3848C18.2808 38.585 17.8307 44.3019 17.2056 46.5104C16.2056 51.8106 17.2056 55.5525 17.8307 56.7609C19.4307 59.161 19.7474 57.5109 19.7058 56.3858C19.5057 50.3856 21.9559 43.3019 23.2059 40.5101C23.8059 38.31 25.5394 38.1766 26.3311 38.385C29.2312 39.6851 27.0394 45.0936 25.581 47.6354Z" fill="#76C6E8"/>
<path d="M38.0233 50.6839C29.6406 48.707 23.7018 58.3452 21.7803 63.4114L67.0351 63.3254C63.9038 55.7961 59.377 53.2128 57.505 52.8623L51.38 52.8062C47.0763 53.1668 40.6823 51.5416 38.0233 50.6839Z" fill="#2A658D"/>
</svg>
