<svg width="1014" height="300" viewBox="0 0 1014 300" fill="none" xmlns="http://www.w3.org/2000/svg">
<path d="M196.632 137.387C169.576 150.415 165.317 169.538 166.569 177.472C155.211 180.14 134.836 174.411 126.068 171.213C128.741 162.862 127.738 151.867 126.903 147.413C120.223 123.366 96.5618 116.794 85.5664 116.514C68.5313 115.846 62.3232 109.554 61.3485 106.492C56.6721 92.4609 69.9778 93.4092 77.2152 95.6373C96.9233 98.9776 87.3754 85.0583 80.1378 77.6812C69.1147 70.331 71.9261 62.3718 74.7098 59.3109C85.3989 50.2919 105.608 78.3788 114.376 93.5495C121.391 108.581 127.877 106.492 130.243 103.569C136.924 91.8763 131.357 78.3776 127.738 73.0899C120.055 63.7382 110.618 50.2635 106.86 44.6951C98.1754 32.6685 102.407 25.2103 105.608 22.9845C112.622 16.9719 120.5 27.4383 123.562 33.4231C131.245 44.1123 136.784 28.9693 138.594 20.0617C140.264 6.03222 145.692 1.41082 148.197 0.853812C157.216 -2.15251 160.863 3.49826 161.559 6.69944C163.563 13.7142 156.27 34.9527 152.372 44.6951C149.032 58.3899 156.27 61.258 160.306 60.9802C168.991 61.3143 173.946 50.2627 175.337 44.6951C177.676 36.3442 183.828 37.0402 186.611 38.432C197.969 46.1148 181.879 67.7993 172.415 77.6812C161.057 90.7086 155.991 100.368 154.878 103.569C149.868 118.601 152.79 126.812 154.878 129.039C170.578 138.058 175.894 117.765 176.59 106.492C175.922 90.7921 182.993 88.8157 186.611 89.7899C191.288 90.7921 190.787 101.342 189.952 106.492C189.618 115.511 195.658 112.755 198.72 110.25C207.405 103.903 210.133 90.625 210.411 84.7794C208.407 69.0798 212.917 64.3189 215.422 63.901C230.454 60.5606 231.428 72.8086 230.036 79.3502C227.364 86.3649 226.974 94.5209 227.113 97.7221C230.12 109.747 237.273 100.505 240.475 94.3803C245.151 85.0273 251.331 85.1943 253.836 86.4469C265.527 101.813 245.903 115.675 234.629 120.686C221.268 126.03 203.731 134.047 196.632 137.387Z" fill="#666666"/>
<path d="M202.061 167.872C207.74 176.891 206.654 189.724 205.402 195.013C204.605 202.028 196.997 208.792 193.293 211.297H245.903C252.918 204.95 258.291 186.102 260.1 177.472C261.102 160.766 253.837 157.988 250.079 158.686C243.064 159.021 242.702 166.898 243.398 170.795C245.068 181.818 242.146 188.75 240.475 190.837C241.143 181.484 237.692 174.971 235.882 172.883C230.538 167.204 233.656 158.269 235.882 154.511C240.893 150.503 241.589 144.49 241.311 141.985C238.972 133.968 231.429 136.417 227.949 138.644C215.924 149.668 221.825 169.122 226.279 177.472C230.621 184.483 230.315 190.695 229.619 192.925C224.609 198.938 221.686 185.128 220.851 177.472C216.174 154.086 207.489 149.915 203.732 150.753C195.715 153.425 199.278 163.279 202.061 167.872Z" fill="#666666"/>
<path d="M84.3138 159.104C77.299 172.131 79.4424 188.75 81.391 195.43C82.5183 201.109 86.3145 208.653 88.0717 211.715L32.5383 212.55C8.1537 193.176 7.62481 172.465 10.4084 164.532C14.4169 151.839 13.1921 143.377 12.0786 140.732C7.73615 135.722 2.75321 126.953 0.804551 123.195C-1.86773 113.508 2.75309 111.365 5.39754 111.504C11.7442 111.504 17.228 120.133 19.1765 124.448C25.1891 133.801 25.3006 145.882 24.6047 150.753C21.9324 155.764 22.0995 165.646 22.517 169.96C22.851 184.658 35.4609 194.456 41.7241 197.518C47.0686 201.193 47.2913 198.492 46.7346 196.683C34.3753 179.647 34.9044 159.522 36.7139 151.588C41.3906 134.886 38.6625 123.752 36.7139 120.272C26.6927 103.571 25.3009 90.2092 25.8577 85.6162C26.1917 74.593 33.2343 71.8372 36.7139 71.8372C46.4009 70.5011 47.1526 80.4665 46.3175 85.6162C43.9793 99.9797 47.2918 108.86 49.2403 111.504C59.9295 128.874 58.4261 147.97 56.3383 155.346C52.998 173.05 56.3383 185.549 58.426 189.585C63.7706 197.602 64.8284 192.09 64.6892 188.332C64.0211 168.29 72.205 144.629 76.3804 135.304C78.3847 127.955 84.1746 127.51 86.8191 128.206C96.5061 132.548 89.1851 150.614 84.3138 159.104Z" fill="#666666"/>
<path d="M202.061 167.872C207.74 176.891 206.654 189.724 205.402 195.013C204.605 202.027 196.997 208.791 193.293 211.297H245.903C252.918 204.95 258.291 186.102 260.1 177.471C261.102 160.766 253.837 157.987 250.079 158.686C243.064 159.02 242.702 166.898 243.398 170.795C245.068 181.818 242.146 188.749 240.475 190.837C241.143 181.484 237.692 174.97 235.882 172.883C230.538 167.204 233.656 158.269 235.882 154.511C240.893 150.502 241.589 144.49 241.311 141.984C238.972 133.968 231.429 136.417 227.949 138.644C215.924 149.667 221.825 169.122 226.279 177.471C230.621 184.483 230.315 190.695 229.619 192.925C224.609 198.937 221.686 185.128 220.851 177.471C216.174 154.085 207.489 149.915 203.732 150.753C195.715 153.425 199.278 163.279 202.061 167.872Z" fill="#D0ECF9"/>
<path d="M84.3138 159.104C77.299 172.131 79.4424 188.749 81.391 195.43C82.5183 201.109 86.7622 209.052 88.5194 212.114L32.5383 212.549C8.1537 193.175 7.62481 172.465 10.4084 164.532C14.4169 151.838 13.1921 143.376 12.0786 140.732C7.73615 135.721 2.75321 126.953 0.804551 123.195C-1.86773 113.508 2.75309 111.364 5.39754 111.504C11.7442 111.504 17.228 120.133 19.1765 124.447C25.1891 133.8 25.3006 145.881 24.6047 150.753C21.9325 155.763 22.0995 165.645 22.517 169.96C22.851 184.657 35.4609 194.456 41.7241 197.518C47.0686 201.192 47.2913 198.492 46.7346 196.683C34.3753 179.647 34.9044 159.521 36.7139 151.588C41.3906 134.886 38.6625 123.752 36.7139 120.272C26.6927 103.57 25.3009 90.2088 25.8577 85.6158C26.1917 74.5927 33.2343 71.8369 36.7139 71.8369C46.4009 70.5007 47.1526 80.4661 46.3175 85.6158C43.9793 99.9794 47.2918 108.859 49.2403 111.504C59.9295 128.873 58.4261 147.969 56.3383 155.346C52.998 173.05 56.3383 185.548 58.426 189.584C63.7706 197.601 64.8284 192.09 64.6892 188.332C64.0211 168.29 72.205 144.629 76.3805 135.304C78.3847 127.955 84.1746 127.509 86.8191 128.205C96.5061 132.548 89.1852 150.614 84.3138 159.104Z" fill="#D0ECF9"/>
<path d="M125.875 169.302C97.8753 162.699 78.0387 194.892 71.6203 211.814L222.78 211.527C212.321 186.378 197.201 177.749 190.948 176.578L170.489 176.391C156.114 177.595 134.757 172.167 125.875 169.302Z" fill="#999999"/>
<path d="M446.792 48.4411C467.048 45.8542 473.154 53.6343 473.675 57.8477L471.174 60.1985C467.423 49.8512 453.773 50.3999 447.417 51.9677L446.792 48.4411Z" fill="#666666"/>
<path d="M445.038 73.3002L446.791 76.5145L434.226 93.7557C433.993 90.2492 431.012 86.8401 429.551 85.5739L422.538 87.3271C417.863 88.496 410.85 80.2166 407.928 75.9309L419.324 75.0543L422.538 64.5348L429.551 55.7686L436.856 49.0983C445.038 43.9554 448.837 49.6827 449.713 53.1892C451.116 61.1372 447.765 66.3846 445.915 67.456C446.148 69.3262 445.428 72.1313 445.038 73.3002Z" fill="#FFC595"/>
<path d="M444.162 52.6055C441.045 52.9951 435.454 55.586 438.025 62.8327" stroke="#012038"/>
<path d="M438.025 59.9068C439.681 58.9328 443.227 58.1536 444.162 62.8289" stroke="#012038"/>
<path d="M391.267 84.9441L393.605 76.5858C396.879 69.8991 401.205 70.6421 402.959 71.8494C405.998 72.9638 413.579 81.0436 416.989 84.9441C420.262 87.8417 426.537 86.1515 429.265 84.9441L429.551 88.5444C426.044 92.7793 418.06 92.3738 414.65 91.6308C409.506 102.998 399.256 99.8963 394.775 96.9244C389.864 93.1353 390.39 87.3588 391.267 84.9441Z" fill="#666666"/>
<path d="M480.513 52.9464C468.939 56.8119 466.403 65.3896 466.582 69.1953L539.412 126.906C551.69 115.11 550.484 105.212 548.346 101.738L497.838 60.1854C490.597 52.0185 483.271 51.9566 480.513 52.9464Z" fill="#999999"/>
<path d="M505.233 63.7109L489.161 86.2109L495.882 91.7629L512.538 69.8473L505.233 63.7109Z" fill="#333333"/>
<path d="M649.876 131.207C641.227 126.765 632.051 132.278 628.545 135.59L637.896 152.83C651.22 160.31 676.759 184.973 687.863 196.369C696.045 196.135 704.519 182.635 707.733 175.914C712.408 165.395 705.785 160.232 701.889 158.966C696.512 157.564 664.973 139.876 649.876 131.207Z" fill="#666666"/>
<path d="M655.428 194.031C643.74 182.81 634.389 187.018 631.175 190.525L635.266 205.719C639.473 208.992 657.668 241.564 666.24 257.44C672.785 263.752 689.227 247.213 696.629 238.154C696.162 232.544 668.967 206.401 655.428 194.031Z" fill="#666666"/>
<path d="M556.37 213.315C540.941 209.108 507.669 178.25 492.961 163.348C516.805 146.984 525.688 123.608 527.149 113.965C540.24 123.549 566.305 139.777 577.701 146.692L628.545 135.296C634.857 136.932 637.604 147.276 638.188 152.244C632.811 157.387 601.857 172.893 587.052 180.004L631.467 189.939L635.266 206.01C595.292 212.556 566.013 213.608 556.37 213.315Z" fill="#2A658D"/>
<path d="M514.768 164.617C525.842 170.829 552.493 183.497 570.504 184.471C574.009 184.239 582.294 183 587.404 179.906" stroke="#012038" stroke-width="2"/>
<path d="M374.302 29.9328C369.194 38.3209 376.43 48.5414 380.686 52.6032L432.181 50.5578L448.594 45.0058C459.042 31.1769 452.948 26.06 448.594 24.5486C446.969 -7.41677 407.675 7.45127 388.231 18.8809C379.641 21.3747 375.366 27.2879 374.302 29.9328Z" fill="#333333"/>
<path d="M429.259 85.3285C431.233 84.6792 435.867 82.6013 438.609 79.4844" stroke="#012038"/>
<path d="M373.877 159.161C377.15 163.603 386.539 158.674 390.825 155.655C391.293 148.408 386.929 143.674 384.689 142.213C375.338 141.278 367.156 143.966 364.234 145.427C358.156 147.765 357.611 151.855 358.098 153.609C358.799 156.18 362.481 154.68 364.234 153.609C364.468 157.349 367.254 156.921 368.617 156.239C370.254 155.071 374.754 153.61 376.799 153.025C380.305 152.324 380.987 153.707 380.89 154.486C380.656 155.889 379.234 156.239 378.552 156.239C373.409 156.005 373.293 158.09 373.877 159.161Z" fill="#FFC595"/>
<path d="M372.864 149.613C370.916 149.905 366.494 151.133 364.39 153.704" stroke="#012038"/>
<path d="M447.39 190.523C461.182 187.017 467.358 174.062 468.721 168.023L458.202 158.965L445.344 164.809C439.968 167.147 439.208 169.484 439.5 170.361C440.202 173.4 444.078 171.238 445.929 169.777C443.592 171.647 437.358 178.348 434.533 181.465C431.494 185.906 435.02 185.264 437.163 184.387C436.462 188.595 439.793 187.504 441.546 186.432C441.78 190.874 444.566 189.257 445.929 187.893C445.228 189.997 446.611 190.523 447.39 190.523Z" fill="#FFC595"/>
<path d="M527.44 113.962C521.596 108.586 500.363 90.0014 490.622 81.5273L483.609 157.501L492.96 163.345C515.869 148.151 525.687 124.092 527.44 113.962Z" fill="#012038"/>
<path d="M402.668 80.5703C407.78 80.5703 411.811 84.1989 411.812 88.5439C411.812 92.8891 407.78 96.5186 402.668 96.5186C397.556 96.5184 393.525 92.8891 393.525 88.5439C393.526 84.199 397.556 80.5704 402.668 80.5703Z" stroke="#333333"/>
<path d="M402.669 83.4922C405.857 83.4924 408.305 85.6929 408.305 88.252C408.305 90.811 405.857 93.0116 402.669 93.0117C399.481 93.0117 397.032 90.8111 397.032 88.252C397.032 85.6928 399.481 83.4922 402.669 83.4922Z" stroke="#333333"/>
<path d="M386.597 40.9141C381.454 45.1218 380.363 51.6283 380.461 54.3556L381.045 56.4011L391.565 52.6024L416.695 53.1868L422.539 60.1998L431.013 50.2647C429.844 42.7842 423.902 42.2777 421.078 42.9595C406.584 48.5699 392.052 43.9335 386.597 40.9141Z" fill="#FFC595"/>
<path d="M454.097 71.8859C469.291 63.9383 485.166 75.197 491.206 81.8205H491.207C506.562 104.713 496.043 143.875 485.659 155.987L485.655 156.041L473.383 170.359C470.11 170.826 460.526 162.566 456.143 158.378L462.279 145.522C459.24 144.587 452.636 137.534 449.714 134.125C434.285 150.722 403.935 155.652 390.688 156.041C392.325 148.093 386.5 143.184 383.383 141.723C412.603 131.905 423.805 116.398 425.753 109.872C433.701 85.3273 447.96 74.3209 454.097 71.8859Z" fill="#2A658D"/>
<path d="M449.129 51.4332C445.915 45.8813 441.532 46.7678 436.857 50.2742L432.474 53.7807L428.967 57.011L422.831 64.6083L421.954 59.9438C435.103 42.6768 445.623 41.7904 451.467 45.0063L449.129 51.4332Z" fill="#012038"/>
<path d="M392.441 51.1435C381.921 50.9098 379.291 54.5526 379.291 56.4033C377.421 62.2469 381.629 70.5269 383.967 73.9364C388.642 81.1832 393.122 77.7351 394.778 75.1052C398.752 69.0273 403.837 71.7936 405.882 73.9364C408.921 77.9104 413.967 78.5143 416.109 78.3195C423.59 78.5533 424.096 68.8715 423.415 64.0014C422.246 53.4819 417.083 51.0464 414.648 51.1435H392.441Z" fill="#76C6E8" stroke="#2A658D"/>
<path d="M390.688 54.6484C383.909 54.6484 382.798 57.3757 383.091 58.7393C383.091 62.7134 385.039 66.8237 386.013 68.3822C389.052 75.3952 392.344 74.4211 393.61 73.0575C394.779 69.0835 398.188 67.8952 399.746 67.7978C403.72 67.0965 407.051 70.4276 408.22 72.1809C417.571 79.1939 420.883 71.0121 421.37 66.0445C421.136 58.7978 417.181 55.4277 415.233 54.6484H390.688Z" fill="#FFC595"/>
<ellipse cx="390.81" cy="63.8902" rx="3.25254" ry="2.39479" transform="rotate(77.461 390.81 63.8902)" fill="#333333"/>
<ellipse cx="408.342" cy="63.3121" rx="3.25254" ry="2.39479" transform="rotate(77.461 408.342 63.3121)" fill="#333333"/>
<path d="M437.163 184.387C438.916 182.634 442.89 178.718 444.76 177.082" stroke="#012038"/>
<path d="M441.547 186.431C443.495 184.483 447.508 180.353 447.975 179.418" stroke="#012038"/>
<path d="M433.643 104.617C436.857 111.922 444.513 127.935 449.422 133.546" stroke="#012038" stroke-width="2"/>
<path d="M459.064 98.7734C463.935 106.76 472.974 124.721 470.168 132.669C469.292 135.397 466.545 141.786 462.571 145.527" stroke="#012038" stroke-width="2"/>
<path d="M445.93 187.893C447.586 186.53 451.131 183.335 452.066 181.465" stroke="#012038"/>
<path d="M667.993 254.811C673.35 253.252 685.642 247.33 691.954 236.109" stroke="#012038"/>
<path d="M689.032 192.279C695.265 186.922 707.09 173.87 704.519 164.52" stroke="#012038"/>
<path d="M419.616 26.0129C423.415 24.4545 430.837 22.7402 430.136 28.3506C432.181 27.5715 436.097 26.9483 435.395 30.6886" stroke="#D0ECF9"/>
<path d="M382.99 36.1806C384.605 32.4057 388.694 25.9786 392.129 30.47C393.04 28.4801 395.395 25.2899 397.518 28.4481" stroke="#D0ECF9"/>
<path d="M408.425 149.974C368.776 161.598 377.663 203.982 378.688 210.476C366.233 210.818 355.047 210.818 343.861 210.818C359.08 199.315 352.177 162.608 351.369 158.306L351.345 158.18C345.876 138.495 326.507 133.116 317.506 132.887C303.561 132.34 298.479 127.189 297.682 124.682C293.853 113.197 304.746 113.973 310.67 115.797C326.803 118.531 318.987 107.137 313.063 101.098C304.039 95.081 306.34 88.5655 308.619 86.0599C317.369 78.6769 333.913 101.669 341.09 114.088C346.833 126.393 352.142 124.683 354.079 122.29C359.548 112.718 354.99 101.668 352.028 97.3394C345.739 89.6841 338.014 78.6537 334.938 74.0954C327.828 64.2503 331.292 58.145 333.912 56.323C339.655 51.401 346.103 59.9689 348.61 64.8681C354.899 73.6183 359.434 61.2222 360.915 53.9304C362.282 42.4458 366.725 38.6627 368.776 38.2067C376.159 35.7458 379.144 40.3715 379.714 42.992C381.355 48.7343 375.384 66.1202 372.194 74.0954C369.46 85.306 375.384 87.6538 378.688 87.4264C385.798 87.6999 389.854 78.653 390.993 74.0954C392.907 67.2593 397.943 67.829 400.222 68.9683C409.519 75.2575 396.348 93.0085 388.601 101.098C379.303 111.762 375.156 119.669 374.245 122.29C370.144 134.595 372.536 141.317 374.245 143.14C387.097 150.523 391.449 133.911 392.019 124.682C391.472 111.83 397.26 110.213 400.222 111.01C404.05 111.83 403.64 120.467 402.957 124.682C402.683 132.065 407.628 129.809 410.134 127.758C417.244 122.563 419.477 111.694 419.705 106.909C418.064 94.0567 421.756 90.1595 423.807 89.8174C436.112 87.0829 436.909 97.1092 435.77 102.464C433.582 108.206 433.263 114.883 433.377 117.503C435.838 127.347 441.694 119.781 444.315 114.768C448.143 107.111 453.202 107.248 455.253 108.274C464.823 120.852 448.758 132.2 439.53 136.301C428.592 140.676 414.236 147.239 408.425 149.974Z" fill="#EC6C26"/>
<path d="M340.122 167.607C334.38 178.271 336.134 191.875 337.729 197.344C338.652 201.992 342.126 208.495 343.565 211.002L297.738 211.358C277.777 195.498 277.344 178.545 279.623 172.051C282.904 161.66 281.902 154.732 280.99 152.568C277.435 148.466 273.356 141.288 271.761 138.212C269.574 130.282 273.356 128.528 275.521 128.642C280.716 128.642 285.205 135.705 286.8 139.237C291.722 146.894 291.814 156.783 291.244 160.771C289.057 164.873 289.193 172.962 289.535 176.494C289.808 188.525 300.131 196.546 305.258 199.053C309.633 202.061 309.815 199.851 309.36 198.369C299.242 184.424 299.675 167.949 301.157 161.455C304.985 147.782 302.752 138.668 301.157 135.819C292.953 122.147 291.814 111.21 292.27 107.45C292.543 98.4261 298.308 96.1702 301.157 96.1702C309.086 95.0764 309.702 103.234 309.018 107.45C307.104 119.208 309.816 126.477 311.411 128.642C320.161 142.861 318.93 158.492 317.221 164.531C314.487 179.023 317.221 189.255 318.93 192.559C323.305 199.121 324.171 194.61 324.057 191.533C323.51 175.127 330.21 155.758 333.628 148.124C335.268 142.109 340.008 141.744 342.173 142.314C350.103 145.868 344.11 160.657 340.122 167.607Z" fill="#F7AA2A"/>
<path d="M305.305 185.594C268.801 181.337 243.17 201.113 234.918 211.533L431.763 212.303C417.985 196.691 398.241 191.262 390.091 190.499L363.448 190.255C344.735 190.91 316.889 187.42 305.305 185.594Z" fill="#76C6E8"/>
<ellipse cx="859.5" cy="100.578" rx="20.5" ry="21" fill="#76C6E8"/>
<circle cx="960" cy="112.578" r="15" fill="#76C6E8"/>
<circle cx="772" cy="140.578" r="9" fill="#76C6E8"/>
<ellipse cx="899.5" cy="195.578" rx="19.5" ry="19" fill="#76C6E8"/>
<ellipse cx="1004.5" cy="210.578" rx="9.5" ry="10" fill="#76C6E8"/>
<ellipse cx="465" cy="222.078" rx="9" ry="9.5" fill="#76C6E8"/>
<circle cx="578" cy="286.578" r="13" fill="#76C6E8"/>
</svg>
