<svg width="544" height="482" viewBox="0 0 544 482" fill="none" xmlns="http://www.w3.org/2000/svg">
<path d="M260.89 264.928C293.312 280.352 372.827 283.197 408.532 282.691C430.655 268.584 306.927 179.543 286.072 175.608C265.218 171.674 220.362 245.647 260.89 264.928Z" fill="#45623F"/>
<path d="M275.109 269.322C299.552 279.797 286.4 250.295 286.4 225.572C281.366 194.921 249.96 123.622 159.132 56.0727C153.52 51.5001 139.553 46.3456 128.579 62.3081C114.861 82.2612 134.19 101.591 142.296 129.65C150.402 157.709 174.72 226.921 184.697 235.651C194.673 244.38 244.556 256.227 275.109 269.322Z" fill="#481F1A"/>
<path d="M29.0369 0.151186C69.388 -2.85369 110.598 39.6795 126.158 61.3217C132.788 66.7985 142.963 119.388 142.963 127.725C142.963 134.395 162.191 167.759 171.805 183.607C173.307 188.79 176.267 201.679 176.087 211.774C167.975 207.943 115.698 158.821 112.318 154.089C108.938 149.357 108.262 143.273 104.431 140.118C100.601 136.964 19.9324 77.2512 13.3979 72.0686C6.86327 66.886 4.56582 56.0839 5.15499 53.7786C2.98978 53.2373 2.16785 50.2782 0.822476 45.4344L0.792385 45.3261C-0.298269 41.3997 4.70056 25.149 7.3363 17.5144C8.42695 12.3338 14.294 1.60831 29.0369 0.151186Z" fill="#D3CD93"/>
<path d="M5.76074 54.1351C6.64769 54.0084 8.95375 54.2871 11.0824 56.4158C13.7432 59.0766 37.3106 72.1907 43.0123 73.141" stroke="#124427" stroke-width="0.5"/>
<path d="M506.646 305.526C490.16 307.231 472.774 289.498 466.142 280.418C463.773 267.706 465.81 245.077 492.908 256.257C526.78 270.233 546.914 307.421 542.65 312.395C538.386 317.369 516.121 313.342 506.646 305.526Z" fill="#D3CD93"/>
<path d="M184.995 30.8335C153.244 37.0944 133.381 53.0074 127.418 60.1812C130.826 63.4415 136.42 58.8228 138.791 56.1059C139.659 59.2641 143.528 67.8071 152.055 76.7133C149.781 103.811 165.794 116.902 174.084 120.06C184.822 127.008 210.846 142.61 229.037 149.432C235.859 170.465 272.91 205.825 290.583 220.876C298.894 230.398 316.994 250.369 322.907 254.077C328.921 259.841 356.61 272.369 364.753 271.492C370.767 278.609 394.823 281.39 406.099 281.891C416.247 283.562 437.396 286.051 440.804 282.643C445.69 283.896 460.85 282.768 464.232 279.26C468.743 280.889 478.515 273.748 482.9 267.608C488.538 264.351 493.425 262.346 488.163 256.332C494.577 255.531 492.947 246.226 491.33 241.674C492.237 240.17 493.507 236.537 491.33 234.032C480.15 211.392 388.753 128.38 349.063 97.0756C309.374 65.7714 224.685 23.0074 184.995 30.8335Z" fill="#752811"/>
<path d="M47.0198 59.7075C44.1582 60.4706 30.4067 52.3151 23.8887 48.142C22.1002 44.6843 30.8042 36.4573 36.4081 37.888C40.8912 39.0327 43.7608 42.8163 44.6351 44.5651C46.6223 49.2946 49.8813 58.9444 47.0198 59.7075Z" fill="#593F40"/>
<path d="M15.1836 15.1126C18.9991 13.2049 29.0146 16.5434 33.5454 18.4511C34.539 22.505 35.93 31.2804 33.5454 33.9512C29.3723 32.7589 20.3106 44.9206 18.7606 47.3052C17.2106 49.6899 5.64506 39.6744 4.81043 36.8128C3.97581 33.9512 10.4143 17.4972 15.1836 15.1126Z" fill="#593F40"/>
<path d="M31.9955 13.922C30.1831 15.4482 22.0992 11.3784 18.2837 9.1528C16.7337 5.21823 35.0955 2.47576 36.0493 3.66808C37.0032 4.8604 37.3609 6.29119 37.9571 8.07968C38.5532 9.86816 34.2609 12.0143 31.9955 13.922Z" fill="#593F40"/>
<path d="M37.9495 29.8597C37.7974 21.8012 41.0538 15.6053 42.701 13.5146C50.1133 -2.83051 82.6134 21.117 81.473 26.2486C80.3327 31.3802 75.7713 39.9328 67.7888 42.4036C59.8063 44.8744 38.1396 39.9328 37.9495 29.8597Z" fill="#593F40"/>
<path d="M95.2603 61.4662C94.9624 63.2534 88.5997 62.2108 85.4556 61.4662C84.562 58.4876 87.4 51.62 88.9307 48.5586C90.42 48.5586 93.771 49.1543 95.2603 51.5373C97.122 54.5159 95.6326 59.2322 95.2603 61.4662Z" fill="#593F40"/>
<path d="M85.7021 72.1378C82.3264 73.925 81.0687 70.7312 80.8618 68.9109C81.441 67.1734 82.8724 63.7231 83.9646 63.8224C85.0567 63.9217 90.2942 65.1049 92.7764 65.684C91.8249 67.0906 89.0779 70.3506 85.7021 72.1378Z" fill="#593F40"/>
<path d="M69.8165 77.476C67.6322 77.9724 67.6653 74.125 67.9549 72.1393C71.3886 71.3532 78.4546 70.2528 79.2489 72.1393C80.0432 74.0257 77.8423 75.9867 76.6426 76.7314C75.2774 76.7727 72.0009 76.9795 69.8165 77.476Z" fill="#593F40"/>
<path d="M52.7428 59.2218C52.3613 57.9818 49.4838 50.1204 48.0928 46.3448C47.6251 45.0737 67.0507 49.2063 66.9314 50.7563C66.8361 51.9964 61.8045 57.6321 59.3006 60.2949C57.2736 60.4539 53.1244 60.4618 52.7428 59.2218Z" fill="#593F40"/>
<path d="M94.4226 46.1121C93.234 47.3008 89.5406 45.6169 87.8426 44.6263C87.8426 43.8296 83.4896 37.5373 83.1504 35.4174C82.8791 33.7216 85.242 30.9234 86.4574 29.7362C87.5315 29.3405 90.307 28.8714 92.8169 30.1602C95.3268 31.4491 96.4631 35.6153 96.7174 37.5373C96.4478 39.9003 95.6112 44.9235 94.4226 46.1121Z" fill="#593F40"/>
<path d="M72.2135 45.0012C72.4848 42.7626 78.3751 39.6592 81.2864 38.3873C81.7112 38.1973 84.5725 44.1306 85.95 47.121C85.2999 48.9016 83.6266 53.3278 82.1343 56.7874C80.6419 60.247 77.4989 56.8722 76.114 54.7524C74.7007 52.4347 71.9421 47.2397 72.2135 45.0012Z" fill="#593F40"/>
<path d="M63.3619 60.4706C62.8655 58.3856 68.7814 55.0511 71.8014 53.6445C74.5319 55.0097 78.5034 64.4422 77.1382 66.1797C75.773 67.9173 72.9184 66.5521 69.071 67.0485C65.2236 67.5449 63.9825 63.077 63.3619 60.4706Z" fill="#593F40"/>
<path d="M106.305 56.0912C104.914 57.2827 101.837 56.5877 100.471 56.0912C99.3957 54.6846 97.3189 51.1515 97.6168 48.2722C97.9891 44.6729 99.3544 41.4461 100.471 40.0809C101.588 38.7157 107.546 45.5417 108.29 48.2722C109.035 51.0026 108.042 54.6019 106.305 56.0912Z" fill="#593F40"/>
<path d="M61.7371 22.9759C56.3032 21.7873 52.5392 26.4428 51.3364 28.9192C53.0345 31.6785 56.8551 35.7115 61.7371 36.136C66.619 36.5605 67.4681 33.1644 68.3171 30.8295C69.1661 28.4947 68.5294 24.4618 61.7371 22.9759Z" fill="#00040E"/>
<path d="M139.917 55.2642C144.183 49.4375 163.203 39.1574 205.156 44.6512C247.108 50.145 289.644 78.5713 305.668 92.0978C319.818 127.787 347.808 207.281 346.559 239.744" stroke="#FFFBDB"/>
<path d="M214.832 45.9004C212.127 42.2587 203.719 34.0388 191.733 30.293" stroke="#FFFBDB"/>
<path d="M153.027 76.4914C157.397 74.6185 168.135 71.1224 176.126 72.1213C181.62 74.1191 195.479 90.226 201.722 98.0297C215.561 109.163 244.299 133.427 248.544 141.418C253.851 151.407 276.638 171.385 277.574 175.755C278.323 179.251 294.951 195.524 303.17 203.224C313.367 211.756 333.886 229.569 334.385 232.566C338.044 234.121 350.314 242.62 355.992 246.675C367.159 249.795 389.981 256.483 391.928 258.28C395.522 257.98 415.636 262.023 425.244 264.082C438.782 263.77 465.859 261.798 465.859 256.408C471.474 256.408 478.212 236.007 478.212 231.327C478.212 227.584 434.041 176.362 411.955 151.219C402.846 144.419 382.457 130.294 373.773 128.198C366.099 119.588 315.75 87.2079 306.766 91.6999" stroke="#FFFBDB"/>
<path d="M175.02 119.916L201.208 98.8633" stroke="#FFFBDB"/>
<path d="M229.963 149.445C235.783 146.193 247.525 139.945 247.936 140.972" stroke="#FFFBDB"/>
<path d="M276.949 175.375L258.72 190.266" stroke="#FFFBDB"/>
<path d="M303.901 204.594L290.324 219.374" stroke="#FFFBDB"/>
<path d="M333.979 232.094C330.828 238.854 324.011 252.58 321.948 253.405" stroke="#FFFBDB"/>
<path d="M356.835 247.387C359.929 253.001 365.91 265.639 365.085 271.276" stroke="#FFFBDB"/>
<path d="M392.239 258.559L406.332 281.244" stroke="#FFFBDB"/>
<path d="M440.362 282.965L425.754 264.404C412.086 223.461 382.85 139.04 375.249 128.906" stroke="#FFFBDB"/>
<path d="M464.375 280.012L448.088 262.82" stroke="#FFFBDB"/>
<path d="M413.958 152.906L466.92 256.231L482.191 266.953" stroke="#FFFBDB"/>
<path d="M490.638 240.312L478.291 231.539" stroke="#FFFBDB"/>
<path d="M489.012 255.581L475.366 247.133" stroke="#FFFBDB"/>
<path d="M44.5858 110.453C53.5757 108.43 61.4418 109.61 64.2512 110.453C76.6837 119.356 101.378 137.538 100.694 139.042C99.8388 140.923 85.8178 138.529 72.8228 139.042C59.8278 139.555 54.3914 147.14 53.8549 148.673C53.3184 150.206 56.6908 154.728 56.9974 155.801C57.304 156.874 53.2417 161.549 48.9398 162.206C50.1991 166.487 49.6954 176.058 48.9398 180.088C48.1842 184.118 38.3617 182.103 36.5987 182.48C34.8356 182.858 35.5912 205.274 30.3022 215.6C29.9244 227.06 23.2501 250.483 20.4796 251.49C17.7091 252.498 8.90717 217.208 6.09783 209.623C-0.0827174 202.88 -0.925491 174.506 0.760113 163.268C2.1086 154.279 9.00083 140.606 12.2784 134.894C19.3017 127.59 35.5959 112.475 44.5858 110.453Z" fill="#45623F"/>
<path d="M107.995 159.743C105.354 154.65 106.894 148.662 107.995 146.305C108.938 148.191 111.484 152.906 114.124 156.678C117.425 161.393 170.704 208.072 177.305 212.315C182.586 215.71 183.592 228.818 183.435 234.947C171.726 225.674 146.846 205.62 141 199.585C133.691 192.041 111.295 166.108 107.995 159.743Z" fill="#667C53"/>
<path d="M176.587 195.289C176.587 182.078 187.334 176.154 192.707 174.844C209.897 176.299 215.457 183.715 224.809 192.677C234.16 201.639 286.179 282.492 286.374 297.298C292.452 304.468 295.53 318.21 296.31 324.184C300.986 330.354 309.831 345.265 307.804 355.551C313.26 361.786 314.753 373.086 314.818 377.956C317.351 379.775 322.572 386.802 323.196 400.361C334.496 415.948 351.056 451.211 346.185 462.121C350.471 474.201 344.042 479.266 340.73 480.825C337.418 482.383 321.442 477.513 314.818 472.252C308.194 474.59 283.062 461.732 277.606 451.211C266.501 448.094 233.771 381.658 230.069 379.32C227.107 377.45 217.665 353.343 213.314 341.524L196.754 293.402L184.45 250.333C181.829 237.489 176.587 208.499 176.587 195.289Z" fill="#D3CD93"/>
<path d="M201.188 274.446C201.036 268.998 209.826 268.266 214.24 268.582C216.951 271.986 222.45 279.44 222.752 282.012C223.131 285.228 212.916 285.795 205.728 287.498C198.539 289.2 201.377 281.256 201.188 274.446Z" fill="#593F40"/>
<path d="M226.915 294.686C223.888 293.475 212.538 297.713 207.242 299.983C206.036 300.489 209.512 314.926 211.025 317.764C212.538 320.601 233.535 313.791 234.859 311.522C236.184 309.252 230.698 296.199 226.915 294.686Z" fill="#593F40"/>
<path d="M238.264 328.168C235.54 324.838 224.518 328.798 219.348 331.194C215.564 337.626 230.508 370.162 233.724 373C236.94 375.837 247.722 362.596 248.857 358.434C249.992 354.272 241.669 332.329 238.264 328.168Z" fill="#593F40"/>
<path d="M246.117 389.096C245.057 385.464 251.981 373.08 255.575 367.342C256.862 363.974 268.438 384.934 270.519 387.582C272.6 390.231 262.574 405.931 259.358 408.39C256.142 410.85 247.441 393.636 246.117 389.096Z" fill="#593F40"/>
<path d="M265.247 421.53C264.724 416.829 273.155 406.366 277.436 401.722C284.353 401.722 294.632 424.142 297.679 431.107C300.726 438.073 290.714 445.909 286.796 451.133C282.878 456.357 265.9 427.407 265.247 421.53Z" fill="#593F40"/>
<path d="M301.379 461.361C296.33 459.098 302.178 446.923 305.733 441.118C310.086 437.853 323.799 449.608 328.588 452.655C333.376 455.702 330.982 469.851 328.588 472.898C326.193 475.945 307.692 464.191 301.379 461.361Z" fill="#593F40"/>
<path d="M338.163 454.615C337.467 456.705 324.233 444.312 317.703 437.855C313.053 433.355 330.328 422.401 335.987 430.237C341.646 438.073 339.034 452.003 338.163 454.615Z" fill="#593F40"/>
<path d="M303.119 414.784C297.721 409.908 298.693 405.061 299.854 403.248C299.854 397.588 315.526 397.806 320.315 401.942C325.104 406.077 329.675 415.872 329.892 418.92C330.11 421.967 319.88 425.014 316.832 427.409C313.785 429.803 309.867 420.879 303.119 414.784Z" fill="#593F40"/>
<path d="M299.419 394.104C292.628 393.755 293.397 381.769 294.631 375.82C295.181 372.376 306.385 375.82 309.867 375.82C313.35 375.82 317.486 390.621 317.268 394.104C317.05 397.586 307.908 394.539 299.419 394.104Z" fill="#593F40"/>
<path d="M304.209 358.625C303.861 361.933 292.891 359.132 287.449 357.319C282.922 352.269 279.468 337.221 278.307 330.328C281.354 327.716 288.581 323.276 293.108 326.41C298.768 330.328 304.645 354.489 304.209 358.625Z" fill="#593F40"/>
<path d="M290.496 319.661C289.277 322.098 280.265 321.692 275.912 321.184C273.3 319.008 269.817 308.56 269.164 304.424C268.511 300.288 275.912 294.629 283.313 298.329C290.713 302.03 292.019 316.613 290.496 319.661Z" fill="#593F40"/>
<path d="M266.164 293.54C262.359 292.526 262.464 283.182 262.993 278.637C265.212 277.369 270.54 275.212 274.091 276.734C278.53 278.637 278.847 285.93 281.067 291.004C283.287 296.077 270.92 294.809 266.164 293.54Z" fill="#593F40"/>
<path d="M273.775 375.033C270.731 370.974 272.507 368.48 273.775 367.74C278.531 362.983 286.776 370.594 288.361 375.033C289.947 379.472 284.873 380.741 282.654 384.863C280.434 388.985 277.58 380.107 273.775 375.033Z" fill="#593F40"/>
<path d="M267.116 362.351C260.52 361.336 261.197 353.049 262.36 349.033C266.672 343.452 274.515 351.358 277.897 356.009C277.052 358.546 273.712 363.365 267.116 362.351Z" fill="#593F40"/>
<path d="M254.747 341.104C249.928 337.552 254.642 332.225 257.601 330.006C267.241 327.469 270.496 336.347 270.919 341.104C267.537 342.584 259.567 344.655 254.747 341.104Z" fill="#593F40"/>
<path d="M256.334 313.202C252.275 307.875 258.025 309.291 261.407 310.665C263.235 311.323 269.514 316.736 269.514 319.043C269.514 320.888 267.069 321.837 265.847 322.08C264.367 321.34 260.393 318.529 256.334 313.202Z" fill="#593F40"/>
<path d="M245.104 321.575C242.796 319.151 245.489 314.986 247.124 313.207C252.318 314.65 256.069 321.575 254.627 324.172C253.184 326.769 247.99 324.605 245.104 321.575Z" fill="#593F40"/>
<path d="M283.746 398.348C281.236 395.121 284.792 391.626 286.883 390.281C297.639 397.452 294.502 404.174 291.813 405.519C289.124 406.863 286.883 402.382 283.746 398.348Z" fill="#593F40"/>
<path d="M491.083 296.987C486.263 293.435 490.978 288.108 493.937 285.888C503.577 283.352 506.832 292.23 507.255 296.987C503.873 298.466 495.903 300.538 491.083 296.987Z" fill="#593F40"/>
<path d="M524.363 295.995C520.304 290.668 526.054 292.084 529.437 293.458C531.265 294.116 537.544 299.529 537.544 301.836C537.544 303.681 535.099 304.63 533.876 304.873C532.396 304.133 528.422 301.322 524.363 295.995Z" fill="#593F40"/>
<path d="M513.134 304.368C510.825 301.944 513.518 297.779 515.153 296C520.348 297.443 524.099 304.368 522.656 306.965C521.213 309.562 516.019 307.398 513.134 304.368Z" fill="#593F40"/>
<path d="M30.4614 131.44C14.3329 138.832 3.43484 170.685 2.73482 186.506C-1.27695 158.745 12.2082 139.536 15.6717 135.273C18.4424 131.863 32.8423 121.806 39.6959 117.204C45.016 114.404 57.3364 109.728 64.0566 113.424C70.7767 117.12 85.0028 128.964 79.597 128.964C68.9567 128.404 46.5898 124.048 30.4614 131.44Z" fill="#D3CD93"/>
</svg>
