<svg width="618" height="528" viewBox="0 0 618 528" fill="none" xmlns="http://www.w3.org/2000/svg">
<path d="M248.422 226.413C234.206 215.515 204.02 224.375 190.704 230.167C174.444 219.936 144.613 212.245 131.73 209.678C125.626 204.527 113.098 197.898 111.819 212.594C106.39 250.994 166.802 271.492 173.361 288.423C185.559 308.342 147.498 367.182 203.124 402.131C258.751 437.081 327.883 419.196 345.918 412.34C363.954 405.484 392.34 375.988 398.983 369.674C405.626 363.359 441.177 333.987 449.634 314.213C462.162 306.419 478.169 252.591 484.606 226.652C493.685 205.299 511.958 161.174 512.418 155.494C522.104 157.247 526.524 140.78 527.52 138.871C528.516 136.962 538.207 124.508 526.17 114.943C529.927 99.4619 518.657 89.898 506.513 89.1875C494.368 88.477 453.004 120.051 448.038 124.63C445.382 123.83 444.121 124.775 443.822 125.347C440.467 130.825 433.17 141.538 430.823 140.56C427.889 139.338 422.176 148.87 419.847 152.126C417.517 155.382 388.817 171.936 382.094 186.141C385.018 197.841 349.969 229.914 327.163 250.718C304.356 271.522 246.997 288.13 239.121 291.662C234.562 287.615 212.884 280.899 208.786 283.263C205.507 285.155 209.517 290.26 211.932 292.576C207.683 293.745 199.406 294.5 200.285 288.167C201.383 280.25 238.487 269.167 253.265 257.608C265.087 248.361 266.81 235.026 266.194 229.515C266.552 224.992 263.5 218.04 248.422 226.413Z" fill="#E1E6E2"/>
<path d="M486.01 142.56C507.994 127.595 522.785 135.702 526.712 140.861C549.052 108.294 517.127 85.8931 501.822 89.391C486.517 92.8889 454.028 119.139 451.218 121.288C448.408 123.437 447.513 120.762 442.35 125.875C437.186 130.989 433.094 140.181 428.559 141.942C424.025 143.704 423.174 148.892 417.69 154.19C412.206 159.488 391.541 165.856 382.445 185.621C373.349 205.385 332.979 244.334 315.604 258.82C298.229 273.305 246.298 287.945 239.24 291.599C234.752 288.633 219.76 282.143 210.915 282.94C203.839 283.577 208.928 289.687 212.357 292.663C209.46 293.5 203.058 294.165 200.618 290.129C197.569 285.083 206.082 280.588 240.466 264.777C267.974 252.128 269.345 234.35 266.592 227.042C266.54 223.782 262.898 218.863 248.752 225.268C215.152 211.38 195.21 233.85 188.237 228.733C176.97 220.608 138.707 209.411 131.986 208.534C125.266 207.658 121.543 199.935 115.75 205.104C97.5004 230.253 139.475 263.56 162.743 277.07C166.01 278.72 173.198 284.42 175.813 294.025C179.082 306.032 165.405 352.672 178.622 376.854C191.839 401.036 216.452 409.989 237.401 415.611C258.351 421.234 287.316 375.397 284.68 360.925C282.044 346.452 295.613 317.493 312.015 306.319C328.417 295.145 352.861 299.895 361.993 296.912C371.124 293.929 409.846 263.027 409.09 242.901C408.334 222.775 458.531 161.265 486.01 142.56Z" fill="#4F7892"/>
<path d="M472.011 313.899C465.323 316.622 457.054 315.039 451.807 313.36C446.807 318.597 436.069 330.908 433.12 338.256C437.897 343.201 489.99 335.613 508.835 307.097C527.68 278.581 507.685 257.224 500.459 264.764C494.38 271.107 483.358 309.279 472.011 313.899Z" fill="#D5DBD7"/>
<path d="M477.475 316.857C471.892 321.84 456.755 319.118 449.885 317.134C447.13 318.723 439.993 325.262 433.478 338.71C468.632 342 501.31 318.086 505.448 311.514C509.586 304.943 480.78 320.677 477.475 316.857Z" fill="#1A3E70"/>
<path d="M326.499 315.897C317.78 310.05 305.306 317.905 300.158 322.564C296.128 329.958 242.568 352.556 201.304 378.892C168.292 399.96 143.835 458.765 140.193 471.886C137.28 482.38 136.603 525.797 143.119 508.145C144.322 469.989 186.021 417.582 195.522 406.421C208.434 391.253 266.614 357.133 280.671 352.699C294.729 348.265 310.154 362.751 325.132 351.48C333.488 345.192 337.397 323.206 326.499 315.897Z" fill="#2A4362"/>
<path d="M285.772 332.734C298.194 327.769 313.271 331.078 319.257 333.353C325.269 339.504 297.455 340.914 291.398 339.803C285.34 338.693 249.872 358.202 240.765 365.893C231.658 373.583 207.286 384.391 197.781 390.686C188.276 396.981 174.762 426.849 157.932 442.515C141.102 458.182 141.318 526.175 138.635 510.253C135.952 494.331 137.192 484.475 144.396 459.776C151.6 435.077 180.445 391.853 198.119 379.544C215.793 367.236 270.245 338.941 285.772 332.734Z" fill="#E8EEEA"/>
<path d="M359.207 249.665C355.15 253.966 355.873 257.581 356.742 258.85C356.957 259.224 362.779 259.045 366.606 255.408C370.433 251.77 373.311 241.529 371.625 242.502C369.939 243.475 364.278 244.288 359.207 249.665Z" fill="#373B46"/>
<path d="M444.136 214.524C436.753 235.751 418.3 282.233 403.551 298.346C385.115 318.486 383.963 327.123 377.396 332.751C370.829 338.379 345.692 371.891 304.761 378.02" stroke="#6A7577" stroke-width="0.5"/>
<path d="M474.901 171.629C467.952 196.798 451.964 250.424 443.608 263.585C433.164 280.036 430.019 309.142 420.593 316.726C411.168 324.309 381.447 356.785 364.224 367.332C347.001 377.879 300.634 408.61 283.872 410.918" stroke="#6A7577" stroke-width="0.5"/>
<path d="M491.098 159.835C484.134 186.75 468.723 242.476 462.797 250.065C460.539 262.101 439.489 312.268 429.514 322.622C419.539 332.975 405.149 343.115 393.023 359.309C380.897 375.503 300.606 426.108 274.447 418.503" stroke="#6A7577" stroke-width="0.5"/>
</svg>
