<svg width="46" height="50" viewBox="0 0 46 50" fill="none" xmlns="http://www.w3.org/2000/svg">
<path d="M0.602539 43.2059V6.7863C0.602539 3.03264 4.04633 -0.00384652 8.28535 -0.00390625H24.7364C25.9914 -0.00388993 27.1957 0.436499 28.0846 1.22145L44.0305 15.3064C44.9194 16.0917 45.4197 17.1574 45.4197 18.2694V43.2059C45.4197 46.9595 41.9759 49.996 37.7369 49.9961H8.28535C4.17869 49.996 0.81801 47.1463 0.612168 43.5554L0.602539 43.2059ZM31.8467 33.8146L32.0297 33.8224C32.9337 33.9036 33.6394 34.58 33.6394 35.4019C33.6393 36.2237 32.9336 36.8994 32.0297 36.9807L31.8467 36.9892H14.1755C13.1856 36.9891 12.3829 36.2784 12.3828 35.4019C12.3828 34.5253 13.1855 33.8147 14.1755 33.8146H31.8467ZM31.8467 23.4088L32.0297 23.4173C32.9337 23.4986 33.6394 24.1742 33.6394 24.9961C33.6394 25.818 32.9337 26.4936 32.0297 26.5749L31.8467 26.5834H14.1755C13.1855 26.5833 12.3828 25.8727 12.3828 24.9961C12.3828 24.1195 13.1855 23.4089 14.1755 23.4088H31.8467ZM4.18791 43.2059L4.19316 43.3919C4.30278 45.299 6.08921 46.8214 8.28535 46.8215H37.7369C40.0039 46.8214 41.8343 45.199 41.8343 43.2059V18.2694C41.8343 18.0017 41.7138 17.7438 41.4982 17.5533L25.5531 3.46909C25.3373 3.2785 25.0434 3.17071 24.7364 3.1707H8.28535C6.0183 3.17076 4.18791 4.79316 4.18791 6.7863V43.2059Z" fill="#333333"/>
</svg>
