<svg width="46" height="51" viewBox="0 0 46 51" fill="none" xmlns="http://www.w3.org/2000/svg">
<path d="M0.618164 43.4539V7.03435C0.618164 3.28069 4.06196 0.2442 8.30098 0.244141H24.752C26.007 0.244157 27.2114 0.684546 28.1002 1.46949L44.0462 15.5545C44.935 16.3397 45.4353 17.4054 45.4353 18.5175V43.4539C45.4353 47.2076 41.9915 50.2441 37.7525 50.2441H8.30098C4.19432 50.2441 0.833635 47.3944 0.627793 43.8035L0.618164 43.4539ZM31.8624 34.0627L32.0453 34.0704C32.9493 34.1516 33.6551 34.8281 33.6551 35.65C33.655 36.4718 32.9493 37.1475 32.0453 37.2287L31.8624 37.2373H14.1911C13.2012 37.2371 12.3985 36.5264 12.3984 35.65C12.3984 34.7734 13.2011 34.0628 14.1911 34.0627H31.8624ZM31.8624 23.6568L32.0453 23.6654C32.9493 23.7466 33.6551 24.4223 33.6551 25.2441C33.6551 26.066 32.9493 26.7417 32.0453 26.8229L31.8624 26.8314H14.1911C13.2011 26.8313 12.3984 26.1207 12.3984 25.2441C12.3984 24.3676 13.2011 23.657 14.1911 23.6568H31.8624ZM4.20354 43.4539L4.20879 43.6399C4.3184 45.5471 6.10484 47.0695 8.30098 47.0695H37.7525C40.0195 47.0695 41.8499 45.4471 41.8499 43.4539V18.5175C41.8499 18.2498 41.7295 17.9918 41.5138 17.8013L25.5687 3.71714C25.3529 3.52654 25.059 3.41876 24.752 3.41874H8.30098C6.03392 3.4188 4.20354 5.04121 4.20354 7.03435V43.4539Z" fill="white"/>
</svg>
