<svg width="55" height="61" viewBox="0 0 55 61" fill="none" xmlns="http://www.w3.org/2000/svg">
<path d="M0.609375 52.3517V8.64825C0.609375 4.14386 4.74193 0.500072 9.82875 0.5H29.57C31.076 0.50002 32.5212 1.02849 33.5878 1.97042L52.723 18.8724C53.7896 19.8147 54.3899 21.0935 54.3899 22.428V52.3517C54.3899 56.8561 50.2574 60.4999 45.1706 60.5H9.82875C4.90076 60.4999 0.86794 57.0803 0.620929 52.7712L0.609375 52.3517ZM38.1024 41.0822L38.322 41.0915C39.4068 41.189 40.2536 42.0007 40.2536 42.987C40.2535 43.9731 39.4067 44.784 38.322 44.8815L38.1024 44.8917H16.8969C15.709 44.8916 14.7458 44.0388 14.7457 42.987C14.7457 41.9351 15.709 41.0824 16.8969 41.0822H38.1024ZM38.1024 28.5952L38.322 28.6055C39.4068 28.703 40.2536 29.5138 40.2536 30.5C40.2536 31.4862 39.4068 32.297 38.322 32.3945L38.1024 32.4048H16.8969C15.709 32.4046 14.7457 31.5519 14.7457 30.5C14.7457 29.4481 15.709 28.5954 16.8969 28.5952H38.1024ZM4.91182 52.3517L4.91812 52.575C5.04966 54.8635 7.19339 56.6904 9.82875 56.6905H45.1706C47.891 56.6904 50.0875 54.7435 50.0875 52.3517V22.428C50.0875 22.1067 49.9429 21.7972 49.6841 21.5686L30.55 4.6676C30.2911 4.43888 29.9384 4.30954 29.57 4.30952H9.82875C7.10828 4.3096 4.91182 6.25648 4.91182 8.64825V52.3517Z" fill="#333333"/>
</svg>
