<svg width="12" height="13" viewBox="0 0 12 13" fill="none" xmlns="http://www.w3.org/2000/svg">
<g clip-path="url(#clip0_2853_2181)">
<path d="M5.04439 11.1969C5.34661 11.4463 5.66179 11.6742 5.98445 11.8966C6.30781 11.6771 6.62146 11.4437 6.92451 11.1969C7.4297 10.7821 7.90514 10.3323 8.34732 9.85093C9.36668 8.73632 10.4728 7.12051 10.4728 5.30672C10.4728 4.7173 10.3567 4.13365 10.1312 3.5891C9.90559 3.04454 9.57498 2.54975 9.1582 2.13297C8.74142 1.71619 8.24662 1.38558 7.70207 1.16002C7.15752 0.934454 6.57387 0.818359 5.98445 0.818359C5.39503 0.818359 4.81138 0.934454 4.26683 1.16002C3.72228 1.38558 3.22749 1.71619 2.8107 2.13297C2.39392 2.54975 2.06331 3.04454 1.83775 3.5891C1.61219 4.13365 1.49609 4.7173 1.49609 5.30672C1.49609 7.12051 2.60222 8.73582 3.62158 9.85093C4.06374 10.3325 4.53918 10.782 5.04439 11.1969ZM5.98445 6.92751C5.55459 6.92751 5.14233 6.75675 4.83838 6.45279C4.53442 6.14883 4.36366 5.73658 4.36366 5.30672C4.36366 4.87685 4.53442 4.4646 4.83838 4.16064C5.14233 3.85668 5.55459 3.68592 5.98445 3.68592C6.41431 3.68592 6.82657 3.85668 7.13053 4.16064C7.43448 4.4646 7.60525 4.87685 7.60525 5.30672C7.60525 5.73658 7.43448 6.14883 7.13053 6.45279C6.82657 6.75675 6.41431 6.92751 5.98445 6.92751Z" fill="#CF5F1F"/>
</g>
<defs>
<clipPath id="clip0_2853_2181">
<rect width="11.969" height="11.969" fill="white" transform="translate(0 0.320312)"/>
</clipPath>
</defs>
</svg>
