<svg width="12" height="13" viewBox="0 0 12 13" fill="none" xmlns="http://www.w3.org/2000/svg">
<g clip-path="url(#clip0_2951_2189)">
<path d="M5.04439 11.0524C5.34661 11.3018 5.66179 11.5297 5.98445 11.7521C6.30781 11.5326 6.62146 11.2992 6.92451 11.0524C7.4297 10.6376 7.90514 10.1878 8.34732 9.7064C9.36668 8.59179 10.4728 6.97598 10.4728 5.16219C10.4728 4.57277 10.3567 3.98912 10.1312 3.44457C9.90559 2.90001 9.57498 2.40522 9.1582 1.98844C8.74142 1.57165 8.24662 1.24105 7.70207 1.01548C7.15752 0.789923 6.57387 0.673828 5.98445 0.673828C5.39503 0.673828 4.81138 0.789923 4.26683 1.01548C3.72228 1.24105 3.22749 1.57165 2.8107 1.98844C2.39392 2.40522 2.06331 2.90001 1.83775 3.44457C1.61219 3.98912 1.49609 4.57277 1.49609 5.16219C1.49609 6.97598 2.60222 8.59129 3.62158 9.7064C4.06374 10.188 4.53918 10.6374 5.04439 11.0524ZM5.98445 6.78298C5.55459 6.78298 5.14233 6.61222 4.83838 6.30826C4.53442 6.0043 4.36366 5.59205 4.36366 5.16219C4.36366 4.73232 4.53442 4.32007 4.83838 4.01611C5.14233 3.71215 5.55459 3.54139 5.98445 3.54139C6.41431 3.54139 6.82657 3.71215 7.13053 4.01611C7.43448 4.32007 7.60525 4.73232 7.60525 5.16219C7.60525 5.59205 7.43448 6.0043 7.13053 6.30826C6.82657 6.61222 6.41431 6.78298 5.98445 6.78298Z" fill="#333333"/>
</g>
<defs>
<clipPath id="clip0_2951_2189">
<rect width="11.969" height="11.969" fill="white" transform="translate(0 0.175781)"/>
</clipPath>
</defs>
</svg>
