<svg width="51" height="51" viewBox="0 0 51 51" fill="none" xmlns="http://www.w3.org/2000/svg">
<path d="M47.2742 25.2344C47.2742 13.2088 37.5256 3.46018 25.5 3.46018C13.4744 3.46018 3.72581 13.2088 3.72581 25.2344C3.72581 30.1163 5.33293 34.6226 8.04631 38.2542C13.274 35.5458 19.2104 34.0156 25.5 34.0156C31.7894 34.0156 37.7253 35.546 42.9529 38.2542C45.6664 34.6226 47.2742 30.1165 47.2742 25.2344ZM25.5 37.2414C20.022 37.2414 14.8434 38.5074 10.2373 40.7617C14.1667 44.6246 19.5545 47.0086 25.5 47.0086C31.4453 47.0086 36.8326 44.6243 40.7619 40.7617C36.156 38.5076 30.9778 37.2414 25.5 37.2414ZM31.6831 20.0373C31.6831 16.6227 28.9147 13.8543 25.5 13.8543C22.0853 13.8543 19.3169 16.6227 19.3169 20.0373C19.317 23.452 22.0854 26.2204 25.5 26.2204C28.9146 26.2204 31.683 23.452 31.6831 20.0373ZM50.5 25.2344C50.5 31.3682 48.2892 36.9845 44.6233 41.3343C44.606 41.3555 44.5887 41.3763 44.5705 41.3965C39.9848 46.8021 33.144 50.2344 25.5 50.2344C17.8558 50.2344 11.0144 46.8023 6.42868 41.3965C6.41051 41.3763 6.39316 41.3555 6.37591 41.3343C2.71025 36.9845 0.5 31.368 0.5 25.2344C0.5 11.4273 11.6929 0.234375 25.5 0.234375C39.3071 0.234375 50.5 11.4273 50.5 25.2344ZM34.9089 20.0373C34.9088 25.2335 30.6962 29.4462 25.5 29.4462C20.3038 29.4462 16.0912 25.2335 16.0911 20.0373C16.0911 14.8411 20.3038 10.6285 25.5 10.6285C30.6962 10.6285 34.9089 14.8411 34.9089 20.0373Z" fill="#333333"/>
</svg>
