<svg width="61" height="61" viewBox="0 0 61 61" fill="none" xmlns="http://www.w3.org/2000/svg">
<path d="M56.629 30.2344C56.629 15.8037 44.9307 4.10534 30.5 4.10534C16.0693 4.10534 4.37097 15.8037 4.37097 30.2344C4.37097 36.0927 6.29952 41.5003 9.55557 45.8581C15.8289 42.608 22.9525 40.7718 30.5 40.7718C38.0472 40.7718 45.1704 42.6083 51.4435 45.8581C54.6997 41.5002 56.629 36.0929 56.629 30.2344ZM30.5 44.6428C23.9264 44.6428 17.7121 46.162 12.1847 48.8672C16.9 53.5026 23.3654 56.3634 30.5 56.3634C37.6343 56.3634 44.0991 53.5023 48.8143 48.8672C43.2872 46.1622 37.0733 44.6428 30.5 44.6428ZM37.9197 23.9979C37.9197 19.9003 34.5976 16.5783 30.5 16.5783C26.4024 16.5783 23.0803 19.9003 23.0803 23.9979C23.0804 28.0955 26.4024 31.4176 30.5 31.4176C34.5976 31.4176 37.9196 28.0955 37.9197 23.9979ZM60.5 30.2344C60.5 37.5949 57.847 44.3345 53.448 49.5542C53.4272 49.5797 53.4065 49.6047 53.3846 49.6289C47.8817 56.1156 39.6728 60.2344 30.5 60.2344C21.327 60.2344 13.1173 56.1159 7.61442 49.6289C7.59262 49.6047 7.5718 49.5797 7.5511 49.5542C3.1523 44.3346 0.5 37.5947 0.5 30.2344C0.5 13.6658 13.9315 0.234375 30.5 0.234375C47.0685 0.234375 60.5 13.6658 60.5 30.2344ZM41.7906 23.9979C41.7906 30.2333 36.7354 35.2886 30.5 35.2886C24.2646 35.2886 19.2094 30.2333 19.2094 23.9979C19.2094 17.7624 24.2645 12.7073 30.5 12.7073C36.7355 12.7073 41.7906 17.7624 41.7906 23.9979Z" fill="#333333"/>
</svg>
