<svg width="51" height="51" viewBox="0 0 51 51" fill="none" xmlns="http://www.w3.org/2000/svg">
<path d="M47.5467 25.7734C47.5467 13.7479 37.798 3.99924 25.7725 3.99924C13.7469 3.99924 3.99827 13.7479 3.99827 25.7734C3.99827 30.6554 5.6054 35.1617 8.31877 38.7932C13.5465 36.0848 19.4828 34.5546 25.7725 34.5546C32.0618 34.5546 37.9978 36.085 43.2254 38.7932C45.9389 35.1616 47.5467 30.6555 47.5467 25.7734ZM25.7725 37.7804C20.2944 37.7804 15.1158 39.0465 10.5097 41.3008C14.4391 45.1636 19.827 47.5476 25.7725 47.5476C31.7177 47.5476 37.105 45.1634 41.0344 41.3008C36.4285 39.0467 31.2502 37.7804 25.7725 37.7804ZM31.9555 20.5764C31.9555 17.1617 29.1871 14.3933 25.7725 14.3933C22.3578 14.3933 19.5894 17.1617 19.5894 20.5764C19.5895 23.991 22.3578 26.7595 25.7725 26.7595C29.1871 26.7595 31.9555 23.991 31.9555 20.5764ZM50.7725 25.7734C50.7725 31.9072 48.5616 37.5235 44.8958 41.8733C44.8785 41.8945 44.8612 41.9154 44.843 41.9355C40.2572 47.3411 33.4165 50.7734 25.7725 50.7734C18.1283 50.7734 11.2869 47.3414 6.70114 41.9355C6.68298 41.9154 6.66562 41.8945 6.64837 41.8733C2.98271 37.5236 0.772461 31.9071 0.772461 25.7734C0.772461 11.9663 11.9653 0.773438 25.7725 0.773438C39.5796 0.773438 50.7725 11.9663 50.7725 25.7734ZM35.1813 20.5764C35.1813 25.7726 30.9687 29.9853 25.7725 29.9853C20.5763 29.9853 16.3636 25.7726 16.3636 20.5764C16.3636 15.3802 20.5762 11.1675 25.7725 11.1675C30.9687 11.1675 35.1813 15.3802 35.1813 20.5764Z" fill="white"/>
</svg>
