<svg width="29" height="30" viewBox="0 0 29 30" fill="none" xmlns="http://www.w3.org/2000/svg">
<path d="M14.499 12.349C15.0544 12.349 15.6043 12.2396 16.1175 12.027C16.6306 11.8145 17.0968 11.503 17.4895 11.1103C17.8822 10.7175 18.1937 10.2513 18.4063 9.73822C18.6188 9.22512 18.7282 8.67517 18.7282 8.11979C18.7282 7.56441 18.6188 7.01447 18.4063 6.50136C18.1937 5.98825 17.8822 5.52203 17.4895 5.12932C17.0968 4.73661 16.6306 4.42509 16.1175 4.21255C15.6043 4.00002 15.0544 3.89062 14.499 3.89063C13.3774 3.89063 12.3017 4.3362 11.5086 5.12932C10.7154 5.92244 10.2699 6.99815 10.2699 8.11979C10.2699 9.24144 10.7154 10.3171 11.5086 11.1103C12.3017 11.9034 13.3774 12.349 14.499 12.349ZM3.62402 24.9156V25.6406H25.374V24.9156C25.374 22.209 25.374 20.8556 24.8472 19.8213C24.3838 18.9119 23.6444 18.1725 22.735 17.7091C21.7007 17.1823 20.3474 17.1823 17.6407 17.1823H11.3574C8.65069 17.1823 7.29736 17.1823 6.26302 17.7091C5.35361 18.1725 4.61424 18.9119 4.15086 19.8213C3.62402 20.8556 3.62402 22.209 3.62402 24.9156Z" fill="#333333" stroke="#333333" stroke-width="2" stroke-linecap="round" stroke-linejoin="round"/>
</svg>
