<svg width="41" height="41" viewBox="0 0 41 41" fill="none" xmlns="http://www.w3.org/2000/svg">
<path fill-rule="evenodd" clip-rule="evenodd" d="M8.58195 37.635C7.18445 37.635 5.85695 37.08 4.85695 36.0925C3.85695 35.105 3.31445 33.765 3.31445 32.3675V7.8925C3.31445 6.495 3.86945 5.1675 4.85695 4.1675C5.84445 3.1675 7.18445 2.625 8.58195 2.625H33.057C34.4545 2.625 35.782 3.18 36.782 4.1675C37.782 5.155 38.3245 6.495 38.3245 7.8925V32.3675C38.3245 33.765 37.7695 35.0925 36.782 36.0925C35.7945 37.0925 34.4545 37.635 33.057 37.635H8.58195ZM29.957 22.86H26.257V35.085H33.057C33.4141 35.086 33.7679 35.0164 34.0981 34.8802C34.4282 34.7439 34.7282 34.5438 34.9807 34.2913C35.2333 34.0387 35.4334 33.7388 35.5696 33.4086C35.7058 33.0785 35.7754 32.7246 35.7745 32.3675V7.8925C35.7748 7.53554 35.7047 7.18202 35.5683 6.85217C35.4318 6.52232 35.2317 6.22261 34.9792 5.9702C34.7268 5.7178 34.4271 5.51764 34.0973 5.38119C33.7674 5.24474 33.4139 5.17467 33.057 5.175H8.58195C7.86184 5.17698 7.17178 5.46392 6.66258 5.97312C6.15337 6.48233 5.86643 7.17238 5.86445 7.8925V32.3675C5.86643 33.0876 6.15337 33.7777 6.66258 34.2869C7.17178 34.7961 7.86184 35.083 8.58195 35.085H22.182V22.86H18.107V18.785H22.182V16.595C22.182 12.445 24.202 10.62 27.657 10.62C29.2745 10.62 30.1445 10.7375 30.557 10.795L30.582 10.7975V14.6975H28.232C27.047 14.6975 26.487 15.205 26.317 16.2275C26.2761 16.4938 26.2569 16.7631 26.2595 17.0325V18.775H30.5345L29.952 22.85L29.957 22.86Z" fill="white"/>
</svg>
