<svg width="1920" height="415" viewBox="0 0 1920 415" fill="none" xmlns="http://www.w3.org/2000/svg">
<path d="M9.36516e-05 134.684C10.5146 134.596 392.155 134.088 394.943 135.609C396.21 128.003 400.962 65.2488 381.32 34.1886C396.02 28.864 395.048 29.2232 392.725 30.0684C393.992 37.2524 397.35 51.9373 400.645 53.205C403.94 54.4728 404.896 52.6459 404.963 51.574L405.951 26.0557H417.617C417.683 34.0181 418.013 50.2692 418.804 51.574C419.595 52.8788 425.856 52.1177 428.888 51.574C431.92 46.5627 438.181 34.7992 438.972 27.836H445.497C442.927 37.0015 438.3 55.926 440.356 58.2998C442.413 60.6736 445.959 61.267 447.475 61.267C451.166 55.1347 458.627 41.4854 458.943 35.9465L470.214 43.6614C466.127 51.1784 459.181 67.162 464.084 70.96C470.214 75.7076 486.23 62.6517 488.801 57.1129L495.721 62.8496C488.339 66.74 474.841 75.945 479.903 81.6421C484.965 87.3393 498.621 76.8945 504.816 70.96L511.341 78.2793C494.072 89.7071 458.714 118.827 455.429 143.883C459.364 150.9 462.871 164.677 462.871 177.257C464.154 183.931 468.26 186.755 485.71 188.296C488.789 183.931 496.949 175.1 504.955 174.689C512.961 174.279 516.502 177.941 517.272 179.824C531.719 168.009 563.546 144.516 575.273 145.06C576.794 143.104 575.907 139.537 575.273 137.998C569.573 137.455 558.796 135.283 561.293 130.937C563.791 126.592 570.025 129.127 572.83 130.937C572.604 128.674 572.043 124.039 571.609 123.605C571.066 123.062 558.036 126.999 557.086 120.889C556.325 116 565.184 117.494 569.708 118.852L563.736 110.569C558.081 110.976 547.123 110.84 548.534 107.038C549.946 103.236 556.271 103.644 559.257 104.323C558.081 101.788 555.402 96.7183 554.099 96.7183C552.471 96.7183 544.191 103.236 540.798 96.7183C538.083 91.5039 546.001 90.4719 550.299 90.6077C549.032 88.6614 546.118 84.8231 544.598 85.0403C542.698 85.3119 535.233 90.4719 533.74 85.0403C532.545 80.695 538.671 80.695 541.884 81.2382C541.25 79.4277 539.359 75.698 536.861 75.2635C533.74 74.7203 524.781 79.0656 524.646 73.3624C524.537 68.7998 532.744 69.8598 536.861 70.96C537.223 66.7556 538.735 58.797 541.884 60.5981C545.032 62.3993 542.472 69.8581 540.798 73.3624L544.598 78.2793C544.191 74.2866 544.544 66.8445 549.213 69.0171C553.882 71.1897 551.882 79.0656 550.299 82.7319L554.099 88.0277C554.054 84.7782 555.022 78.2793 559.257 78.2793C563.492 78.2793 561.022 87.6751 559.257 92.373L564.551 102.693C564.596 98.9362 565.501 91.6126 568.758 92.373C572.83 93.3235 572.152 103.779 569.708 106.088C570.577 108.152 572.152 112.832 572.83 114.914C572.921 111.112 574.052 104.214 577.852 107.038C581.653 109.863 578.35 117.992 576.224 121.704L577.852 130.937C578.305 126.637 580.35 118.771 584.91 121.704C589.471 124.637 583.282 132.612 579.617 136.233L580.431 145.06C588.349 144.245 605.216 143.104 609.342 145.06C609.795 140.307 610.265 129.607 608.528 124.827C606.356 118.852 588.032 116 587.897 109.347C587.788 104.024 599.072 108.668 604.727 111.655C603.279 106.088 599.814 93.7309 597.534 88.8425C594.683 82.7319 575.545 85.3119 575.409 79.6087C575.301 75.0462 578.893 74.7203 580.703 75.1277L594.004 78.2793C590.521 72.2045 585.182 59.892 591.697 59.2402C598.212 58.5884 604.094 77.074 606.22 86.3982C607.94 78.3413 612.708 62.9066 618.029 65.6224C623.35 68.3382 615.993 88.3898 611.65 98.0762C614.455 106.676 619.848 125.288 618.979 130.937C622.961 129.308 631.032 124.61 631.466 118.852C632.009 111.655 640.968 113.149 639.746 120.753C638.524 128.357 623.323 139.9 621.151 140.443V149.541C634.588 153.75 662.006 162.685 664.178 164.749C664.902 163.029 666.132 158.992 665.264 156.602C664.178 153.614 635.674 138.542 645.447 127.678C646.895 127.181 650.143 126.864 651.555 129.579C653.319 132.974 661.327 147.096 664.178 146.689C665.399 146.734 667.327 145.766 665.264 141.529C662.685 136.233 653.319 122.654 659.291 120.753C664.069 119.232 667.797 126.909 669.064 130.937C670.602 128.131 673.489 121.785 672.729 118.852C663.816 109.211 648.297 88.8153 657.527 84.3614C658.975 84.1803 662.278 85.5563 663.906 92.5088C665.037 97.0351 668.521 106.305 673.407 107.174C673.272 97.7593 671.887 78.1693 667.435 75.1277C661.87 71.3255 670.557 62.7708 675.036 72.4118C678.62 80.1247 680.692 89.0235 681.28 92.5088C686.211 88.4351 696.129 79.2557 696.346 75.1277C696.618 69.9676 705.033 68.0666 704.219 76.214C703.567 82.7319 688.655 96.1298 681.28 102.014C681.698 107.076 682.271 117.21 681.498 120.175C683.566 114.786 688.171 105.25 691.731 106.088C696.346 107.174 694.989 111.655 694.446 114.235C694.012 116.299 680.873 135.645 674.358 145.06V154.972C678.52 151.351 687.333 144.842 689.288 147.775C691.731 151.442 671.914 167.058 674.358 167.872C676.801 168.687 696.346 181.994 700.554 181.723C704.761 181.451 712.362 175.884 716.027 176.02C717.249 173.032 714.534 153.75 694.446 142.751C690.762 138.677 696.454 135.673 701.232 138.677L715.077 151.849C716.072 148.318 716.597 139.764 710.734 133.789C703.404 126.32 712.362 127.271 716.027 132.974C719.692 138.677 723.492 145.06 723.492 149.133C725.636 148.09 729.947 145.891 730.037 145.439C730.15 144.875 733.691 144.086 734.964 145.439C735.983 146.522 735.389 149.575 734.964 150.966C733.097 154.124 729.253 156.854 727.564 157.824C725.121 161.49 721.999 170.995 725.664 174.39C728.596 177.106 735.487 180.899 737.366 181.723C743.228 173.302 735.805 162.282 731.361 157.824C731.746 157.493 733.487 155.974 737.366 152.545C741.244 149.116 734.978 135.303 731.361 128.826L734.964 124.553C735.621 128.497 738.118 136.285 742.848 135.891C747.578 135.497 749.527 126.963 749.911 122.746L759.108 124.553C756.042 130.332 751.356 142.061 757.137 142.751C762.919 143.441 768.196 130.907 770.112 124.553L776.682 125.375C774.328 130.838 771.032 142.134 776.682 143.614C782.332 145.093 786.92 135.357 788.508 130.304L794.913 131.948C790.643 138.987 783.383 153.541 788.508 155.444C793.632 157.348 803.125 145.283 807.231 139.013L809.859 140.985C806.41 144.545 800.892 152.421 806.41 155.444C811.929 158.468 819.221 152.497 822.178 149.133L825.627 151.849C814.294 162.797 791.957 185.941 793.271 190.936C795.899 189.457 802.37 187.913 807.231 193.565C813.308 200.631 822.999 220.513 829.569 220.513C836.138 220.513 846.814 220.841 852.07 223.963C857.326 227.085 867.509 240.559 868.659 244.174H905.942L904.75 240.222C901.275 240.627 894.342 241.056 894.412 239.526C894.482 237.997 900.58 237.498 903.621 237.441L902.057 234.486C898.843 235.268 892.396 236.363 892.327 234.486C892.258 232.608 898.321 231.965 901.362 231.878L899.364 228.402C896.729 229.126 891.545 230.001 891.893 227.706C892.24 225.412 895.86 225.592 897.626 225.968L895.889 222.665C894.557 223.361 891.893 224.126 891.893 221.623C891.893 219.119 894.557 219.71 895.889 220.319C896.526 219.247 898.113 217.242 899.364 217.798C901.518 218.911 899.624 221.217 898.408 222.231L899.364 225.186C900.406 224.027 902.717 222.057 903.621 223.448C904.524 224.838 902.491 226.866 901.362 227.706L903.621 231.27C904.982 229.763 907.912 227.081 908.746 228.402C909.58 229.723 906.43 232.371 904.75 233.529L905.942 236.658C907.774 234.833 911.769 231.513 913.09 232.834C914.411 234.155 909.934 237.846 907.53 239.526L908.746 244.174H918.736C915.674 236.42 910.257 219.281 913.09 212.752C916.631 204.591 926.894 196.166 925.841 184.846C924.999 175.79 921.981 169.489 920.578 167.471C924.876 173.087 933.472 185.794 933.472 191.691C933.472 199.062 916.894 211.975 918.736 221.623C920.21 229.34 922.859 239.873 923.999 244.174H937.156C939.174 235.883 945.379 217.009 951.893 206.434C964.469 186.016 944.783 162.459 941.893 151.849C938.311 138.696 937.893 123.769 941.893 119.557C942.858 127.249 947.716 142.608 953.671 147.725C960.614 153.691 974.208 172.446 970.839 195.113C966.103 210.445 955.103 241.722 948.998 244.174H973.471C971.717 239.4 968.734 227.985 970.839 220.513C973.471 211.172 988.47 194.587 993.207 184.846C997.944 175.105 1003.21 156.151 1001.89 144.567C1005.84 154.747 1011.84 177.896 1004.26 189.058C994.786 203.011 980.839 215.626 981.102 223.448C981.313 229.705 982.944 239.873 983.734 244.174L990.312 234.866C988.383 232.88 984.786 228.363 985.839 226.178C986.892 223.994 990.602 229.989 992.325 233.259L993.977 230.899C992.011 228.618 988.669 223.702 991.028 222.284C993.387 220.867 994.92 226.257 995.392 229.129L998.223 226.178C996.336 224.841 993.127 221.718 995.392 219.924C997.657 218.13 999.953 222.166 1000.82 224.409L1003.3 222.284C1001.41 220.711 998.459 217.304 1001.76 216.266C1005.06 215.227 1005.65 218.664 1005.54 220.513C1006.99 219.535 1009.95 218.165 1010.14 220.513C1010.37 223.448 1005.54 224.611 1005.54 223.448C1005.54 222.517 1003.02 224.33 1001.76 225.353C1003.89 225.392 1007.97 226.013 1007.31 228.185C1006.65 230.356 1002.23 228.381 1000.11 227.123L997.044 229.837C999.324 229.419 1003.77 229.212 1003.3 231.725C1002.82 234.238 997.83 232.772 995.392 231.725L993.977 233.849C996.257 233.692 1000.82 233.849 1000.82 235.737C1000.82 237.625 995.156 236.524 992.325 235.737C990.281 238.294 986.286 243.56 986.663 244.174C987.135 244.942 1028.93 244.187 1034.99 239.526C1041.05 234.866 1047.71 213.311 1059.21 209.979C1055.73 207.622 1049.36 202.319 1051.71 199.961C1054.07 197.603 1059.19 202.53 1061.46 205.289C1061.99 204.571 1062.41 201.616 1059.87 195.539C1053.23 192.516 1040.29 185.222 1041.74 180.234C1043.56 173.999 1045.48 176.04 1046.96 180.234C1048.13 183.59 1054.55 185.865 1057.61 186.583C1054.59 180.688 1048 168.33 1045.82 166.063C1045.52 164.249 1045.96 161.415 1050.13 164.589C1054.3 167.763 1057.92 173.923 1059.21 176.606C1060.34 175.624 1062.68 173.228 1063.05 171.505C1063.98 167.069 1062.14 156.086 1065.99 157.107C1069.85 158.127 1067.35 175.246 1067.35 175.246L1063.05 181.821C1064.48 184.089 1067.35 189.258 1067.35 191.798C1067.54 188.095 1068.71 181.164 1071.89 183.068C1072.57 184.391 1073.72 188.329 1072.91 193.499C1071.89 199.961 1068.83 201.775 1071.89 203.929L1080.78 195.539V185.713C1079.83 184.157 1072.91 181.398 1070.49 178.874C1068.33 176.606 1070.15 174.718 1071.89 175.246L1078.21 178.874C1078.85 172.424 1079.83 159.04 1078.69 157.107C1077.26 154.69 1065.98 143.22 1068.08 140.83C1070.18 138.44 1077.26 147.712 1078.69 150.293C1078.4 143.092 1078.94 129.187 1083.37 131.176C1084.13 131.59 1085.55 134.101 1085.09 140.83C1088.02 138.345 1094.24 134.12 1095.7 137.102C1097.15 140.084 1089.23 146.756 1085.09 149.72L1084.52 163.197C1087.03 161.031 1092.33 157.042 1093.4 158.418C1094.74 160.139 1085.66 168.168 1084.52 170.653C1083.31 175.91 1081.98 187.056 1086.33 189.579C1089.42 184.45 1097.99 173.635 1107.54 171.418C1119.49 168.646 1117.21 178.105 1143.02 177.356C1168.83 176.606 1196.89 113.922 1222.7 107.186C1243.35 101.797 1266.84 98.5786 1276 97.6431C1280.12 87.5388 1290.48 67.6672 1299.01 69.0145C1307.54 70.3617 1308.74 55.9437 1308.28 48.5664C1299.43 47.4603 1283.07 43.368 1288.38 35.8469C1291.67 35.5559 1299.77 36.333 1305.92 41.7701L1303.09 30.9613C1296.64 31.6068 1284.2 31.3486 1286.06 25.1517C1287.91 18.9548 1297.15 22.5696 1301.54 25.1517L1296.51 13.9198C1291.73 14.5653 1282.57 14.462 1284.12 8.88482C1285.67 3.30762 1293.02 6.56098 1296.51 8.88482C1297.75 4.88266 1301.37 -2.34705 1305.92 0.751398C1310.47 3.84984 1304.9 10.8214 1301.54 13.9198L1305.92 25.1517C1307.94 20.8913 1313.31 13.455 1318.57 17.7928C1323.84 22.1307 1313.91 28.3792 1308.28 30.9613L1311.22 41.7701C1314.06 35.5851 1320.59 24.7644 1323.99 30.9613C1324.4 32.2917 1324.63 35.4845 1322.34 37.6119C1320.06 39.7394 1315.26 45.8013 1313.16 48.5664L1311.22 69.0145C1314.32 68.8529 1320.39 66.6438 1323.99 65.0441C1328.06 63.2396 1336.34 55.6358 1335.52 51.5386C1334.5 46.4171 1323.44 47.0316 1327.33 43.3441C1330.44 40.3941 1335.31 46.3488 1337.36 49.6948L1340.23 43.3441C1336.41 42.4736 1329.91 39.7554 1334.5 35.8469C1337.36 33.4041 1341.46 37.1679 1342.07 40.2712L1344.73 34.3303C1341.25 32.4731 1335.48 28.3981 1340.23 26.9553C1344.98 25.5124 1346.71 29.905 1346.99 32.2816C1349.58 31.0932 1354.81 29.4294 1354.97 32.2816C1355.14 35.1339 1349.72 35.8469 1346.99 35.8469L1344.73 41.7701C1347.33 39.8027 1352.56 37.0484 1352.72 41.7701C1352.88 46.4917 1345.69 45.6062 1342.07 44.5733L1339 51.5386C1343.1 50.0363 1351.21 48.1379 1350.88 52.5629C1350.55 56.9879 1341.73 55.6358 1337.36 54.4066C1336.41 55.6358 1334.5 58.9136 1334.5 62.1914C1334.5 65.4691 1348.15 61.6121 1354.97 59.2738C1363.92 58.8707 1383.58 61.6928 1390.67 76.2062C1401.82 79.7002 1425.01 89.4296 1428.55 100.395C1427.15 93.7986 1425.2 80.6049 1428.55 80.6049C1432.74 80.6049 1400.3 67.0091 1404.76 59.2738C1408.32 53.0856 1424.78 67.9837 1432.56 76.2062C1434.03 71.5346 1437.54 62.1914 1439.81 62.1914C1442.65 62.1914 1430.67 26.9553 1437.92 26.9553C1443.72 26.9553 1445.17 40.881 1445.17 47.8439C1446.75 38.6201 1451.22 20.8508 1456.52 23.5639C1461.81 26.277 1452.63 52.3478 1447.38 65.0441C1452.84 64.7431 1463.77 63.1676 1463.77 59.2738C1463.77 54.4066 1475.11 53.882 1471.65 65.0441C1468.87 73.9738 1450.95 74.9562 1442.33 74.3312C1440.86 76.0129 1437.92 80.5115 1437.92 85.0522V102.395C1441.07 101.134 1448.83 99.368 1454.63 102.395C1461.88 106.179 1470.07 124.152 1480.47 123.837C1488.79 123.585 1897.7 131.384 1920 135.315V415H0L9.36516e-05 134.684Z" fill="#2A658D"/>
</svg>
