<svg width="320" height="328" viewBox="0 0 320 328" fill="none" xmlns="http://www.w3.org/2000/svg">
<path d="M0 33.8455C2.64339 33.8233 23.7776 33.6957 24.4785 34.078C24.7971 32.1666 25.9918 16.3967 21.0537 8.59145C24.7493 7.2534 24.505 7.34367 23.921 7.55606C24.2396 9.36136 25.0838 13.0516 25.9121 13.3702C26.7404 13.6888 26.9808 13.2297 26.9975 12.9603L27.2461 6.54768H30.179C30.1955 8.54861 30.2784 12.6324 30.4772 12.9603C30.6761 13.2882 32.2503 13.097 33.0125 12.9603C33.7747 11.701 35.3489 8.74488 35.5477 6.99507H37.1882C36.5419 9.29832 35.3787 14.054 35.8957 14.6505C36.4127 15.247 37.3041 15.3961 37.6853 15.3961C38.6132 13.8551 40.4889 10.4251 40.5685 9.0332L43.402 10.9719C42.3746 12.8609 40.6281 16.8775 41.8609 17.8319C43.402 19.025 47.4285 15.7441 48.0747 14.3522L49.8146 15.7938C47.9588 16.7715 44.5652 19.0847 45.8378 20.5163C47.1104 21.948 50.5437 19.3233 52.1013 17.8319L53.7417 19.6712C49.4002 22.543 40.5109 29.8606 39.6851 36.1571C40.6743 37.9204 41.556 41.3826 41.556 44.5438C41.8786 46.2211 42.9108 46.9308 47.2976 47.3178C48.0718 46.2211 50.1233 44.0019 52.1361 43.8987C54.1489 43.7954 55.0392 44.7158 55.2327 45.1889C58.8649 42.22 66.8663 36.3163 69.8146 36.4528C70.1968 35.9614 69.9738 35.0651 69.8146 34.6784C68.3814 34.5419 65.672 33.9959 66.2999 32.904C66.9277 31.812 68.4951 32.449 69.2004 32.904C69.1435 32.3353 69.0024 31.1705 68.8932 31.0613C68.7568 30.9248 65.4809 31.9144 65.242 30.3788C65.0509 29.1504 67.2781 29.5258 68.4155 29.867L66.9141 27.7855C65.4923 27.8878 62.7374 27.8537 63.0923 26.8983C63.4472 25.9428 65.0373 26.0452 65.788 26.2158C65.4923 25.5788 64.8189 24.3049 64.4913 24.3049C64.0818 24.3049 62.0003 25.9428 61.1472 24.3049C60.4648 22.9945 62.4553 22.7352 63.5359 22.7693C63.2174 22.2802 62.4849 21.3157 62.1027 21.3703C61.625 21.4385 59.7482 22.7352 59.3728 21.3703C59.0725 20.2783 60.6126 20.2783 61.4202 20.4148C61.261 19.9598 60.7855 19.0226 60.1577 18.9134C59.3728 18.7769 57.1206 19.8688 57.0865 18.4356C57.0592 17.2891 59.1226 17.5555 60.1577 17.8319C60.2487 16.7754 60.6286 14.7754 61.4202 15.228C62.2119 15.6807 61.5681 17.555 61.1472 18.4356L62.1027 19.6712C62.0003 18.6679 62.089 16.7977 63.2629 17.3437C64.4367 17.8897 63.934 19.8688 63.5359 20.7902L64.4913 22.121C64.48 21.3044 64.7234 19.6712 65.788 19.6712C66.8527 19.6712 66.2316 22.0324 65.788 23.2129L67.1188 25.8063C67.1302 24.8622 67.3577 23.0218 68.1767 23.2129C69.2004 23.4518 69.0297 26.0793 68.4155 26.6594C68.6339 27.1781 69.0297 28.3542 69.2004 28.8774C69.2231 27.922 69.5075 26.1885 70.4629 26.8983C71.4184 27.608 70.5881 29.6509 70.0535 30.5836L70.4629 32.904C70.5767 31.8234 71.0908 29.8465 72.2374 30.5836C73.3839 31.3207 71.8279 33.3248 70.9065 34.2348L71.1113 36.4528C73.1018 36.2481 77.3422 35.9614 78.3796 36.4528C78.4933 35.2585 78.6116 32.5696 78.1748 31.3684C77.6288 29.867 73.0222 29.1504 72.988 27.4784C72.9607 26.1407 75.7976 27.3077 77.2194 28.0585C76.8554 26.6594 75.9841 23.5542 75.4108 22.3257C74.6942 20.7902 69.8828 21.4385 69.8487 20.0053C69.8214 18.8588 70.7245 18.7769 71.1795 18.8792L74.5236 19.6712C73.6478 18.1447 72.3056 15.0506 73.9435 14.8868C75.5814 14.723 77.0601 19.3683 77.5947 21.7115C78.027 19.6868 79.2258 15.8081 80.5635 16.4906C81.9011 17.1731 80.0516 22.212 78.9597 24.6461C79.6649 26.8073 81.0208 31.4844 80.8024 32.904C81.8033 32.4945 83.8325 31.3138 83.9417 29.867C84.0782 28.0585 86.3303 28.4338 86.0232 30.3447C85.7161 32.2556 81.8943 35.1561 81.3483 35.2926V37.5789C84.7265 38.6367 91.6195 40.882 92.1655 41.4007C92.3475 40.9685 92.6568 39.9539 92.4384 39.3533C92.1655 38.6026 84.9995 34.8149 87.4564 32.085C87.8204 31.9599 88.6371 31.8803 88.992 32.5627C89.4356 33.4158 91.4489 36.9647 92.1655 36.8623C92.4726 36.8737 92.9571 36.6303 92.4384 35.5656C91.7901 34.2348 89.4356 30.8225 90.937 30.3447C92.1382 29.9625 93.0754 31.8917 93.3939 32.904C93.7806 32.1988 94.5063 30.6041 94.3152 29.867C92.0744 27.4442 88.173 22.3189 90.4934 21.1996C90.8574 21.1541 91.6877 21.4999 92.0972 23.247C92.3816 24.3845 93.2574 26.714 94.4858 26.9324C94.4517 24.5665 94.1037 19.6436 92.9844 18.8792C91.5854 17.9238 93.7692 15.774 94.8953 18.1968C95.7962 20.135 96.3171 22.3712 96.465 23.247C97.7048 22.2233 100.198 19.9166 100.253 18.8792C100.321 17.5826 102.437 17.1048 102.232 19.1522C102.068 20.7902 98.3191 24.157 96.465 25.6357C96.5701 26.9077 96.7141 29.4543 96.5199 30.1994C97.0398 28.8451 98.1973 26.4488 99.0925 26.6594C100.253 26.9324 99.9115 28.0585 99.775 28.7068C99.6658 29.2255 96.3626 34.0869 94.7247 36.4528V38.9438C95.7712 38.0339 97.9869 36.3982 98.4783 37.1353C99.0925 38.0566 94.1105 41.9808 94.7247 42.1856C95.3389 42.3903 100.253 45.7344 101.311 45.6661C102.368 45.5979 104.279 44.1988 105.201 44.233C105.508 43.4822 104.825 38.6367 99.775 35.8727C98.8912 35.1875 99.9102 34.1489 101.468 34.9915C102.905 36.0152 104.903 37.9259 104.962 38.159C105.212 37.2718 105.344 35.122 103.87 33.6206C102.027 31.7438 104.279 31.9826 105.201 33.4158C106.122 34.849 107.077 36.4528 107.077 37.4765C107.616 37.2144 108.7 36.6617 108.723 36.5483C108.751 36.4066 109.641 36.2082 109.962 36.5483C110.218 36.8204 110.068 37.5876 109.962 37.9372C109.492 38.7308 108.526 39.4167 108.101 39.6604C107.487 40.5818 106.702 42.9704 107.623 43.8235C108.36 44.506 110.093 45.4592 110.565 45.6661C112.039 43.5502 110.173 40.7807 109.055 39.6604C109.152 39.5773 109.59 39.1956 110.565 38.334C111.54 37.4723 109.965 34.0012 109.055 32.3733L109.962 31.2997C110.127 32.2907 110.754 34.2479 111.943 34.1488C113.133 34.0497 113.623 31.9053 113.719 30.8455L116.031 31.2997C115.261 32.7518 114.082 35.6993 115.536 35.8727C116.989 36.0462 118.316 32.8963 118.798 31.2997L120.449 31.5062C119.858 32.879 119.029 35.7177 120.449 36.0895C121.87 36.4613 123.023 34.0147 123.422 32.7449L125.033 33.1578C123.959 34.9267 122.134 38.5842 123.422 39.0625C124.711 39.5408 127.097 36.509 128.13 34.9334L128.79 35.4289C127.923 36.3235 126.536 38.3027 127.923 39.0625C129.311 39.8223 131.144 38.3218 131.887 37.4765L132.754 38.159C129.905 40.9101 124.29 46.7262 124.62 47.9814C125.281 47.6098 126.907 47.2217 128.13 48.6421C129.657 50.4176 132.094 55.4139 133.745 55.4139C135.397 55.4139 138.081 55.4965 139.402 56.281C140.724 57.0656 143.284 60.4514 143.573 61.3599H152.946L152.646 60.3667C151.773 60.4686 150.03 60.5763 150.047 60.1919C150.065 59.8075 151.598 59.6823 152.362 59.6678L151.969 58.9252C151.161 59.1217 149.54 59.3969 149.523 58.9252C149.506 58.4534 151.03 58.2918 151.794 58.27L151.292 57.3963C150.63 57.5783 149.326 57.7982 149.414 57.2216C149.501 56.645 150.411 56.6902 150.855 56.7848L150.418 55.9549C150.084 56.1296 149.414 56.3218 149.414 55.6928C149.414 55.0638 150.084 55.2123 150.418 55.3652C150.579 55.0958 150.978 54.592 151.292 54.7318C151.834 55.0113 151.358 55.5908 151.052 55.8456L151.292 56.5882C151.554 56.297 152.135 55.802 152.362 56.1514C152.589 56.5009 152.078 57.0105 151.794 57.2216L152.362 58.1171C152.704 57.7385 153.441 57.0644 153.651 57.3963C153.861 57.7283 153.068 58.3937 152.646 58.6849L152.946 59.4712C153.406 59.0125 154.411 58.1782 154.743 58.5102C155.075 58.8422 153.949 59.7697 153.345 60.1919L153.651 61.3599H156.162C155.392 59.4114 154.031 55.1043 154.743 53.4636C155.633 51.4128 158.213 49.2958 157.949 46.451C157.737 44.1752 156.978 42.5919 156.625 42.0847C157.706 43.496 159.403 46.178 159.403 47.6599C159.403 49.5123 155.699 53.2685 156.162 55.6928C156.533 57.6322 157.199 60.2789 157.485 61.3599H160.793C161.3 59.2765 162.751 54.4629 164.498 51.8759C166.681 48.6421 164.37 41.6708 162.35 38.5501C161.031 36.2359 160.979 31.1027 161.984 30.0442C162.227 31.9772 164.088 35.4872 165.007 36.8021C166.507 38.5525 169.294 43.4772 168.447 49.1735C167.256 53.0262 164.498 59.984 163.796 61.3599H169.923C169.482 60.1603 168.732 57.2916 169.261 55.4139C169.923 53.0667 173.694 48.8988 174.885 46.451C176.075 44.0032 177.399 39.24 177.068 36.3291C178.06 38.8871 179.569 44.7045 177.663 47.5095C175.282 51.0158 171.775 54.1858 171.841 56.1514C171.894 57.7239 172.305 60.2789 172.503 61.3599L174.157 59.0208C173.672 58.5218 172.768 57.3866 173.032 56.8376C173.297 56.2887 174.23 57.7951 174.663 58.617L175.078 58.0239C174.584 57.4507 173.744 56.2152 174.337 55.8591C174.93 55.5029 175.315 56.8573 175.434 57.5791L176.146 56.8376C175.671 56.5016 174.865 55.7167 175.434 55.266C176.003 54.8152 176.581 55.8294 176.798 56.3929L177.421 55.8591C176.946 55.4637 176.205 54.6076 177.035 54.3467C177.866 54.0857 178.014 54.9494 177.984 55.4139C178.35 55.1681 179.093 54.8239 179.141 55.4139C179.2 56.1514 177.984 56.4438 177.984 56.1514C177.984 55.9175 177.352 56.3731 177.035 56.6301C177.569 56.64 178.595 56.7962 178.429 57.3418C178.263 57.8875 177.154 57.3913 176.62 57.0749L175.849 57.757C176.422 57.6521 177.539 57.6 177.421 58.2315C177.302 58.8629 176.047 58.4946 175.434 58.2315L175.078 58.7653C175.651 58.7257 176.798 58.7653 176.798 59.2398C176.798 59.7142 175.375 59.4375 174.663 59.2398C174.149 59.8821 173.145 61.2055 173.24 61.3599C173.358 61.5528 183.866 61.3631 185.389 60.1919C186.911 59.0208 188.586 53.6041 191.479 52.7668C190.604 52.1745 189.001 50.8418 189.593 50.2492C190.186 49.6566 191.474 50.895 192.044 51.5882C192.177 51.4078 192.283 50.6652 191.645 49.1381C189.973 48.3784 186.722 46.5456 187.086 45.2921C187.542 43.7251 188.027 44.2379 188.397 45.2921C188.693 46.1353 190.306 46.707 191.075 46.8875C190.315 45.406 188.659 42.3007 188.112 41.7309C188.036 41.2751 188.146 40.5628 189.195 41.3605C190.243 42.1582 191.154 43.7062 191.479 44.3804C191.762 44.1335 192.351 43.5314 192.442 43.0984C192.677 41.9836 192.214 39.2238 193.183 39.4802C194.152 39.7366 193.525 44.0385 193.525 44.0385L192.442 45.6909C192.803 46.2607 193.525 47.5598 193.525 48.198C193.572 47.2673 193.867 45.5257 194.665 46.0043C194.836 46.3367 195.126 47.3262 194.921 48.6253C194.665 50.2492 193.895 50.7051 194.665 51.2464L196.901 49.1381V46.6688C196.661 46.2778 194.921 45.5846 194.315 44.9502C193.77 44.3804 194.228 43.9058 194.665 44.0385L196.255 44.9502C196.415 43.3293 196.663 39.966 196.375 39.4802C196.014 38.8729 193.18 35.9905 193.708 35.39C194.237 34.7894 196.014 37.1194 196.375 37.768C196.303 35.9584 196.437 32.4642 197.552 32.9639C197.744 33.068 198.099 33.6989 197.984 35.39C198.721 34.7654 200.285 33.7037 200.65 34.4531C201.015 35.2026 199.025 36.8792 197.984 37.6239L197.84 41.0108C198.473 40.4663 199.805 39.4639 200.074 39.8097C200.41 40.2421 198.128 42.2599 197.84 42.8844C197.536 44.2055 197.201 47.0063 198.296 47.6405C199.073 46.3514 201.227 43.6338 203.629 43.0766C206.632 42.38 206.059 44.757 212.548 44.5687C219.037 44.3804 226.09 28.6281 232.579 26.9353C237.77 25.5811 243.676 24.7724 245.98 24.5373C247.015 21.9981 249.62 17.0045 251.764 17.343C253.908 17.6816 254.211 14.0584 254.095 12.2045C251.871 11.9266 247.758 10.8982 249.092 9.00817C249.918 8.93503 251.956 9.13033 253.501 10.4966L252.79 7.78043C251.168 7.94264 248.04 7.87776 248.508 6.32051C248.975 4.76326 251.298 5.67165 252.401 6.32051L251.136 3.49799C249.935 3.6602 247.632 3.63424 248.021 2.23272C248.41 0.831189 250.26 1.64875 251.136 2.23272C251.447 1.22699 252.357 -0.589803 253.501 0.188823C254.645 0.967448 253.244 2.71936 252.401 3.49799L253.501 6.32051C254.01 5.24989 255.36 3.38118 256.683 4.47126C258.007 5.56134 255.509 7.13157 254.095 7.78043L254.834 10.4966C255.548 8.94238 257.189 6.22319 258.046 7.78043C258.147 8.11477 258.205 8.9171 257.63 9.45171C257.055 9.98633 255.851 11.5097 255.321 12.2045L254.834 17.343C255.613 17.3024 257.14 16.7473 258.046 16.3453C259.068 15.8918 261.149 13.981 260.943 12.9514C260.686 11.6644 257.906 11.8188 258.884 10.8922C259.666 10.1509 260.892 11.6472 261.406 12.4881L262.127 10.8922C261.166 10.6734 259.533 9.99036 260.686 9.00817C261.406 8.39429 262.436 9.34013 262.59 10.12L263.26 8.62704C262.385 8.16035 260.933 7.13632 262.127 6.77374C263.322 6.41115 263.757 7.51499 263.826 8.11224C264.478 7.81359 265.793 7.39549 265.834 8.11224C265.875 8.82898 264.512 9.00817 263.826 9.00817L263.26 10.4966C263.912 10.0022 265.226 9.3101 265.267 10.4966C265.309 11.6832 263.5 11.4606 262.59 11.2011L261.818 12.9514C262.848 12.5739 264.887 12.0968 264.804 13.2088C264.722 14.3208 262.505 13.981 261.406 13.6721C261.166 13.981 260.686 14.8047 260.686 15.6284C260.686 16.4521 264.118 15.4828 265.834 14.8953C268.082 14.7939 273.025 15.5031 274.809 19.1503C277.611 20.0283 283.44 22.4733 284.332 25.2289C283.98 23.5712 283.489 20.2557 284.332 20.2557C285.385 20.2557 277.23 16.8391 278.349 14.8953C279.245 13.3402 283.383 17.084 285.34 19.1503C285.71 17.9763 286.592 15.6284 287.163 15.6284C287.876 15.6284 284.865 6.77374 286.687 6.77374C288.145 6.77374 288.51 10.2732 288.51 12.023C288.906 9.70506 290.031 5.23971 291.362 5.9215C292.694 6.60329 290.385 13.1548 289.064 16.3453C290.438 16.2697 293.185 15.8737 293.185 14.8953C293.185 13.6721 296.038 13.5403 295.166 16.3453C294.469 18.5893 289.963 18.8362 287.797 18.6791C287.427 19.1017 286.687 20.2322 286.687 21.3732V25.7314C287.48 25.4145 289.429 24.9707 290.887 25.7314C292.709 26.6823 294.77 31.199 297.385 31.1197C299.477 31.0563 314.393 30.5183 320 31.5062L320 327.368H7.56515e-05L0 33.8455Z" fill="#2A658D"/>
</svg>
