<svg width="41" height="41" viewBox="0 0 41 41" fill="none" xmlns="http://www.w3.org/2000/svg">
<path d="M4.97363 20.138C4.97363 12.6747 4.97363 8.94135 7.29197 6.62302C9.6103 4.30469 13.342 4.30469 20.807 4.30469C28.2703 4.30469 32.0036 4.30469 34.322 6.62302C36.6403 8.94135 36.6403 12.673 36.6403 20.138C36.6403 27.6014 36.6403 31.3347 34.322 33.653C32.0036 35.9714 28.272 35.9714 20.807 35.9714C13.3436 35.9714 9.6103 35.9714 7.29197 33.653C4.97363 31.3347 4.97363 27.603 4.97363 20.138Z" stroke="white" stroke-width="2.5" stroke-linecap="round" stroke-linejoin="round"/>
<path d="M29.987 10.9727H29.9703M28.307 20.1393C28.307 22.1284 27.5168 24.0361 26.1103 25.4426C24.7038 26.8491 22.7961 27.6393 20.807 27.6393C18.8179 27.6393 16.9102 26.8491 15.5037 25.4426C14.0972 24.0361 13.307 22.1284 13.307 20.1393C13.307 18.1502 14.0972 16.2425 15.5037 14.836C16.9102 13.4295 18.8179 12.6393 20.807 12.6393C22.7961 12.6393 24.7038 13.4295 26.1103 14.836C27.5168 16.2425 28.307 18.1502 28.307 20.1393Z" stroke="white" stroke-width="2.5" stroke-linecap="round" stroke-linejoin="round"/>
</svg>
