<svg width="36" height="36" viewBox="0 0 36 36" fill="none" xmlns="http://www.w3.org/2000/svg">
<path d="M1.47363 15.6354C1.47363 23.4587 8.9353 29.8021 18.1403 29.8021C19.2847 29.801 20.3959 29.7065 21.4736 29.5187V34.8021C24.257 32.0771 28.9736 27.3021 31.9003 23.6304C33.7336 21.3554 34.807 18.6021 34.807 15.6354C34.807 7.81208 27.3453 1.46875 18.1403 1.46875C8.9353 1.46875 1.47363 7.81208 1.47363 15.6354Z" stroke="white" stroke-width="2" stroke-linecap="round" stroke-linejoin="round"/>
<path d="M8.14026 12.3008V18.9674H9.80693M13.1403 12.3008V18.9674M16.6403 18.9674V12.3008L20.6403 18.9674V12.3008M27.3069 12.3008H24.1403V15.6341M24.1403 15.6341V18.9674H27.3069M24.1403 15.6341H26.5403" stroke="white" stroke-width="2" stroke-linecap="round" stroke-linejoin="round"/>
</svg>
