<svg width="40" height="41" viewBox="0 0 40 41" fill="none" xmlns="http://www.w3.org/2000/svg">
<path d="M20.0003 10.3924C20.46 10.3924 20.9151 10.483 21.3397 10.6589C21.7644 10.8347 22.1502 11.0926 22.4752 11.4176C22.8002 11.7426 23.058 12.1284 23.2339 12.553C23.4098 12.9777 23.5003 13.4328 23.5003 13.8924C23.5003 14.3521 23.4098 14.8072 23.2339 15.2318C23.058 15.6565 22.8002 16.0423 22.4752 16.3673C22.1502 16.6923 21.7644 16.9501 21.3397 17.126C20.9151 17.3019 20.46 17.3924 20.0003 17.3924C19.0721 17.3924 18.1818 17.0237 17.5255 16.3673C16.8691 15.7109 16.5003 14.8207 16.5003 13.8924C16.5003 12.9642 16.8691 12.0739 17.5255 11.4176C18.1818 10.7612 19.0721 10.3924 20.0003 10.3924ZM20.0003 25.3924C24.9503 25.3924 30.167 27.8258 30.167 28.8924V30.7258H9.83366V28.8924C9.83366 27.8258 15.0503 25.3924 20.0003 25.3924ZM20.0003 7.22577C16.317 7.22577 13.3337 10.2091 13.3337 13.8924C13.3337 17.5758 16.317 20.5591 20.0003 20.5591C23.6837 20.5591 26.667 17.5758 26.667 13.8924C26.667 10.2091 23.6837 7.22577 20.0003 7.22577ZM20.0003 22.2258C15.5503 22.2258 6.66699 24.4591 6.66699 28.8924V33.8924H33.3337V28.8924C33.3337 24.4591 24.4503 22.2258 20.0003 22.2258Z" fill="white"/>
</svg>
