<svg width="24" height="25" viewBox="0 0 24 25" fill="none" xmlns="http://www.w3.org/2000/svg">
<path fill-rule="evenodd" clip-rule="evenodd" d="M0 6.35156C0 6.05319 0.118526 5.76705 0.329505 5.55607C0.540483 5.34509 0.826631 5.22656 1.125 5.22656H22.875C23.1734 5.22656 23.4595 5.34509 23.6705 5.55607C23.8815 5.76705 24 6.05319 24 6.35156C24 6.64993 23.8815 6.93608 23.6705 7.14706C23.4595 7.35804 23.1734 7.47656 22.875 7.47656H1.125C0.826631 7.47656 0.540483 7.35804 0.329505 7.14706C0.118526 6.93608 0 6.64993 0 6.35156ZM0 12.7266C0 12.4282 0.118526 12.142 0.329505 11.9311C0.540483 11.7201 0.826631 11.6016 1.125 11.6016H22.875C23.1734 11.6016 23.4595 11.7201 23.6705 11.9311C23.8815 12.142 24 12.4282 24 12.7266C24 13.0249 23.8815 13.3111 23.6705 13.5221C23.4595 13.733 23.1734 13.8516 22.875 13.8516H1.125C0.826631 13.8516 0.540483 13.733 0.329505 13.5221C0.118526 13.3111 0 13.0249 0 12.7266ZM1.125 17.9766C0.826631 17.9766 0.540483 18.0951 0.329505 18.3061C0.118526 18.517 0 18.8032 0 19.1016C0 19.3999 0.118526 19.6861 0.329505 19.8971C0.540483 20.108 0.826631 20.2266 1.125 20.2266H22.875C23.1734 20.2266 23.4595 20.108 23.6705 19.8971C23.8815 19.6861 24 19.3999 24 19.1016C24 18.8032 23.8815 18.517 23.6705 18.3061C23.4595 18.0951 23.1734 17.9766 22.875 17.9766H1.125Z" fill="white"/>
</svg>
