<svg width="37" height="37" viewBox="0 0 37 37" fill="none" xmlns="http://www.w3.org/2000/svg">
<circle cx="18.5" cy="18.5" r="18.5" fill="#76C6E8"/>
<mask id="mask0_3969_5652" style="mask-type:alpha" maskUnits="userSpaceOnUse" x="0" y="0" width="37" height="37">
<circle cx="18.5" cy="18.5" r="18.5" fill="#D9D9D9"/>
</mask>
<g mask="url(#mask0_3969_5652)">
<path d="M26.361 24.795L26.8755 25.7383L23.1878 30.7985C23.1192 29.7694 22.2444 28.7689 21.8156 28.3972L19.7574 28.9118C18.3852 29.2548 16.327 26.8249 15.4694 25.5671L18.814 25.3098L19.7574 22.2224L21.8156 19.6496L23.9597 17.6919C26.361 16.1825 27.4758 17.8634 27.7331 18.8926C28.1448 21.2253 27.1614 22.7653 26.6182 23.0798C26.6868 23.6286 26.4753 24.4519 26.361 24.795Z" fill="#FFC595"/>
<path d="M26.1036 18.7188C25.1888 18.8331 23.548 19.5935 24.3026 21.7204" stroke="#012038" stroke-width="0.3"/>
<path d="M24.3026 20.8614C24.7886 20.5755 25.8292 20.3468 26.1036 21.719" stroke="#012038" stroke-width="0.3"/>
<path d="M10.5795 28.2104L11.2658 25.7573C12.2266 23.7948 13.4962 24.0129 14.0109 24.3672C14.9031 24.6943 17.1278 27.0656 18.1286 28.2104C19.0894 29.0608 20.9309 28.5647 21.7315 28.2104L21.8156 29.2671C20.7862 30.51 18.4431 30.3909 17.4423 30.1729C15.9325 33.5091 12.9243 32.5987 11.6089 31.7265C10.1678 30.6145 10.3222 28.9191 10.5795 28.2104Z" fill="#666666"/>
<path d="M5.60019 12.0638C4.10113 14.5257 6.22479 17.5253 7.474 18.7174L22.5873 18.1171L27.4045 16.4877C30.4708 12.429 28.6821 10.9272 27.4045 10.4836C26.9276 1.10204 15.3951 5.46569 9.68845 8.82021C7.16732 9.5521 5.91247 11.2876 5.60019 12.0638Z" fill="#333333"/>
<path d="M21.7297 28.3246C22.3091 28.134 23.6691 27.5242 24.4741 26.6094" stroke="#012038" stroke-width="0.3"/>
<path d="M13.9257 26.9814C15.4033 26.9814 16.5555 28.0289 16.5555 29.2686C16.5554 30.5081 15.4032 31.5557 13.9257 31.5557C12.4481 31.5557 11.2959 30.508 11.2958 29.2686C11.2958 28.029 12.448 26.9815 13.9257 26.9814Z" stroke="#333333" stroke-width="0.4"/>
<path d="M13.9253 27.7871C14.8596 27.7871 15.5767 28.4318 15.5767 29.1807C15.5765 29.9294 14.8595 30.5742 13.9253 30.5742C12.9912 30.5741 12.2751 29.9294 12.2749 29.1807C12.2749 28.4319 12.9911 27.7872 13.9253 27.7871Z" stroke="#333333" stroke-width="0.3"/>
<path d="M9.20868 15.2891C7.6993 16.524 7.37912 18.4336 7.40771 19.234L7.5792 19.8344L10.6666 18.7195L18.042 18.891L19.7572 20.9493L22.2443 18.0334C21.9012 15.8379 20.1574 15.6893 19.3284 15.8894C15.0747 17.536 10.8095 16.1753 9.20868 15.2891Z" fill="#FFC595"/>
<path d="M29.0192 24.3766C33.4784 22.0441 38.1381 25.3477 39.9108 27.2916C44.417 34.01 41.3302 45.5029 38.2828 49.0582L38.2819 49.0748L34.6793 53.277C33.7187 53.414 30.9062 50.9906 29.6198 49.7614L31.4205 45.9879C30.5287 45.7135 28.5907 43.6438 27.733 42.6432C23.2049 47.5144 14.2966 48.9605 10.4088 49.0748C10.8889 46.7423 9.18001 45.3015 8.26526 44.8727C16.8413 41.9911 20.1291 37.4403 20.7008 35.525C23.0334 28.3214 27.2181 25.0913 29.0192 24.3766Z" fill="#2A658D"/>
<path d="M27.5614 18.3755C26.6181 16.746 25.3317 17.0062 23.9595 18.0353L22.6731 19.0644L21.6439 20.0125L19.843 22.2423L19.5857 20.8732C23.4449 15.8055 26.5323 15.5453 28.2475 16.4892L27.5614 18.3755Z" fill="#012038"/>
<path d="M10.924 18.2922C7.8366 18.2236 7.06476 19.2928 7.06476 19.8359C6.51589 21.551 7.75084 23.9811 8.43693 24.9817C9.80909 27.1086 11.1241 26.0966 11.6101 25.3248C12.7764 23.541 14.2686 24.3528 14.869 24.9817C15.7609 26.1481 17.2417 26.3253 17.8706 26.2681C20.0661 26.3368 20.2147 23.4952 20.0146 22.0659C19.6716 18.9785 18.1565 18.2637 17.4418 18.2922H10.924Z" fill="#76C6E8" stroke="#2A658D"/>
<path d="M10.4095 19.3203C8.41985 19.3203 8.09396 20.1207 8.17972 20.521C8.17972 21.6873 8.75145 22.8937 9.03731 23.3511C9.92922 25.4093 10.8955 25.1234 11.2671 24.7232C11.6101 23.5569 12.6107 23.2081 13.0681 23.1795C14.2344 22.9737 15.2121 23.9514 15.5551 24.4659C18.2995 26.5242 19.2714 24.1229 19.4143 22.665C19.3457 20.5381 18.1851 19.549 17.6134 19.3203H10.4095Z" fill="#FFC595"/>
<ellipse cx="10.4451" cy="22.0336" rx="0.954594" ry="0.702852" transform="rotate(77.461 10.4451 22.0336)" fill="#333333"/>
<ellipse cx="15.5906" cy="21.8618" rx="0.954594" ry="0.702852" transform="rotate(77.461 15.5906 21.8618)" fill="#333333"/>
<path d="M24.6808 33.4375C24.7983 35.7769 25.2234 40.9688 25.9829 43.0206" stroke="#012038" stroke-width="0.3"/>
<path d="M32 33C33.4293 35.3441 36.0822 40.6155 35.2589 42.9482C35.0016 43.7487 34.1955 45.624 33.0291 46.7217" stroke="#012038" stroke-width="2"/>
<path d="M18.8998 10.9162C20.0147 10.4588 22.193 9.9557 21.9872 11.6023C22.5875 11.3736 23.7367 11.1907 23.5309 12.2885" stroke="#D0ECF9" stroke-width="0.3"/>
<path d="M8.15035 13.901C8.62437 12.7931 9.82442 10.9068 10.8324 12.225C11.1 11.641 11.791 10.7047 12.4141 11.6316" stroke="#D0ECF9" stroke-width="0.3"/>
</g>
</svg>
